<?xml version="1.0" encoding="utf-8"?>
<!-- Generator: Adobe Illustrator 22.0.1, SVG Export Plug-In . SVG Version: 6.00 Build 0)  -->
<svg version="1.1" id="Layer_1" xmlns="http://www.w3.org/2000/svg" xmlns:xlink="http://www.w3.org/1999/xlink" x="0px" y="0px"
	 viewBox="0 0 99.7 45.2" style="enable-background:new 0 0 99.7 45.2;" xml:space="preserve">
<style type="text/css">
	.st0{fill-rule:evenodd;clip-rule:evenodd;fill:#E53E72;}
	.st1{fill:#403833;}
	.st2{fill:#E53E72;}
</style>
<g>
	<path class="st0" d="M23.6,4.4c0-0.5,0.1-1.1,0.3-1.5c1.6-4.6,9.3-3.7,9.3,1.6c-1.7-0.5-3.5-0.9-4.4,0.2c-0.5,0.6-0.2,1.5-0.5,2.6
		c-0.2,0.8-0.5,1.3-0.5,1.6c-0.1,1,0.1,2.3,0.2,3.5c0.2,2.5,0.2,4.7,0.4,7.1c0.1,1.1,0.3,2.6,0.1,3.5c-0.5,1.9-2.3,1.5-4.6,1.6
		C16.5,25,8.8,24.6,1.6,24.8c-0.6,0.5-0.9,1.4-1.6,1.9c-0.7-7.5,4.3-13.7,11.3-14.1C16.7,12.3,21,15.4,23,19c0.2,0.3,0.3,0.9,0.7,1
		C23.8,15.8,23.2,8.8,23.6,4.4z M28.3,2.3c-0.5-0.2-0.8,0.1-0.9,0.2c-0.9,1.1,1.5,2.4,1.6,0.6C28.9,2.7,28.8,2.5,28.3,2.3z"/>
	<path class="st0" d="M29.4,5.1c-0.3,1.3-0.2,3-0.8,3.9c0.9,0.7,1.8,1.4,3,1.9c2.2,1,5.3,0.8,4.8,4.3c2.7-1.1,2.6-6.5,0.6-8.2
		c-1-0.9-4.4-1.9-5.9-2.1C30.5,4.9,29.9,4.7,29.4,5.1z"/>
	<path class="st0" d="M13.5,29.9c2.1,0.4,4.3-0.5,6.4,0c0.9,0.2,2.5,1.7,2.4,2.7c-0.1,0.6-0.7,1-1.2,1c-1,0-1.2-1.1-2.2-1.4
		c-1.8-0.4-3.4,0.3-5.4,0c0,2.8,0,6.5,0,9.7c0,0.9,0.1,2.6-0.3,3c-0.3,0.3-1.4,0.3-1.7,0.1c-0.5-0.4-0.5-1.8-0.5-2.8
		c0-3.5,0.1-6.9-0.1-9.9c-1.6-0.5-6.1,0.8-6.8-0.5c-0.8-1.3,1.2-2.6,2.1-3.4C7,27.7,8.4,26,9.4,25.8c1.3-0.3,3,0.2,4,0
		C13.6,26.9,13.4,28.5,13.5,29.9z M11,27.4c-0.8,0.8-2.1,1.6-2.6,2.5c0.9,0,1.8,0,2.6,0C11,29,11,28.2,11,27.4z"/>
</g>
<g>
	<path class="st1" d="M35,28.5c0.3,0,0.4,0.1,0.4,0.4v0.6h0.6c2.1,0,3.2,1.1,3.2,3v0.9c0,1.9-1.1,3-3.2,3h-0.6v0.6
		c0,0.3-0.1,0.4-0.4,0.4h-0.7c-0.3,0-0.4-0.1-0.4-0.4v-0.6h-0.6c-2.1,0-3.2-1.1-3.2-3v-0.9c0-1.9,1.1-3,3.2-3H34v-0.6
		c0-0.3,0.1-0.4,0.4-0.4H35z M33.3,30.9c-1.2,0-1.7,0.5-1.7,1.6v1c0,1.1,0.6,1.6,1.7,1.6H34v-4.3H33.3z M37.8,32.5
		c0-1.1-0.6-1.6-1.7-1.6h-0.6v4.3h0.6c1.2,0,1.7-0.5,1.7-1.6V32.5z"/>
	<path class="st1" d="M47.2,28.8c0.3,0,0.4,0.1,0.4,0.4v7.7c0,0.3-0.1,0.4-0.4,0.4h-0.7c-0.3,0-0.4-0.1-0.4-0.4v-6.7h-2.5v1.6
		c0,1.6-0.2,2.9-0.5,3.7c-0.1,0.4-0.3,0.7-0.5,1c-0.4,0.6-0.8,0.7-1.3,1c-0.3,0.1-0.4,0.1-0.5-0.2l-0.3-0.6
		c-0.1-0.3-0.1-0.4,0.2-0.6c0.3-0.2,0.5-0.2,0.8-0.6c0.2-0.2,0.3-0.4,0.4-0.7c0.2-0.6,0.3-1.6,0.3-3v-2.6c0-0.3,0.1-0.4,0.4-0.4
		H47.2z"/>
	<path class="st1" d="M56.8,36.9c0.1,0.3,0,0.4-0.3,0.4h-0.6c-0.5,0-0.6-0.1-0.7-0.4l-0.6-1.5h-3.3L50.7,37
		c-0.1,0.3-0.3,0.4-0.7,0.4h-0.6c-0.3,0-0.4-0.1-0.3-0.4l3-7.8c0.1-0.3,0.2-0.3,0.5-0.3h0.6c0.3,0,0.4,0.1,0.5,0.3L56.8,36.9z
		 M53.2,31.7c-0.1-0.4-0.2-1-0.3-1.3l0-0.2h-0.1c0,0.5-0.1,0.9-0.3,1.5l-0.9,2.5h2.5L53.2,31.7z"/>
	<path class="st1" d="M65.8,28.8c0.3,0,0.4,0.1,0.4,0.4v7.7c0,0.3-0.1,0.4-0.4,0.4h-0.6c-0.3,0-0.4-0.1-0.4-0.4v-3.7
		c0-0.7,0.1-1.5,0.3-2.4H65c-0.2,0.7-0.6,1.4-1,2.2l-1.2,2.1c-0.1,0.2-0.3,0.3-0.5,0.3H62c-0.3,0-0.3,0-0.5-0.3l-1.2-2.1
		c-0.4-0.6-0.7-1.4-0.9-2.2h-0.1c0.2,0.8,0.3,1.6,0.3,2.4v3.6c0,0.3-0.1,0.4-0.4,0.4h-0.6c-0.3,0-0.4-0.1-0.4-0.4v-7.7
		c0-0.3,0.1-0.4,0.4-0.4h0.5c0.3,0,0.4,0.1,0.6,0.3l2.5,4.5l2.5-4.4c0.1-0.3,0.2-0.3,0.6-0.3H65.8z"/>
	<path class="st1" d="M74.8,28.8c0.3,0,0.4,0.1,0.4,0.4v7.7c0,0.3-0.1,0.4-0.4,0.4h-0.7c-0.3,0-0.4-0.1-0.4-0.4v-3.5
		c0-0.6,0-1.1,0.1-1.4c0-0.3,0.1-0.8,0.2-1.3h0c-0.3,0.7-0.7,1.5-1.2,2.3L70,37.1c-0.1,0.1-0.2,0.2-0.4,0.2h-0.7
		c-0.3,0-0.4-0.1-0.4-0.4v-7.7c0-0.3,0.1-0.4,0.4-0.4h0.7c0.3,0,0.4,0.1,0.4,0.4v3.5c0,0.6,0,1.1,0,1.4c0,0.3-0.1,0.8-0.2,1.4h0
		c0.3-0.8,0.7-1.5,1.2-2.4l2.7-4.1c0.1-0.1,0.2-0.2,0.4-0.2H74.8z"/>
	<path class="st1" d="M83.7,28.8c0.3,0,0.4,0.1,0.4,0.4v7.7c0,0.3-0.1,0.4-0.4,0.4H83c-0.3,0-0.4-0.1-0.4-0.4v-3.2H79v3.2
		c0,0.3-0.1,0.4-0.4,0.4h-0.7c-0.3,0-0.4-0.1-0.4-0.4v-7.7c0-0.3,0.1-0.4,0.4-0.4h0.7c0.3,0,0.4,0.1,0.4,0.4v3.1h3.5v-3.1
		c0-0.3,0.1-0.4,0.4-0.4H83.7z"/>
	<path class="st1" d="M91.2,28.8c0.3,0,0.4,0.1,0.4,0.4v0.6c0,0.3-0.1,0.4-0.4,0.4h-3.3v6.7c0,0.3-0.1,0.4-0.4,0.4h-0.7
		c-0.3,0-0.4-0.1-0.4-0.4v-7.7c0-0.3,0.1-0.4,0.4-0.4H91.2z"/>
	<path class="st1" d="M92.8,31.8c0-2,1.2-3.1,3.4-3.1c2.2,0,3.4,1.2,3.4,3.1v2.6c0,2-1.2,3.1-3.4,3.1c-2.2,0-3.4-1.2-3.4-3.1V31.8z
		 M98.2,31.8c0-1.1-0.7-1.7-1.9-1.7c-1.2,0-1.9,0.6-1.9,1.7v2.6c0,1.1,0.7,1.7,1.9,1.7c1.2,0,1.9-0.6,1.9-1.7V31.8z"/>
</g>
<g>
	<path class="st2" d="M31,42.6c0-0.9,0.5-1.4,1.6-1.4c0.8,0,1.3,0.3,1.5,1c0,0.1,0,0.2-0.1,0.2l-0.2,0.1c-0.1,0-0.1,0-0.2-0.1
		c-0.2-0.5-0.5-0.7-1.1-0.7c-0.7,0-1.1,0.4-1.1,1v1.1c0,0.6,0.4,1,1.1,1c0.6,0,0.9-0.2,1.1-0.8c0-0.1,0.1-0.1,0.2-0.1l0.2,0.1
		c0.1,0,0.1,0.1,0.1,0.2c-0.2,0.7-0.7,1-1.6,1c-1,0-1.6-0.5-1.6-1.4V42.6z"/>
	<path class="st2" d="M37.9,41.3c0.1,0,0.1,0,0.1,0.1v3.5c0,0.1,0,0.1-0.1,0.1h-0.2c-0.1,0-0.1,0-0.1-0.1v-3.2h-2.1v3.2
		c0,0.1,0,0.1-0.1,0.1H35c-0.1,0-0.1,0-0.1-0.1v-3.5c0-0.1,0-0.1,0.1-0.1H37.9z"/>
	<path class="st2" d="M40.3,41.1c1.1,0,1.5,0.6,1.5,1.4v1.9c0,0.3-0.1,0.3-0.3,0.4c-0.3,0.1-0.7,0.2-1.2,0.2c-0.6,0-1-0.1-1.2-0.3
		c-0.2-0.2-0.3-0.5-0.3-0.9c0-0.8,0.4-1.1,1.6-1.1c0.2,0,0.5,0,1,0.1v-0.3c0-0.6-0.2-1-1-1c-0.5,0-0.8,0.2-1,0.5
		c-0.1,0.1-0.1,0.1-0.2,0.1l-0.2-0.1c-0.1,0-0.1-0.1-0.1-0.2C39.1,41.4,39.6,41.1,40.3,41.1z M41.3,43.3c-0.4,0-0.8-0.1-1-0.1
		c-0.8,0-1.1,0.2-1.1,0.7c0,0.5,0.2,0.7,1,0.7c0.4,0,0.7,0,0.9-0.1c0.1-0.1,0.1-0.1,0.1-0.2V43.3z"/>
	<path class="st2" d="M44.3,42.6c0-0.9,0.5-1.4,1.6-1.4c0.8,0,1.3,0.3,1.5,1c0,0.1,0,0.2-0.1,0.2l-0.2,0.1c-0.1,0-0.1,0-0.2-0.1
		c-0.2-0.5-0.5-0.7-1.1-0.7c-0.7,0-1.1,0.4-1.1,1v1.1c0,0.6,0.4,1,1.1,1c0.6,0,0.9-0.2,1.1-0.8c0-0.1,0.1-0.1,0.2-0.1l0.2,0.1
		c0.1,0,0.1,0.1,0.1,0.2c-0.2,0.7-0.7,1-1.6,1c-1,0-1.6-0.5-1.6-1.4V42.6z"/>
	<path class="st2" d="M49.6,41.1c1.1,0,1.5,0.6,1.5,1.4v1.9c0,0.3-0.1,0.3-0.3,0.4c-0.3,0.1-0.7,0.2-1.2,0.2c-0.6,0-1-0.1-1.2-0.3
		C48.1,44.7,48,44.4,48,44c0-0.8,0.4-1.1,1.6-1.1c0.2,0,0.5,0,1,0.1v-0.3c0-0.6-0.2-1-1-1c-0.5,0-0.8,0.2-1,0.5
		c-0.1,0.1-0.1,0.1-0.2,0.1l-0.2-0.1c-0.1,0-0.1-0.1-0.1-0.2C48.4,41.4,48.9,41.1,49.6,41.1z M50.5,43.3c-0.4,0-0.8-0.1-1-0.1
		c-0.8,0-1.1,0.2-1.1,0.7c0,0.5,0.2,0.7,1,0.7c0.4,0,0.7,0,0.9-0.1c0.1-0.1,0.1-0.1,0.1-0.2V43.3z"/>
	<path class="st2" d="M54.8,41.3c0.1,0,0.1,0,0.1,0.1v3.5c0,0.1,0,0.1-0.1,0.1h-0.2c-0.1,0-0.1,0-0.1-0.1v-3.2h-1.7v0.9
		c0,0.9-0.1,1.5-0.3,1.9c-0.2,0.4-0.4,0.5-0.7,0.6c-0.1,0-0.1,0-0.2-0.1l-0.1-0.2c0-0.1,0-0.1,0.1-0.1c0.2-0.1,0.2-0.1,0.4-0.3
		c0.1-0.1,0.1-0.2,0.2-0.4c0.1-0.3,0.2-0.8,0.2-1.4v-1.2c0-0.1,0-0.1,0.1-0.1H54.8z"/>
	<path class="st2" d="M55.7,42.5c0-0.8,0.6-1.3,1.6-1.3c1,0,1.6,0.5,1.6,1.3v1.3c0,0.8-0.6,1.3-1.6,1.3c-1,0-1.6-0.5-1.6-1.3V42.5z
		 M58.5,42.5c0-0.6-0.4-0.9-1.1-0.9c-0.7,0-1.1,0.3-1.1,0.9v1.3c0,0.6,0.4,0.9,1.1,0.9c0.7,0,1.1-0.3,1.1-0.9V42.5z"/>
	<path class="st2" d="M62.8,41.3c0.1,0,0.1,0,0.1,0.1v3.5c0,0.1,0,0.1-0.1,0.1h-0.2c-0.1,0-0.1,0-0.1-0.1v-1.6h-2.1v1.6
		c0,0.1,0,0.1-0.1,0.1h-0.2c-0.1,0-0.1,0-0.1-0.1v-3.5c0-0.1,0-0.1,0.1-0.1h0.2c0.1,0,0.1,0,0.1,0.1v1.5h2.1v-1.5
		c0-0.1,0-0.1,0.1-0.1H62.8z"/>
</g>
</svg>
