<?xml version="1.0" encoding="utf-8"?>
<!-- Generator: Adobe Illustrator 22.0.1, SVG Export Plug-In . SVG Version: 6.00 Build 0)  -->
<svg version="1.1" id="Layer_1" xmlns="http://www.w3.org/2000/svg" xmlns:xlink="http://www.w3.org/1999/xlink" x="0px" y="0px"
	 viewBox="0 0 161.7 166.3" style="enable-background:new 0 0 161.7 166.3;" xml:space="preserve">
<style type="text/css">
	.st0{fill:#9F928A;}
	.st1{fill:#423856;}
	.st2{fill:#DC1D3E;}
	.st3{fill:#F0EADF;}
	.st4{fill:#F6EDDE;}
</style>
<g>
	<g>
		<path class="st0" d="M78,165.2c-24.8,0.1-49.7,0.5-74.5,1.1c-0.6,0-0.9,0-1.6,0c-0.1-0.6-0.2-0.9-0.3-1.5
			c-0.3-1.4-0.6-2.9-0.9-4.3c-0.4-2.2-0.2-4.7,0.6-7.2c1-3.2,2.1-6.3,3.1-9.4c0.5-1.4,0-2.8-1.3-3.5c-2.3-1.3-3.5-4-3.1-7
			c0.8-6,1.6-12.1,2.5-18.1c0.2-1.4,0.3-2.1,0.5-3.5c1.2,0.1,1.8,0.1,3.1,0.2c23.9,1.1,47.9,1.5,71.8,1.5c23.9,0,47.9-0.4,71.8-1.5
			c1.2-0.1,1.8-0.1,3.1-0.2c0.2,1.4,0.3,2.1,0.5,3.5c0.9,6,1.8,12.1,2.5,18.1c0.4,3.1-0.8,5.7-3.1,7c-1.2,0.7-1.7,2.1-1.3,3.5
			c1,3.1,2.1,6.3,3.1,9.4c0.8,2.5,1,5,0.6,7.2c-0.3,1.4-0.6,2.9-0.9,4.3c-0.1,0.6-0.2,0.9-0.3,1.5c-0.6,0-0.9,0-1.6,0
			C127.7,165.7,102.9,165.3,78,165.2z"/>
		<path class="st1" d="M78,116.2c-24.3-0.1-48.5-0.4-72.7-1.4c-0.9,6-1.8,12-2.5,18c-0.3,2.1,0.5,3.9,2.2,4.9c2.1,1.2,2.9,3.7,2,6.3
			c-1,3.1-2.1,6.3-3.1,9.4c-0.6,2-0.8,3.9-0.5,5.7c0.3,1.4,0.6,2.8,0.9,4.2c49.2-1,98.3-1,147.5,0c0.3-1.4,0.6-2.8,0.9-4.2
			c0.3-1.8,0.2-3.7-0.5-5.7c-1-3.1-2.1-6.3-3.1-9.4c-0.9-2.6,0-5.1,2-6.3c1.7-1,2.5-2.8,2.2-4.9c-0.8-6-1.6-12-2.5-18
			C126.5,115.9,102.3,116.2,78,116.2z"/>
	</g>
	<g>
		<g>
			<path class="st2" d="M12.7,157.4c0-11.9,0-23.9,0-35.8c3.8,0,7.5,0,11.3,0c0,8.9,0,17.9,0,26.8c6,0,12,0,18,0c0,3,0,6,0,9
				C32.2,157.4,22.4,157.4,12.7,157.4z"/>
		</g>
		<g>
			<path class="st2" d="M46.5,157.4c0-11.9,0-23.9,0-35.8c3.8,0,7.5,0,11.3,0c0,11.9,0,23.9,0,35.8C54,157.4,50.2,157.4,46.5,157.4z
				"/>
		</g>
		<g>
			<path class="st2" d="M72.8,157.4c-6,0-9-2.1-9-6.3c0-7.7,0-15.3,0-23c0-4.4,3-6.5,9-6.5c6,0,12,0,18,0c6,0,9,2.2,9,6.5
				c0,7.7,0,15.3,0,23c0,4.2-3,6.3-9,6.3C84.8,157.4,78.8,157.4,72.8,157.4z M88.5,132c0-0.9-0.7-1.4-2-1.4c-3.1,0-6.3,0-9.4,0
				c-1.3,0-2,0.5-2,1.4c0,5,0,10,0,15c0,0.9,0.7,1.4,2,1.4c3.1,0,6.3,0,9.4,0c1.3,0,2-0.5,2-1.4C88.5,142,88.5,137,88.5,132z"/>
		</g>
		<g>
			<path class="st2" d="M134.3,157.4c-5.7-6.3-11.5-12.6-17.2-18.9c0,6.3,0,12.6,0,18.9c-3.8,0-7.5,0-11.3,0c0-11.9,0-23.9,0-35.8
				c3.6,0,7.2,0,10.9,0c5.3,6.2,10.5,12.5,15.8,18.7c0-6.2,0-12.5,0-18.7c3.8,0,7.5,0,11.3,0c0,11.9,0,23.9,0,35.8
				C140.6,157.4,137.5,157.4,134.3,157.4z"/>
		</g>
	</g>
	<g>
		<g>
			<g>
				<path class="st0" d="M152,52l1.2-0.2l7-20.5l-7.1-1c0,0-3.4-0.5-7.4-1.9c-0.6-0.2-1.3-0.5-1.9-0.7c-4.6-1.8-8-4-10.1-6.6
					c-1.6-2.3-4.7-4-6.8-4.7c-1.6-0.5-3.2-0.8-4.7-0.7c-3.5-4.2-9.3-9.7-17.9-12.6C99,1.2,93.3,0.7,87.4,1.4
					C73.9,3,59.1,8,50.4,12.4l-17.8,8.9L21,27.8l13.4-1.2l11.1-1.7c-6,6.9-9.7,15.2-10.7,24c-0.7,1.6-2,4.7-2.6,8.5
					c-1.3,7.6,0.2,14.9,4.3,20.9c3.5,5.2,4,7.4,3.8,8.4c-0.3,1.3-2.6,3.3-6.8,6l-0.1,0.1c-0.5,0.3-3.1,2.2-5.2,5.6
					c-2.1,3.3-4.2,8.7-2.4,15.9l4.6,18.4L37,115c0,0,0.9-2.2,2.8-3.9c2.3-2.1,5.1-2.5,8.8-1.3c0.6,0.2,1.7,0.7,2.8,1.3
					c2.7,1.3,6.4,3,10.8,4.5c16.7,5.7,31.9,4.3,45.1-4.2c10.4-6.5,16.6-16.2,19.5-21.7l5.8,0.6l1.9-1.6c1.1-0.9,6.6-5.6,8.5-10
					c0.1-0.3,0.2-0.6,0.3-0.9c0.7-1.7,0.6-3.7-0.4-5.3c-0.3-0.6-1.1-1.6-2.4-2.5c-0.1-1.5-0.5-3-1-4.4l-1.2-3.4l3.7-0.7
					C147.3,60.5,150.3,55.9,152,52z"/>
			</g>
			<g>
				<g>
					<g>
						<g>
							<path class="st3" d="M148.7,46l1,0.8c0,0-2.2,9.7-8.2,10.8l3-11.2L148.7,46z"/>
						</g>
						<g>
							<path class="st1" d="M138,60.8l4.4-16.7l7.1-0.6l2.9,2.4l-0.3,1.5c-0.3,1.2-2.7,11.4-10.2,12.7L138,60.8z M146.3,48.7
								l-0.2,0.7C146.3,49.2,146.3,49,146.3,48.7L146.3,48.7z"/>
						</g>
					</g>
					<g>
						<g>
							<path class="st1" d="M129.3,82.7c-0.8,0-1.5-0.2-2.1-0.6l-6.4-4.1c-1.2-0.7-1.9-2-1.9-3.4L119,64c0-1.9,1.4-3.6,3.4-3.9
								c0.2,0,0.4-0.1,0.6-0.1c1.7,0,3.2,1.1,3.8,2.7c2.6,7.3,5.2,7.4,6.6,7.4c0,0,0,0,0,0c0.2,0,0.4,0,0.5,0c0.2,0,0.3,0,0.4,0
								c3.7,0,6,1.7,7,3.3c0.9,1.5,0.7,3.4-0.5,4.7l-1.5,1.7c-0.5,0.6-1.3,1-2,1.2l-7,1.6C129.9,82.7,129.6,82.7,129.3,82.7z"/>
						</g>
						<g>
							<g>
								<path class="st1" d="M123,64.1c3.2,9.2,7.4,10,10.4,10c0.2,0,0.5,0,0.7,0c0.1,0,0.2,0,0.3,0c2.7,0,3.5,1.3,3.5,1.3l-1.5,1.7
									l-7,1.6l-6.4-4.1L123,64.1 M123,56.1c-0.4,0-0.8,0-1.3,0.1c-3.8,0.6-6.7,3.9-6.7,7.8l-0.2,10.6c0,2.8,1.4,5.4,3.7,6.9
									l6.4,4.1c1.3,0.8,2.8,1.2,4.3,1.2c0.6,0,1.2-0.1,1.8-0.2l7-1.6c1.6-0.4,3-1.2,4.1-2.4l1.5-1.7c2.4-2.6,2.8-6.4,1-9.5
									c-0.7-1.2-3.6-5.3-10.4-5.3c-0.2,0-0.4,0-0.6,0c-0.1,0-0.3,0-0.4,0c-0.2,0-0.3,0-0.3,0c-0.2-0.2-1.3-1.2-2.5-4.7
									C129.5,58.2,126.4,56.1,123,56.1L123,56.1z"/>
							</g>
						</g>
					</g>
					<g>
						<g>
							<path class="st3" d="M134.9,78.2c0,0,3.4-5,1.1-11.3l-5.4,10.8L134.9,78.2z"/>
						</g>
						<g>
							<path class="st1" d="M136.1,80.9l-9.3-1.2l9.6-19.2l2,5.5c2.7,7.4-1.2,13.3-1.4,13.6L136.1,80.9z"/>
						</g>
					</g>
					<g>
						<g>
							<path class="st1" d="M28.1,113.7c-3.1-12.2,6.2-18.6,6.6-18.9l0.1-0.1c5.1-3.2,7.4-5.4,7.9-7.5c0.5-2.1-0.9-5.4-4.1-10.3
								c-8-11.8-2.8-24.3-1.3-27.4c1.4-13.3,8.7-22.5,15.5-28.2l-21.1,3.3l19.9-10C60,10.3,74.5,5.3,87.7,3.8
								c1.5-0.2,3.1-0.3,4.5-0.3c15.7,0,25.2,9.9,28.9,14.7c0.5-0.1,1-0.1,1.5-0.1c3.6,0,7.6,2.3,9.1,4.5c2.4,2.9,6.2,5.4,11.2,7.4
								c5.2,2,9.8,2.7,9.8,2.7l4.2,0.6l-5.6,16.3l-2.1,0.3c-5.6,0.8-15.7,3.2-18.5,6.3c-6.1,6.8-3,14.7-0.7,16.8
								c0.3,0.3,0.8,0.6,1.8,0.6c1.5,0,3.1-0.7,3.7-1c0.5-0.2,1.1-0.4,1.7-0.4c1.3,0,2.5,0.7,3.2,1.7c0.7,1.1,0.8,2.4,0.3,3.6
								c-1.7,3.9-6.8,8.3-7.8,9.1l-1.1,0.9l-6.5-0.6c-2.3,4.8-8.3,15.4-19.3,22.3c-7.4,4.8-15.7,7.3-24.4,7.3
								c-12.6,0-23.3-5-29.1-7.7c-1.3-0.6-2.5-1.1-3.1-1.4c-1.5-0.5-3.1-0.8-4.5-0.8c-7.3,0-10.1,7.3-10.1,7.4l-3.9,10.5L28.1,113.7
								z"/>
						</g>
						<g>
							<path class="st1" d="M92.3,7C110.8,7,120,22.6,120,22.6c0.3-0.3,0.7-0.5,1.1-0.7c0,0,0,0,0,0c0.5-0.2,1.1-0.3,1.7-0.3
								c2.7,0,5.8,2.1,6.3,3.1c3.3,4.1,8.2,6.8,12.7,8.5c5.7,2.2,10.6,2.9,10.6,2.9l-3.5,10.3c0,0-15.8,2.3-20.6,7.4
								c-7.4,8.2-4.4,18.3-0.5,21.8c1.2,1.1,2.7,1.5,4.2,1.5c2.1,0,4.2-0.8,5.2-1.3c0,0,0.1,0,0.2,0c0.2,0,0.4,0.2,0.3,0.5
								c-1.5,3.3-6.8,7.8-6.8,7.8l-7.6-0.7c0,0-5.5,14.6-19,23c-7.7,5-15.5,6.7-22.6,6.7c-14.8,0-27-7.5-31-8.9c-2.1-0.7-4-1-5.7-1
								c-9.8,0-13.4,9.6-13.4,9.6c-2.5-10,5.2-15.1,5.2-15.1c10.8-6.8,12.6-11,4.8-22.7c-7.9-11.7-0.8-24.5-0.8-24.5
								c2.2-24.4,25.7-33.8,26-33.9c-1.5,0.1-8.5,0.3-13.4,1c8.5-4.3,22.7-9,35-10.4C89.6,7.1,90.9,7,92.3,7 M92.3,0
								c-1.6,0-3.3,0.1-5,0.3C73.6,1.9,58.7,7.1,50,11.4l-39.9,20l32.8-5.1c-5.1,6.6-8.2,14.1-9.2,22.2c-2,4.4-6.7,17.7,1.9,30.3
								c3.9,5.7,3.7,7.4,3.6,7.6c-0.1,0.4-0.8,1.8-6.3,5.3l-0.1,0.1l-0.1,0.1c-4.4,2.9-11,11-8.1,22.7l5.7,22.7l7.6-21.9
								c0.3-0.7,2.3-5.1,6.9-5.1c1,0,2.2,0.2,3.4,0.6c0.5,0.2,1.6,0.7,2.7,1.2c6,2.8,17.2,8.1,30.6,8.1c9.4,0,18.3-2.6,26.3-7.8
								c10.2-6.4,16.4-15.8,19.5-21.5l2.7,0.3l2.9,0.3l2.2-1.9c1.6-1.3,6.8-5.9,8.8-10.4c1-2.3,0.8-4.9-0.6-7
								c-1.4-2.1-3.7-3.3-6.2-3.3c-1.1,0-2.2,0.2-3.2,0.7c-0.8,0.4-1.5,0.6-2,0.6c-1.2-1.6-3-6.8,1.3-11.6
								c1.9-1.9,10.2-4.3,16.4-5.2l4.2-0.6l1.4-4.1l3.5-10.3l2.7-8l-8.4-1.2c0,0-4.3-0.7-9.1-2.5c-4.4-1.7-7.7-3.9-9.7-6.3
								c-2.2-2.9-7.1-5.8-11.8-5.8C118,9,107.9,0,92.3,0L92.3,0z"/>
						</g>
					</g>
					<g>
						<g>
							<path class="st0" d="M128.2,53.8c-7.4,8.2-4.4,18.3-0.5,21.8c3,2.8,7.6,1,9.4,0.2c0.3-0.1,0.6,0.1,0.5,0.4
								c-1.5,3.3-6.8,7.8-6.8,7.8l-4.1-0.4l-2.5-0.2l-1-0.1c-3.9-3.1-6.5-7.6-7.8-12.3c-1.7-6.1-1.5-12.4-1.5-18.6
								c0-6.2-0.2-12.6-2.6-18.4c-0.9-2.1-2.1-4.2-2.3-6.5c-0.3-2.3,0.7-4.8,3-5.5c1.8-0.6,6.2,0.9,8.1,0.6c0.5-0.1,0.8-0.3,1.1-0.7
								c0,0,0,0,0,0c3-1.3,7.3,1.6,7.9,2.7c1.2,1.5,2.7,2.8,4.3,4c0.3,0.2,0.5,0.4,0.8,0.6l0,0c0.2,0.1,0.3,0.2,0.5,0.3
								c0.3,0.2,0.6,0.4,0.9,0.5c0.2,0.1,0.4,0.2,0.6,0.4c0.3,0.2,0.6,0.3,0.9,0.5c1.6,0.9,3.2,1.6,4.8,2.2
								c5.7,2.2,10.6,2.9,10.6,2.9l-3.5,10.3c0,0-3.7,0.5-8.1,1.7c-1.7,0.4-3.4,0.9-5.1,1.5C132.6,50.8,129.8,52.1,128.2,53.8z"/>
						</g>
						<g>
							<path class="st1" d="M131.9,87.6l-10.1-1L121,86c-4.2-3.3-7.3-8.3-8.9-14c-1.7-6-1.6-12.1-1.6-18l0-1.6
								c0-5.7-0.1-11.8-2.3-17.1c-0.2-0.5-0.4-1-0.6-1.5c-0.8-1.7-1.7-3.7-1.9-6c-0.5-4.2,1.8-8.1,5.4-9.3c1.6-0.5,3.9-0.2,6,0.2
								c0.6,0.1,1.3,0.2,1.8,0.3l0,0l1-0.4c0.9-0.4,1.9-0.6,3-0.6c3.6,0,7.6,2.3,9.1,4.5c1,1.1,2.1,2.2,3.5,3.3
								c0.2,0.2,0.5,0.3,0.7,0.5l0,0c0.1,0.1,0.3,0.2,0.4,0.3c0.3,0.2,0.5,0.3,0.8,0.5c0.2,0.1,0.4,0.2,0.6,0.3
								c0.3,0.2,0.5,0.3,0.8,0.5c1.4,0.7,2.8,1.4,4.4,2c5.2,2.1,9.8,2.7,9.8,2.7l4.2,0.6l-5.6,16.3l-2.1,0.3c0,0-3.6,0.5-7.7,1.6
								c-1.8,0.5-3.4,0.9-4.8,1.4c-3.9,1.4-5.5,2.6-6,3.3c-6.1,6.8-3,14.7-0.7,16.8c0.3,0.3,0.8,0.6,1.8,0.6c1.5,0,3.1-0.7,3.7-1
								c0.5-0.2,1.1-0.4,1.7-0.4c1.3,0,2.5,0.7,3.2,1.7c0.7,1.1,0.8,2.4,0.3,3.6c-1.7,3.9-6.8,8.3-7.8,9.1L131.9,87.6z M124.6,79.9
								l4.8,0.5c-1.6-0.4-2.9-1.1-4.1-2.2c-5.3-4.9-8.3-17.2,0.3-26.7c1.9-2,4.7-3.6,8.8-5.1c1.6-0.6,3.4-1.1,5.4-1.6
								c2.5-0.6,4.8-1.1,6.4-1.4l1.6-4.6c-2-0.5-4.6-1.2-7.3-2.3c-1.8-0.7-3.6-1.5-5.2-2.4c-0.3-0.2-0.6-0.4-1-0.5
								c-0.2-0.1-0.5-0.3-0.7-0.4c-0.3-0.2-0.6-0.4-0.9-0.6c-0.1-0.1-0.2-0.1-0.3-0.2l-0.2-0.1c-0.3-0.2-0.6-0.4-0.9-0.7
								c-1.9-1.4-3.5-2.9-4.9-4.6l-0.2-0.3c-0.5-0.5-2.1-1.4-3.2-1.4c-0.7,0.5-1.4,0.8-2.3,1c-1.3,0.2-3.1-0.1-4.8-0.3
								c-1-0.2-2.1-0.4-2.7-0.4c0,0,0,0-0.1,0c-0.3,0.2-0.6,0.9-0.5,1.7c0.1,1.2,0.7,2.5,1.4,3.9c0.3,0.6,0.5,1.1,0.7,1.7
								c2.7,6.5,2.9,13.4,2.9,19.8l0,1.6c0,5.6-0.1,10.9,1.3,16C119.9,74,121.9,77.5,124.6,79.9z"/>
						</g>
					</g>
					<g>
						<g>
							<path class="st1" d="M152.4,36.2l-3.1,9c-0.3-0.3-0.6-0.7-0.8-1.1c-1-1.7-1-3.7-0.3-5.5c-1.2,0.2-2.5,0.2-3.8-0.1
								c-1.2-0.3-2.4-1.1-2.8-2.2c-0.4-0.9-0.2-1.9,0.2-2.8c0-0.1,0-0.1,0.1-0.2C147.4,35.4,152.4,36.2,152.4,36.2z"/>
						</g>
						<g>
							<path class="st1" d="M149.3,49.1c-1.1,0-2.2-0.5-2.9-1.3c-0.5-0.5-0.9-1.1-1.3-1.7c-0.7-1.1-1.2-2.4-1.3-3.7
								c-0.1,0-0.2-0.1-0.4-0.1c-2.6-0.7-4.7-2.4-5.6-4.6c-0.7-1.8-0.6-3.7,0.1-5.8c0,0,0.1-0.1,0.1-0.2c0.8-2,3.2-3,5.2-2.2
								c5.2,2,9.7,2.7,9.7,2.7c1.2,0.2,2.2,0.9,2.8,1.9c0.6,1,0.8,2.3,0.4,3.4l-3.1,9c-0.5,1.3-1.6,2.3-2.9,2.6
								C149.8,49.1,149.6,49.1,149.3,49.1z"/>
						</g>
					</g>
					<g>
						<g>
							<path class="st1" d="M129,33.3L129,33.3c-0.4,0.4-1,0.6-1.7,0.7c-0.7,0.1-1.4,0-2.1-0.2c-0.4-0.1-0.7-0.2-1-0.4
								c-0.3-0.1-0.7-0.3-1-0.5c-0.6-0.4-1.1-0.7-1.6-1.1c-0.5-0.4-0.9-0.7-1.3-1l-0.3-0.2c-0.1-0.1-0.2-0.1-0.3-0.2
								c-0.2-0.1-0.4-0.3-0.6-0.4c-0.4-0.2-0.9-0.4-1.3-0.6c-0.5-0.1-1-0.2-1.6-0.1l0,0c0.2-0.5,0.6-1,1.3-1.2
								c0.6-0.3,1.4-0.4,2.1-0.4c0.4,0,0.8,0.1,1.2,0.2c0.2,0,0.4,0.1,0.6,0.2c0.2,0.1,0.4,0.1,0.5,0.2c0.7,0.3,1.3,0.7,1.8,1.1
								c0.5,0.4,1,0.8,1.4,1.2c0.2,0.2,0.4,0.4,0.6,0.6c0.2,0.2,0.4,0.4,0.6,0.5C127.1,32.4,127.8,33,129,33.3z"/>
						</g>
					</g>
					<g>
						<g>
							<g>
								<g>
									<path class="st1" d="M134.1,29.2c-0.5,0.1-1,0.3-1.5,0.5c-0.2,0.1-0.3,0.2-0.5,0.3c-0.2,0.1-0.3,0.2-0.5,0.3
										c-0.3,0.2-0.6,0.5-0.8,0.7c-0.5,0.5-0.8,1.1-1,1.7c-0.1-0.6,0.1-1.4,0.5-2.1c0.2-0.3,0.5-0.7,0.8-1
										c0.2-0.1,0.3-0.3,0.5-0.4c0.2-0.1,0.4-0.2,0.6-0.3c0.3-0.2,0.7-0.3,1.1-0.4C133.6,28.9,133.8,29.1,134.1,29.2z"/>
								</g>
							</g>
							<g>
								<g>
									<path class="st1" d="M135.4,30.1c-0.3,0.1-0.5,0.2-0.8,0.3c-0.2,0.1-0.3,0.2-0.5,0.3c-0.2,0.1-0.3,0.2-0.5,0.3
										c-0.3,0.2-0.6,0.5-0.8,0.7c-0.5,0.5-0.9,1.1-1,1.7c-0.1-0.6,0.1-1.4,0.5-2.1c0.2-0.3,0.5-0.7,0.8-0.9
										c0.2-0.1,0.3-0.3,0.5-0.4c0.2-0.1,0.4-0.2,0.6-0.3c0.1-0.1,0.2-0.1,0.3-0.1C134.9,29.7,135.1,29.9,135.4,30.1z"/>
								</g>
							</g>
							<g>
								<g>
									<path class="st1" d="M136.9,31c-0.1,0-0.2,0.1-0.3,0.1c-0.2,0.1-0.3,0.2-0.5,0.3c-0.2,0.1-0.3,0.2-0.5,0.3
										c-0.3,0.2-0.6,0.5-0.8,0.7c-0.5,0.5-0.9,1.1-1,1.7c-0.1-0.6,0.1-1.4,0.5-2.1c0.2-0.3,0.5-0.7,0.8-1
										c0.2-0.1,0.4-0.3,0.5-0.4c0.1-0.1,0.3-0.2,0.4-0.2C136.3,30.6,136.6,30.8,136.9,31z"/>
								</g>
							</g>
						</g>
						<g>
							<g>
								<path class="st1" d="M126.7,83.6l-2.5-0.2c-0.4-0.4-0.7-0.8-1.1-1.3c-0.5-0.6-0.9-1.2-1.3-1.9c-0.4-0.7-0.8-1.3-1.1-2
									c-1.4-2.8-2.2-5.7-2.7-7.9c-0.3-1.1-0.5-2-0.6-2.6c-0.1-0.6-0.2-0.9-0.2-1c0,0.1,0.1,0.4,0.3,1c0.2,0.6,0.5,1.5,0.8,2.6
									c0.7,2.1,1.8,5,3.3,7.5c0.4,0.6,0.8,1.3,1.2,1.9c0.4,0.6,0.9,1.2,1.4,1.7C125,82.2,125.9,83,126.7,83.6z"/>
							</g>
						</g>
					</g>
					<g>
						<g>
							<path class="st2" d="M109,53.9c0.3,2,0.4,4,0.3,5.9c-0.4-1.6-1.1-3.3-2.2-4.9l-3.5-5.1l1.1,6.1c0.5,2.6,0.5,5.3,0.1,7.9
								c-0.4,2.6-1.2,5.2-2.5,7.5c-1.2,2.3-2.8,4.4-4.6,6.1c-1.8,1.8-3.8,3.2-5.7,4.4c2.3-0.5,4.7-1.4,7-2.9c2.3-1.5,4.4-3.6,6-6.1
								c1.6-2.5,2.7-5.4,3.1-8.4c0.1-0.4,0.1-0.9,0.1-1.4c0.3,1.4,0.4,2.7,0.3,4c-0.2,0.9-0.3,1.7-0.5,2.5c1.5-1.7,2.8-4.1,3.6-6.9
								c0.8-2.8,1-5.9,0.6-9c-0.4-3.1-1.4-6.1-2.9-8.7c-1.5-2.6-3.4-4.8-5.3-6.3l0,0c1.1,2.1,2.1,4.5,3,7.1
								C108,48.4,108.6,51.1,109,53.9z"/>
						</g>
						<g>
							<path class="st2" d="M85.3,64c-0.8-2.4-1.6-4.7-2.2-6.9c-0.6-2.2-1-4.4-0.8-6.5c0-0.5,0.1-1,0.2-1.5c0.1-0.5,0.2-1,0.4-1.4
								c0.4-0.9,0.9-1.8,1.5-2.6c1.2-1.5,3-2.6,5-2.9l0,0l0,0c-1-0.1-2.1,0-3.1,0.3c-1,0.3-2,0.9-2.9,1.6c-0.9,0.7-1.7,1.6-2.3,2.7
								c-0.3,0.5-0.6,1.1-0.8,1.7c-0.2,0.6-0.4,1.2-0.5,1.8c-0.5,2.4-0.3,5,0.3,7.5c0.5,2.5,1.4,4.9,2.1,7.2
								c0.7,2.3,1.3,4.6,1.5,6.8c0.2,2.2-0.1,4.3-1,6.1c-0.9,1.8-2.5,3.2-4.3,4.1c-1.8,0.9-3.9,1.2-5.9,1.1c1.9,0.6,4.2,0.8,6.5,0.2
								c1.1-0.3,2.3-0.8,3.3-1.5l0.2-0.1l0.2-0.1l0.4-0.3c0.2-0.2,0.5-0.4,0.7-0.6c0.4-0.5,0.9-0.9,1.2-1.5c0.7-1.1,1.2-2.3,1.5-3.5
								c0.3-1.2,0.4-2.5,0.4-3.8c0-0.6-0.1-1.3-0.1-1.9c-0.1-0.6-0.2-1.3-0.3-1.9C86,66.5,85.7,65.2,85.3,64z"/>
						</g>
						<g>
							<path class="st2" d="M98.5,104.4c-2.7,0.3-5.5,0.3-8.3-0.1l-0.2,0l-0.1,0l-0.2,0c-0.1,0-0.2-0.1-0.3-0.1
								c-0.2-0.1-0.4-0.1-0.6-0.2l-0.2-0.1l-0.2-0.1l-0.1,0c0,0,0,0,0,0l0.1,0l0.4,0c0.3,0,0.6-0.1,0.8-0.1l0.1,0c0,0,0,0,0.1,0
								l0.3,0l0.2,0l0.8-0.2c2.2-0.6,4.3-1.5,6.3-2.5c4-2.1,7.6-5,10.5-8.4l6.7-7.9l-9.1,5.6c-0.7,0.4-1.5,0.8-2.3,1.2
								c-0.4,0.2-0.9,0.4-1.3,0.5c-0.4,0.2-0.9,0.3-1.3,0.5c-1.8,0.6-3.6,1.2-5.5,1.7c-3.8,1-7.6,1.8-11.4,2.5
								c-3.8,0.7-7.6,1.3-11.4,1.7c-1,0.1-2,0.2-3,0.3c2.2-0.8,4.2-1.8,6-3c2-1.2,3.7-2.6,5.3-4.1c1.6-1.4,3.1-2.9,4.4-4.4l0,0l0,0
								c-1.6,1.3-3.2,2.6-4.9,3.8c-1.7,1.3-3.6,2.5-5.6,3.5c-2,1-4.1,1.9-6.4,2.6c-2.3,0.7-4.7,1.1-7.2,1.4l-5.6,0.6l5.6,1.5
								c1.1,0.3,2,0.4,3,0.5c0.5,0,1,0.1,1.5,0.1l0.7,0l0.7,0c2,0,3.9-0.1,5.8-0.2c3.9-0.3,7.8-0.8,11.7-1.4
								c3.9-0.6,7.8-1.4,11.7-2.4c1-0.2,1.9-0.5,2.9-0.8c-1,0.7-2.1,1.4-3.2,2.1c-1.8,1-3.7,1.8-5.7,2.5l-0.7,0.3
								c-0.5,0.1-0.9,0.2-1.4,0.4c-0.5,0.1-0.9,0.2-1.4,0.3l-0.2,0c-0.1,0-0.1,0-0.2,0l-0.4,0.1l-0.9,0.1c-1.2,0.2-2.2,0.4-3.5,0.5
								c-1.2,0.2-2.3,0.3-3.5,0.5c0.3,0.1,0.6,0.3,0.9,0.4l0.2,0.1l0.4,0.1l0.9,0.3c0.6,0.2,1.1,0.4,1.7,0.6c0.5,0.2,1,0.3,1.6,0.5
								l0.8,0.2l0.4,0.1c0.1,0,0.3,0.1,0.4,0.1c0.6,0.1,1.1,0.3,1.7,0.4l0.8,0.2c0.1,0,0.3,0.1,0.4,0.1l0.4,0.1
								c0.3,0.1,0.6,0.1,0.9,0.1l0.8,0.1c3,0.3,6,0.1,8.8-0.4c2.8-0.5,5.4-1.4,7.7-2.6c2.3-1.2,4.3-2.6,6-4.2
								C108.7,101.8,103.9,103.8,98.5,104.4z"/>
						</g>
						<g>
							<path class="st2" d="M46.3,95.7c1.1-0.4,2.3-0.8,3.5-1.3c1.2-0.5,2.4-1,3.5-1.8c0.3-0.2,0.5-0.4,0.8-0.6
								c0.3-0.2,0.5-0.4,0.8-0.6c0.5-0.4,0.9-0.9,1.3-1.4c0.8-1,1.4-2.1,1.6-3.2c0.3-1.1,0.2-2.2-0.1-3.2l0,0
								c-0.5,1.9-1.7,3.4-3.4,4.7c-0.4,0.3-0.9,0.6-1.3,0.9c-0.2,0.1-0.5,0.3-0.7,0.4c-0.2,0.1-0.5,0.3-0.7,0.4
								c-1,0.5-2.1,0.9-3.2,1.4c-1.1,0.5-2.3,0.9-3.4,1.5c-1.1,0.5-2.3,1.2-3.3,1.9c-1,0.7-1.8,1.6-2.5,2.5c-0.6,0.9-1,1.9-1.2,2.9
								c1.3-1.4,3.1-2.5,5.1-3.4C44.1,96.5,45.2,96.1,46.3,95.7z"/>
						</g>
						<g>
							<path class="st2" d="M47.3,99.7c-2.4-0.6-5.3-0.6-7.8,0.4c-2.5,0.9-4.6,2.7-5.8,4.7c-0.6,1-1,2-1.3,3.1c-0.2,1-0.3,2-0.1,2.9
								c0.9-1.6,2-3.2,3.5-4.5c1.5-1.4,3.2-2.5,5.1-3.2c1.9-0.7,4.1-1,6.2-1c2.1,0,4.2,0.4,6,1c-0.6-0.7-1.5-1.4-2.4-2
								C49.7,100.5,48.5,100,47.3,99.7z"/>
						</g>
						<g>
							<path class="st2" d="M55.6,79.5l6.9,6.5l-4.3-8.2c-1.6-3.1-2.6-6.6-3-10c-0.3-3.4,0-6.9,1-10c1-3.1,2.5-6,4.5-8.5
								c1.9-2.5,4.2-4.5,6.5-6.1c-2.7,1.1-5.4,2.8-7.8,5.1c-2.4,2.3-4.4,5.2-5.8,8.6c-1.3,3.4-1.9,7.2-1.6,11
								c0.1,1.3,0.3,2.6,0.6,3.8c-1.8-2.2-3.4-4.5-4.8-6.9c-2.6-4.4-4.3-8.9-5.5-13c0.2,4.2,1.2,9,3.4,13.9
								C47.9,70.6,51.2,75.4,55.6,79.5z"/>
						</g>
						<g>
							<path class="st2" d="M47.8,51.1l4.6-8.7c2.6-5,6.4-9.5,10.6-13.1c2.1-1.8,4.4-3.4,6.6-4.8c2.3-1.4,4.5-2.5,6.7-3.5
								c-2.4,0.4-4.9,1-7.5,2.1c-2.6,1-5.2,2.4-7.6,4.1c-2.4,1.7-4.7,3.8-6.8,6.1c-0.2,0.2-0.3,0.4-0.4,0.5c0.3-1.3,0.7-2.6,1.1-3.8
								c1.2-3.7,2.6-7.1,4-10.1l0,0l0,0c-2.2,2.5-4.4,5.7-6.1,9.3c-1.7,3.7-3,7.8-3.7,12.2L47.8,51.1z"/>
						</g>
					</g>
					<g>
						<path class="st0" d="M98.6,33.5c-0.1-0.1-0.2-0.1-0.4-0.2c-0.3-0.1-0.5-0.2-0.8-0.2c-0.1,0-0.1,0-0.2,0l-0.1,0
							c-0.1,0-0.1,0-0.2,0c-0.1,0-0.2,0.1-0.4,0.1c-0.2,0.1-0.3,0.1-0.5,0.2l0,0l0,0c0,0,0,0,0,0l0.1-0.2c0.1-0.1,0.1-0.3,0.2-0.4
							l0.1-0.2c0,0,0-0.1,0.1-0.1l0.1-0.1c0.1-0.1,0.1-0.2,0.2-0.3c0.3-0.4,0.6-0.7,1-1c0.4-0.3,0.8-0.5,1.3-0.7l0.2-0.1l0.2,0
							c0.1,0,0.3-0.1,0.4-0.1c0.1,0,0.1,0,0.2,0l0.1,0l0,0c0,0,0,0,0,0c0,0,0,0,0,0c-0.1-0.2-0.3-0.4-0.4-0.6
							c-0.2-0.4-0.4-0.9-0.5-1.4c-0.1-0.5-0.2-1-0.2-1.4c0-0.1,0-0.2,0-0.4l0-0.3c0-0.1,0-0.2,0-0.3c0-0.2,0.1-0.4,0.1-0.6l0.1-0.3
							l0-0.1c0,0,0-0.1,0-0.1c0.1,0.2,0.3,0.4,0.4,0.7c0.1,0.2,0.3,0.4,0.4,0.6l0.1,0.2c0,0,0.1,0.1,0.1,0.1
							c0.1,0.1,0.2,0.2,0.2,0.3c0.3,0.4,0.7,0.7,1.1,1c0,0,0,0,0.1,0c0.2-2.1-0.2-4.2-0.9-6.3c0,0,0,0,0,0c-0.3-0.3-0.7-0.5-1-0.7
							c-0.3-0.2-0.6-0.3-0.8-0.5c-0.1-0.1-0.3-0.1-0.5-0.2l-0.2-0.1c-0.1,0-0.2-0.1-0.2-0.1c-1.3-0.4-2.8-0.6-4.3-0.4
							c-0.8,0.1-1.5,0.3-2.2,0.6c-0.7,0.3-1.4,0.7-2.1,1.1c-1.3,0.9-2.2,2.2-2.8,3.7c-0.6,1.4-0.8,3-0.5,4.6
							c0.1,0.8,0.4,1.5,0.7,2.2c0.3,0.7,0.8,1.3,1.3,1.9c1,1.1,2.2,2,3.4,2.6c0.1,0,0.2,0.1,0.2,0.1L92,36c0.2,0.1,0.3,0.1,0.5,0.2
							c0.1,0,0.1,0,0.2,0.1C94.9,36,97.1,35,98.6,33.5z"/>
					</g>
				</g>
				<g>
					<path class="st4" d="M97,20.7c-3.1,0.4-5.8,2.7-6.6,5.7c-0.8,3,0.3,6.4,2.7,8.3c-2.4-0.6-4.6-1.9-5.9-3.9
						c-1.3-2.1-1.4-4.9,0.1-6.8c0.9-1.1,2.3-1.8,3.7-2.3C92.9,21,94.9,20.7,97,20.7z"/>
				</g>
			</g>
		</g>
	</g>
</g>
</svg>
