<?xml version="1.0" encoding="utf-8"?>
<!-- Generator: Adobe Illustrator 22.0.1, SVG Export Plug-In . SVG Version: 6.00 Build 0)  -->
<svg version="1.1" id="Layer_1" xmlns="http://www.w3.org/2000/svg" xmlns:xlink="http://www.w3.org/1999/xlink" x="0px" y="0px"
	 viewBox="0 0 310.9 159.6" style="enable-background:new 0 0 310.9 159.6;" xml:space="preserve">
<style type="text/css">
	.st0{fill:#D85E39;}
	.st1{fill:#37363A;}
</style>
<path class="st0" d="M67.6,78.7c1-0.6,10.2-5.6,12.4-6.4c1,0.4,5.6,0.7,7.2,0.8l0,0c0,0-2.4-5.9-5-6.7c-2.7-0.9-7.6-0.7-7.6-0.7
	v-2.2c0,0,9.4-5.5,14-4.1c0.1,2.4,0,3.5,0,3.5s1.7,1.7-2.1,4.3c0.5,2.8,2.1,6.5,2.4,7.2c2.7,3.5,5.8,9.2,5.8,9.2s0.3,5.9-0.3,5.9
	c0.1-1.8-3.5-10-5.2-12.2c-1.7-2.2-6-2.3-9.5-1.6c-3.6,0.7-11.3,4.1-11.3,4.1S67.4,79.5,67.6,78.7z M78.3,79.4
	c-1.2,1.9-3.1,5.7-3.1,5.7s6-2.9,12.2-1c0.4,0.1,2.6-3.9,1.4-4.7C87.6,78.6,79.5,77.5,78.3,79.4z M97,44.6c-3.9-2.9-7.7-3.1-10-2.9
	c0-1.4-0.1-4.1-0.4-4.7c-0.5-0.2-0.2,2.7-1.5,5.1c-0.3,0.1-0.4,0.1-0.4,0.1s-1.5-0.3-4.9-0.9c-0.3-0.2-0.6-0.5-0.9-0.7
	c0.1-2.3,0.4-5.8,0.2-5.9c-0.6-0.2-1.2,2.9-2,4.9c-6.9-3.2-17.2-1.4-20.7,0.3c-4,2-17,8.4-17,8.4L47,35.8c0,0-4.7-0.9-3.8-6.8
	c0.9-5.8,0.9-5.8,0.9-5.8l11.6-5.5c0,0,19.7-0.4,30.6,4.5c0.4,0.2,0.8,0.4,1.2,0.6c0.1,0.1,0.2,0.1,0.3,0.2c0,0,0,0,0,0
	c1.6,0.7,3.3,1.6,4.6,5.1c0,0,5.8-9.5,4-14.2c-2.2,3.9-3.8,6.5-7.2,7.7C95.2,14.9,92,7,92,7s-2.1,8.9-7.7,11.6
	c-2,1,2.6-13.9,4.4-16.1c-3.1,1.7-5.7,5.1-8.8,8.7c1.2-3.8,1.2-7.4,0.8-11c-1.1,3.7-4.8,10.2-6.4,9.5c0.5-1-1-7.3-2.3-9.8
	c-1.6,3.7-3.9,6.5-8.7,8.2c-1.1-2.7-3.1-5.1-5.7-7.2c-0.2,3-1,5.9-3.1,8.5c0,0-5.8-7.4-5.7-6.6c0.1,0.8,0.3,10.5,0.3,10.5
	c-1.8-3-4-5.3-6.5-7.2c0.7,3.3,0.8,6.1,0.1,8.5c-2.5-1.2-6.6-2.4-12.3-0.1c1,0.4,3.9,0.8,6.5,2.3c-4.4,0.3-10.7,1.3-13.9,4.3
	c4.4,0.4,4.9,1.6,4.9,1.6S17,34.8,16.6,43.7c1.5-2.5,3.7-7.9,10-10.6c-1.2,0.9-9.1,12.6-9.5,18.4c2.8-5.7,7.4-9.3,10.6-11.6
	c0,0-7.9,10.8-7.8,16.2c4.4-6.8,7.4-8.6,7.4-8.6l-1,7.4l2.4,0.9l11,6.9l-0.5-7.3c0,0,4.1-0.5,11.9-0.2c4.7,1.3,17.2,4.8,20.3,4.1
	c3-0.7,7.1-6.5,9.3-10.2c3.2-1.1,4,3.8,4.5,5.3c0.5,1.5,2.2,2.2,4.1,3.9c1.8,1.7,1.2,5.3,1.2,5.3s2.2,1.2,4.8,1.8
	c-1.2-2.3-1.4-2.9,2.4-4.6C101.7,58.8,103.3,49.3,97,44.6z M24,63.5c0,0,0.5-3.2,1.5-2.7c1,0.5,2.7,1,2.3,3.4c-0.2,1.1-2,0.8-2.9,1
	c-0.9,0.2-0.4,3.4,1.1,4.5c1.4,1.1,0.8-1.4,3.3-1.5c2.5-0.1,0.4,2.3,0.4,2.3c2.9,1.7,5.4-0.2,4.8-0.9s-3-4.4-3-4.4l1.9-3.1l-2.8,2
	c0,0-2.9-6.1-5.7-6.8s-4.3,6.9-3.8,8.8C22.3,65.8,24,63.5,24,63.5z M27.4,74c1.3-0.2,1.4-1.3,1.4-1.3l-0.3-1l-1.1,0.6
	c0,0-3-0.9-3.8-4.2h-0.6C23,70.9,26.2,74.2,27.4,74z M27.8,76c-0.5,2.1,4.1,4.4,6.8,3c2.7-1.4,1.6-4.9,1.6-4.9S33.7,80.2,27.8,76z
	 M17.8,125.1l-3.6-11.6l-9.6,0.8C8.2,117.9,12.7,121.5,17.8,125.1z M0,109.3c5.6,0,16.8-0.8,16.8-0.8l1.9-2.3l10.5,6l-5-13.3
	c0,0,13,6.6,15.3,9.6C36.6,103,34.9,97.6,23.8,97l0.3-1c0,0,7.1-1.4,9.5,0.5c2.4,1.9,13.6,22.3,14.7,23.7c1.1,1.4,1-3,1-3
	c-4.5-5.8-9.6-19.8-16.5-22.5c2.2-2.3,17.2,15.8,28.3,17.9c-0.7-1-1.7-2.3-2.7-3.7c-9-5.7-24.9-20.7-26.3-24.6
	c2.2,2.5,11.7,11.4,21.6,17.9c-0.7-1-1.5-2.1-2.2-3.2C44.3,93,34.6,82.3,35.2,80.9c1.5,2.3,6.5,6.7,10.8,10.3c-3.4-4.9-6-8.7-6-8.7
	s12.3,0,12.6,0c0.3,0,0.3,4.6,2.6,5.6c2.3,1,4-4.3,7-3c3,1.3,7,7.5,17.6,4.5c10.6-3,8.6,6,8.6,6s-9.2,4.7-9.5,4.9
	c-3.6,2.2-4.2,4.4-4.2,4.4s-0.5,3.2-0.4,8c-0.5,0.7-0.9,1.6-1.3,2.5l3.4,0.9l30.9,18.2l-11.6,16.8l5.6,8.4
	c-25-2.9-58.4-17.4-81.1-32.8l-4.9-13.3l-1,0.1l0-0.1l0.9-0.8l-12.2-0.1C1.8,111.5,0.9,110.4,0,109.3z M78.7,150.9l0.9-27.6
	c0,0-7.1-1.7-10.8-3.8c0.1,0.1,8.6,9.2,8.6,9.2s0.2,1.7-1.9,4.7c-2.8-0.6-10-13.1-10-13.1S68.3,132.9,78.7,150.9z"/>
<g>
	<path class="st1" d="M145.5,73.5h9.9l20.9,49.1h-11.2l-4.5-10.9H140l-4.5,10.9h-10.9L145.5,73.5z M156.8,102.1l-6.5-15.8l-6.5,15.8
		H156.8z"/>
	<path class="st1" d="M187.3,73.8h22.3c6.2,0,11,1.7,14.2,4.9c2.7,2.7,4.2,6.5,4.2,11.3c0,7.9-4.2,12.8-10.4,15.1l11.9,17.4h-12.5
		l-10.6-15.6H198v15.6h-10.7V73.8z M208.9,97.5c5.2,0,8.2-2.8,8.2-7c0-4.6-3.2-7-8.4-7H198v14H208.9z"/>
	<path class="st1" d="M241.1,73.8h9.9l22.8,30v-30h10.6v48.7h-9.1l-23.6-31v31h-10.6V73.8z"/>
	<path class="st1" d="M300.1,73.8h10.7v48.7h-10.7V73.8z"/>
</g>
<g>
	<path class="st1" d="M124.1,149.5c0-3.1,2.4-5.7,5.6-5.7c2.1,0,3.4,0.9,4.4,1.9l-1,1.1c-0.9-0.9-1.9-1.6-3.4-1.6
		c-2.2,0-3.9,1.9-3.9,4.3c0,2.4,1.7,4.3,4,4.3c1.4,0,2.4-0.7,3.3-1.7l1.1,1c-1.1,1.2-2.4,2.1-4.5,2.1
		C126.6,155.2,124.1,152.6,124.1,149.5z"/>
	<path class="st1" d="M136.9,144h9.5v10.9h-1.6v-9.5h-6.2v9.5h-1.6V144z"/>
	<path class="st1" d="M149.4,149.5c0-3.1,2.4-5.7,5.7-5.7c3.3,0,5.7,2.6,5.7,5.7c0,3.1-2.4,5.7-5.7,5.7
		C151.7,155.2,149.4,152.6,149.4,149.5z M159.1,149.5c0-2.3-1.8-4.3-4.1-4.3c-2.4,0-4,1.9-4,4.3c0,2.3,1.7,4.3,4,4.3
		C157.4,153.7,159.1,151.8,159.1,149.5z"/>
	<path class="st1" d="M163.7,144h1.6v2.2c0.9-1.3,2.2-2.4,4.2-2.4c2.6,0,5.2,2.1,5.2,5.7c0,3.6-2.6,5.7-5.2,5.7
		c-2,0-3.3-1.1-4.2-2.3v5.5h-1.6V144z M173.1,149.5c0-2.6-1.8-4.2-3.9-4.2c-2,0-4,1.7-4,4.3c0,2.5,1.9,4.2,4,4.2
		C171.3,153.7,173.1,152.1,173.1,149.5z"/>
	<path class="st1" d="M180,145.4h-3.9V144h9.5v1.4h-3.9v9.5H180V145.4z"/>
	<path class="st1" d="M187.9,144h1.6v8.7l6.5-8.7h1.6v10.9H196v-8.7l-6.5,8.7h-1.6V144z"/>
	<path class="st1" d="M201.3,144h5.3c2.2,0,3.6,1.1,3.6,2.7c0,1.4-0.9,2.1-1.8,2.5c1.3,0.4,2.4,1.2,2.4,2.7c0,1.8-1.6,3-4,3h-5.5
		V144z M206.3,148.7c1.3,0,2.2-0.6,2.2-1.8c0-0.9-0.8-1.5-2.2-1.5h-3.4v3.3H206.3z M206.5,153.5c1.6,0,2.5-0.7,2.5-1.8
		c0-1.1-1-1.7-2.7-1.7h-3.4v3.5H206.5z"/>
	<path class="st1" d="M213.7,144h1.6v4.7h6.3V144h1.6v10.9h-1.6v-4.8h-6.3v4.8h-1.6V144z"/>
	<path class="st1" d="M226.9,144h1.6v4.1h2.9c2.4,0,4.3,1,4.3,3.3c0,2.2-1.6,3.6-4.1,3.6h-4.7V144z M231.5,153.5
		c1.6,0,2.6-0.7,2.6-2.1c0-1.3-1-1.9-2.7-1.9h-2.9v4H231.5z M237.7,144h1.6v10.9h-1.6V144z"/>
	<path class="st1" d="M243,144h1.6v8.7l6.5-8.7h1.6v10.9h-1.6v-8.7l-6.5,8.7H243V144z M244.8,139.9l1.1-0.2c0.3,0.9,0.8,1.5,1.9,1.5
		c1,0,1.6-0.6,1.9-1.5l1.1,0.2c-0.3,1.5-1.4,2.6-3,2.6C246.2,142.4,245.1,141.4,244.8,139.9z"/>
	<path class="st1" d="M262.7,144h1.6v6.3l6-6.3h2l-4.6,4.7l4.7,6.2h-1.9l-3.9-5l-2.3,2.4v2.6h-1.6V144z"/>
	<path class="st1" d="M272.9,154.9l0.2-1.4c0.2,0.1,0.6,0.1,0.8,0.1c1.3,0,2.4-0.6,2.4-8.8V144h7.7v10.9h-1.6v-9.5h-4.6v0.3
		c0,8.5-1.5,9.4-3.6,9.4C273.8,155.1,273.2,155,272.9,154.9z"/>
	<path class="st1" d="M287,157.8l0.5-1.3c0.5,0.3,1,0.4,1.7,0.4c1,0,1.6-0.5,2.2-2.1l-5-10.9h1.8l4,9.1l3.5-9.1h1.7l-4.6,11.3
		c-0.9,2.3-2,3.1-3.6,3.1C288.4,158.4,287.7,158.2,287,157.8z"/>
	<path class="st1" d="M299.7,149c0-3.5,0.3-6.9,4.1-7.8l6.1-1.4l0.3,1.4l-5.9,1.5c-2.3,0.6-3,1.8-3.2,3.9c0.8-1.3,2.2-2.4,4.5-2.4
		c2.9,0,5.2,2.4,5.2,5.4c0,3-2.4,5.6-5.6,5.6C302,155.2,299.7,152.8,299.7,149z M309.2,149.6c0-2.3-1.7-4.1-3.9-4.1
		c-2.3,0-3.9,1.8-3.9,4.1c0,2.3,1.7,4.1,3.9,4.1C307.6,153.7,309.2,151.9,309.2,149.6z"/>
</g>
</svg>
