<?xml version="1.0" encoding="utf-8"?>
<!-- Generator: Adobe Illustrator 22.0.1, SVG Export Plug-In . SVG Version: 6.00 Build 0)  -->
<svg version="1.1" id="Layer_1" xmlns="http://www.w3.org/2000/svg" xmlns:xlink="http://www.w3.org/1999/xlink" x="0px" y="0px"
	 viewBox="0 0 192.1 54" style="enable-background:new 0 0 192.1 54;" xml:space="preserve">
<style type="text/css">
	.st0{fill:#1C75BC;}
</style>
<g>
	<path class="st0" d="M177.5,32.8c0,2.2-1.8,4-4,4H22.4c-2.2,0-4-1.8-4-4l0,0c0-2.2,1.8-4,4-4h151.1
		C175.7,28.7,177.5,30.6,177.5,32.8L177.5,32.8z"/>
	<g>
		<path class="st0" d="M189.5,25.1c0,0.2,0,13,0,13.1c0.1,0,2.5,0,2.6,0c0-0.2,0-13,0-13.1C192,25.1,189.7,25.1,189.5,25.1z"/>
		<path class="st0" d="M171,10.2c0,0.2,0,42.8,0,42.9c0.2,0,8.6,0,8.7,0c0-0.1,0-42.8,0-42.9C179.6,10.2,171.1,10.2,171,10.2z"/>
		<path class="st0" d="M181.1,16.8c0,0.2,0,29.6,0,29.8c0.2,0,6.9,0,7,0c0-0.2,0-29.6,0-29.8C188,16.8,181.2,16.8,181.1,16.8z"/>
	</g>
	<g>
		<path class="st0" d="M2.6,38.2c0-0.2,0-13,0-13.1c-0.1,0-2.5,0-2.6,0c0,0.2,0,13,0,13.1C0.1,38.2,2.5,38.2,2.6,38.2z"/>
		<path class="st0" d="M21.1,53.1c0-0.2,0-42.8,0-42.9c-0.2,0-8.6,0-8.7,0c0,0.1,0,42.8,0,42.9C12.6,53.1,21,53.1,21.1,53.1z"/>
		<path class="st0" d="M11,46.6c0-0.2,0-29.6,0-29.8c-0.2,0-6.9,0-7,0C4,17,4,46.4,4,46.6C4.2,46.6,10.9,46.6,11,46.6z"/>
	</g>
	<g>
		<path d="M59.4,0.8v2.3H51v18.6h-2.7V0.8H59.4z"/>
		<path d="M67.9,1.1c1.3-0.2,3-0.4,5.2-0.4c2.7,0,4.6,0.6,5.9,1.7c1.1,1,1.8,2.5,1.8,4.4c0,1.9-0.6,3.4-1.6,4.5
			c-1.4,1.5-3.8,2.3-6.4,2.3c-0.8,0-1.6,0-2.2-0.2v8.4h-2.7V1.1z M70.6,11.2c0.6,0.2,1.3,0.2,2.2,0.2c3.3,0,5.2-1.6,5.2-4.5
			c0-2.8-2-4.1-4.9-4.1c-1.2,0-2.1,0.1-2.5,0.2V11.2z"/>
		<path d="M93.1,0.8v8.8c0,3.3-0.1,6-0.2,8.8l0.1,0c1.1-2.2,2.4-4.4,3.9-6.9l6.8-10.8h2.7v20.9h-2.5v-8.9c0-3.4,0-5.9,0.2-8.5
			l-0.1,0c-1,2.3-2.4,4.7-3.9,7l-6.5,10.4h-2.9V0.8H93.1z"/>
		<path d="M127.4,0v1.9c4.4,0.2,8.8,2.9,8.8,9.4s-4.4,9.1-8.8,9.3v2h-2.6v-2c-4.4-0.3-8.8-2.6-8.8-9.2c0-6.9,4.8-9.3,8.9-9.5V0
			H127.4z M124.8,3.8c-2.7,0.2-6,2-6,7.5c0,5,3,7.1,6,7.4V3.8z M127.3,18.7c3-0.2,6-2.3,6-7.4c0-5.4-3-7.3-6-7.4V18.7z"/>
	</g>
	<g>
		<path d="M34.8,46.7H36l0.9,2.6c0.1,0.4,0.4,1,0.5,1.4h0c0.1-0.4,0.4-1.2,0.6-1.8l0.8-2.3h1.2l0.4,5.2h-0.9l-0.1-2.5
			c0-0.6-0.1-1.2-0.1-1.9h0c-0.1,0.5-0.3,0.9-0.6,1.7l-1,2.6H37l-0.9-2.6c-0.2-0.5-0.4-1.2-0.5-1.7h0c0,0.6-0.1,1.3-0.1,1.9
			l-0.1,2.5h-0.9L34.8,46.7z"/>
		<path d="M46.7,51.9l-0.1-0.7h0C46.3,51.6,45.7,52,45,52c-1.1,0-1.6-0.7-1.6-1.5c0-1.3,1.1-2,3.1-1.9v-0.1c0-0.4-0.1-1.2-1.2-1.2
			c-0.5,0-1,0.2-1.4,0.4L43.8,47c0.4-0.3,1.1-0.5,1.7-0.5c1.6,0,2,1.1,2,2.1v1.9c0,0.5,0,0.9,0.1,1.3H46.7z M46.6,49.2
			c-1,0-2.2,0.2-2.2,1.2c0,0.6,0.4,0.9,0.9,0.9c0.7,0,1.1-0.4,1.3-0.9c0-0.1,0.1-0.2,0.1-0.3V49.2z"/>
		<path d="M54.3,46.7v0.8h-2.3v4.4h-0.9v-5.2H54.3z"/>
		<path d="M60.2,51.9l-0.1-0.7h0c-0.3,0.4-0.9,0.8-1.6,0.8c-1.1,0-1.6-0.7-1.6-1.5c0-1.3,1.1-2,3.1-1.9v-0.1c0-0.4-0.1-1.2-1.2-1.2
			c-0.5,0-1,0.2-1.4,0.4L57.3,47c0.4-0.3,1.1-0.5,1.7-0.5c1.6,0,2,1.1,2,2.1v1.9c0,0.5,0,0.9,0.1,1.3H60.2z M60,49.2
			c-1,0-2.2,0.2-2.2,1.2c0,0.6,0.4,0.9,0.9,0.9c0.7,0,1.1-0.4,1.3-0.9c0-0.1,0.1-0.2,0.1-0.3V49.2z"/>
		<path d="M65.1,48.9h0.5c0.8,0,1.3-0.4,1.3-0.9c0-0.5-0.4-0.8-1-0.8c-0.4,0-0.9,0.1-1.3,0.4L64.4,47c0.5-0.3,1.1-0.5,1.7-0.5
			c0.8,0,1.8,0.4,1.8,1.4c0,0.6-0.6,1.1-1.2,1.2v0c0.8,0.1,1.4,0.5,1.4,1.3c0,1.1-1.2,1.6-2.3,1.6c-0.6,0-1.2-0.2-1.7-0.4l0.2-0.6
			c0.4,0.2,0.9,0.4,1.4,0.4c0.8,0,1.3-0.4,1.3-0.9c0-0.7-0.7-0.9-1.5-0.9h-0.5V48.9z"/>
		<path d="M72.3,46.7v2.2c0,0.8,0,1.3-0.1,2.1l0,0c0.3-0.6,0.5-1,0.8-1.6l1.6-2.7h1.1v5.2H75v-2.2c0-0.9,0-1.3,0.1-2.1h0
			c-0.3,0.7-0.6,1.1-0.9,1.6c-0.5,0.8-1.1,1.8-1.6,2.7h-1.1v-5.2H72.3z"/>
		<path d="M80.5,46.7v2.1H83v-2.1h0.9v5.2H83v-2.4h-2.5v2.4h-0.9v-5.2H80.5z"/>
		<path d="M92.9,46.7v2.2c0,0.8,0,1.3-0.1,2.1l0,0c0.3-0.6,0.5-1,0.8-1.6l1.6-2.7h1.1v5.2h-0.9v-2.2c0-0.9,0-1.3,0.1-2.1h0
			c-0.3,0.7-0.6,1.1-0.9,1.6c-0.5,0.8-1.1,1.8-1.6,2.7H92v-5.2H92.9z"/>
		<path d="M101.1,46.7v2.1h2.5v-2.1h0.9v5.2h-0.9v-2.4h-2.5v2.4h-0.9v-5.2H101.1z"/>
		<path d="M108.2,46.7c0.4-0.1,1-0.1,1.7-0.1c0.9,0,2.3,0.1,2.3,1.3c0,0.6-0.5,1-1.1,1.2v0c0.8,0.1,1.3,0.5,1.3,1.3
			c0,1.4-1.7,1.5-2.7,1.5c-0.6,0-1.2,0-1.5-0.1V46.7z M109.1,51.3c0.3,0,0.5,0,0.8,0c0.6,0,1.6-0.2,1.6-0.9c0-0.8-0.8-0.9-1.7-0.9
			h-0.7V51.3z M109.1,48.9h0.7c0.7,0,1.4-0.2,1.4-0.8c0-0.5-0.5-0.8-1.4-0.8c-0.3,0-0.5,0-0.7,0V48.9z"/>
		<path d="M116.3,49.5c0,1.3,0.8,1.8,1.8,1.8c0.7,0,1.1-0.1,1.4-0.3l0.2,0.7c-0.3,0.2-0.9,0.3-1.7,0.3c-1.6,0-2.6-1.1-2.6-2.6
			c0-1.6,0.9-2.8,2.4-2.8c1.7,0,2.2,1.5,2.2,2.5c0,0.2,0,0.3,0,0.4H116.3z M119,48.8c0-0.6-0.2-1.5-1.3-1.5c-1,0-1.4,0.9-1.5,1.5
			H119z"/>
		<path d="M124.2,46.7v2.1h2.5v-2.1h0.9v5.2h-0.9v-2.4h-2.5v2.4h-0.9v-5.2H124.2z"/>
		<path d="M134.8,46.7v0.8h-1.6v4.5h-0.9v-4.5h-1.6v-0.8H134.8z"/>
		<path d="M140.6,51.9l-0.1-0.7h0c-0.3,0.4-0.8,0.8-1.6,0.8c-1.1,0-1.6-0.7-1.6-1.5c0-1.3,1.1-2,3.1-1.9v-0.1c0-0.4-0.1-1.2-1.2-1.2
			c-0.5,0-1,0.2-1.4,0.4l-0.2-0.6c0.4-0.3,1.1-0.5,1.7-0.5c1.6,0,2,1.1,2,2.1v1.9c0,0.5,0,0.9,0.1,1.3H140.6z M140.5,49.2
			c-1,0-2.2,0.2-2.2,1.2c0,0.6,0.4,0.9,0.9,0.9c0.7,0,1.1-0.4,1.3-0.9c0-0.1,0.1-0.2,0.1-0.3V49.2z"/>
		<path d="M145.1,48.4c0-0.7,0-1.2,0-1.7h0.9l0,0.9h0c0.4-0.6,1-1,1.9-1c1.3,0,2.2,1.1,2.2,2.6c0,1.9-1.1,2.8-2.4,2.8
			c-0.7,0-1.3-0.3-1.6-0.8h0V54h-0.9V48.4z M146,49.8c0,0.1,0,0.3,0,0.4c0.2,0.7,0.7,1.1,1.4,1.1c1,0,1.6-0.8,1.6-2
			c0-1-0.5-1.9-1.6-1.9c-0.6,0-1.3,0.5-1.4,1.2c0,0.1-0.1,0.3-0.1,0.4V49.8z"/>
		<path d="M157.1,51.9h-0.9v-2.2h-0.7c-0.4,0-0.7,0.1-0.9,0.3c-0.4,0.3-0.5,1-0.7,1.5c-0.1,0.2-0.1,0.3-0.2,0.4h-1
			c0.1-0.2,0.2-0.4,0.3-0.6c0.2-0.5,0.4-1.2,0.8-1.6c0.2-0.1,0.4-0.3,0.6-0.3v0c-0.7-0.1-1.4-0.5-1.4-1.3c0-0.5,0.3-0.9,0.7-1.1
			c0.4-0.2,1.1-0.4,1.7-0.4c0.6,0,1.2,0.1,1.7,0.1V51.9z M156.2,47.3c-0.2,0-0.5-0.1-0.8-0.1c-0.6,0-1.4,0.2-1.4,0.9
			c0,0.7,0.8,0.9,1.4,0.9c0.4,0,0.6,0,0.8,0V47.3z"/>
	</g>
</g>
</svg>
