<?xml version="1.0" encoding="utf-8"?>
<!-- Generator: Adobe Illustrator 22.0.1, SVG Export Plug-In . SVG Version: 6.00 Build 0)  -->
<svg version="1.1" id="Layer_1" xmlns="http://www.w3.org/2000/svg" xmlns:xlink="http://www.w3.org/1999/xlink" x="0px" y="0px"
	 viewBox="0 0 129.6 191.9" style="enable-background:new 0 0 129.6 191.9;" xml:space="preserve">
<style type="text/css">
	.st0{fill:#94C618;}
	.st1{fill:#2A2D25;}
</style>
<g>
	<path class="st0" d="M74.5,40.9c0,0,13.1-34.1-6.6-40.3c0,0-32.8-8.5-15.4,40.3c0,0-21.6,5.2-21,13.8c0,0-17.4-4.6-20,17.4
		c0,0-9.5-1.3-9.8,33.8c0,0-3.9,16.4,5.2,38c0,0-0.7,2.3,1.6,5.2c0,0-3,16.7,7.5,18l2.3-0.3c0,0,1.6,1.1,3.1,0.7
		c1.5-0.5,2.1-0.8,2.1-0.8s5.6,0.7,5.1-4.4c0,0-1.3-16.1-8.4-17.1c0,0-4.6-7.4-1.6-13.8c0,0,6.7-13.9-0.3-23.9c0,0,9.2-5.2,11-14.4
		c0,0,1.5,9.7,8.4,14.4l1.3,17.7c0,0,11.3,5.7,14.4,13.1c0,0,11.2,10.3,22.2-0.2c0,0,5.3-11.9,13.9-13.2l1-15.4
		c0,0,7.5-7.1,8.8-16.7c0,0,4.3,11.2,11.2,14.8c0,0-7.2,17.7-0.7,24.9c0,0,2.6,12.8-3.6,14.8c0,0-9.8,14.8-4.3,18.7
		c0,0,0.3,2.6,4.9,1c0,0,1.6,1.3,3.9,0c0,0,6.6,3.6,9.2-7.5l-0.3-9.2l2.3-4.9c0,0,10.8-32.1,3.9-40.7c0,0,3-32.1-8.2-32.5
		c0,0-2.3-23.6-20.7-17.7C97.1,54.4,95.8,45.5,74.5,40.9z"/>
</g>
<g>
	<g>
		<path class="st1" d="M49.4,163.7h-1v3.7h-1.5v-8.5h1.5v3.6h0.8l2.5-3.6h1.8l-2.9,4.1l3.2,4.4H52L49.4,163.7z"/>
		<path class="st1" d="M62.2,158.8v8.5h-1.5V160h-2.6l-0.2,3.3c-0.1,1-0.2,1.8-0.4,2.4c-0.2,0.6-0.5,1-0.8,1.2
			c-0.4,0.3-0.9,0.4-1.5,0.4h-0.4v-1.2l0.2,0c0.3,0,0.6-0.2,0.8-0.4c0.2-0.2,0.3-0.5,0.4-0.9c0.1-0.4,0.2-1,0.2-1.9l0.2-4.2H62.2z"
			/>
		<path class="st1" d="M68,163.3l1.7-4.5h1.6l-3,7.1l-0.3,0.5c-0.4,0.7-1,1-1.9,1l-0.6,0l0-1.2c0.1,0,0.3,0,0.5,0
			c0.4,0,0.7-0.2,0.9-0.5l0.3-0.7l-2.9-6.2H66L68,163.3z"/>
		<path class="st1" d="M78.8,160h-3.9v2.1h1.7c0.6,0,1.2,0.1,1.6,0.3c0.5,0.2,0.8,0.5,1.1,0.9c0.2,0.4,0.4,0.9,0.4,1.4
			c0,0.8-0.3,1.4-0.8,1.9c-0.5,0.5-1.3,0.7-2.2,0.7h-3.3v-8.5h5.4V160z M74.8,163.3v2.9h1.7c0.5,0,0.9-0.1,1.2-0.4
			c0.3-0.3,0.4-0.6,0.4-1.1c0-0.4-0.1-0.8-0.4-1c-0.3-0.2-0.7-0.4-1.1-0.4H74.8z"/>
	</g>
</g>
<g>
	<path class="st1" d="M10.5,188.9H5.1l-0.9,3H0l5.9-16.2h3.7l6,16.2h-4.2L10.5,188.9z M6.1,185.9h3.5l-1.7-5.6L6.1,185.9z"/>
	<path class="st1" d="M29.9,178.7H25v13.2h-3.9v-13.2h-4.8v-3h13.6V178.7z"/>
	<path class="st1" d="M46.3,175.7v16.2h-3.9v-13.2h-3.6l-0.3,5.4c-0.1,1.9-0.4,3.4-0.8,4.5c-0.4,1.1-1,1.9-1.7,2.5
		c-0.8,0.5-1.8,0.8-3.1,0.8h-1v-3l0.5-0.1c0.8-0.1,1.3-0.6,1.7-1.4c0.3-0.8,0.6-2.3,0.7-4.3l0.3-7.5H46.3z"/>
	<path class="st1" d="M60.5,185h-6.2v3.9h7.3v3H50.5v-16.2h11.2v3h-7.3v3.4h6.2V185z"/>
	<path class="st1" d="M77.9,178.7h-4.9v13.2h-3.9v-13.2h-4.8v-3h13.6V178.7z"/>
	<path class="st1" d="M90.8,175.7h3.9v16.2h-3.9v-10.2L85,191.9h-3.9v-16.2H85v10.2L90.8,175.7z"/>
	<path class="st1" d="M104.5,185.5h-1.8v6.4h-3.9v-16.2h3.9v6.3h1.5l3.1-6.3h4.7l-4.5,7.5l5,8.7H108L104.5,185.5z"/>
	<path class="st1" d="M124.5,188.9h-5.4l-0.9,3H114l6-16.2h3.7l6,16.2h-4.2L124.5,188.9z M120.1,185.9h3.5l-1.8-5.6L120.1,185.9z"/>
</g>
</svg>
