<?xml version="1.0" encoding="utf-8"?>
<!-- Generator: Adobe Illustrator 22.0.1, SVG Export Plug-In . SVG Version: 6.00 Build 0)  -->
<svg version="1.1" id="Layer_1" xmlns="http://www.w3.org/2000/svg" xmlns:xlink="http://www.w3.org/1999/xlink" x="0px" y="0px"
	 viewBox="0 0 361.4 433.5" style="enable-background:new 0 0 361.4 433.5;" xml:space="preserve">
<style type="text/css">
	.st0{fill:#F89513;}
	.st1{fill:#121516;}
	.st2{fill:#141516;}
	.st3{fill:#161819;}
	.st4{fill:#FFFFFF;}
	.st5{fill:#BADEE6;}
</style>
<g>
	<g>
		<g>
			<g>
				<g>
					<g>
						<path class="st0" d="M136.7,379.3c-0.7,0-1.4-0.3-1.9-0.9c-0.5-0.6-0.7-1.3-0.6-2c0-0.1,1.8-11.7,4.8-29
							c3.9-22.5-0.6-34-5.5-42.3c-1.6-2.7-3.3-5.1-5-7.5c-0.7-1-1.4-2.1-2.1-3.1c-6.1-9.8-12.3-21.6-17.9-34.2
							c-7.9-17.7-14.3-35.7-18.5-52.1c-6.6-26.8,4.7-42.9,7.9-46.7c-0.9-18.5,9.4-66.6,11-74c-5.2-10-6.4-17-3.7-21.5
							c1.4-2.4,3.6-3.4,5.4-3.9c-3.4-16.6-1.3-30.3,6.1-40.8c11.5-16.2,31.5-18.7,32.4-18.8c0.1,0,0.2,0,0.3,0
							c45.4,0,51.7,45.3,51.7,45.7c0,0.2,0,0.5,0,0.7c-0.1,0.6-0.2,1.2-0.3,1.8c0,0,0,0.1,0,0.1C200,57,200,62,200.3,69.1
							c0,0.6,0.1,1.2,0.1,1.8c2.4,28.3-12,49.9-14.4,53.4c-1.7,7.4-7.5,10.1-10.4,11c-1.2,7.4,1.9,12.9,2.9,14.4
							c0.9,0.5,3.2,1.9,6.7,3.6c3.7,1.8,9.5,4.3,16.8,6.5c0.1,0,0.1,0,0.2,0c0.9,0.3,1.9,0.6,2.9,0.8c22.7,4.4,42.1,30.1,46.1,42.7
							c2.4,7.7,7.9,12.7,10.9,15c0.5-0.6,1.1-0.9,1.9-1c0.2,0,0.3,0,0.5,0c8.3,0,15.2,6.2,17,8.1c5.2,2,7.1,7.2,7.6,9.5
							c6.1,5,7.4,14.4,7.5,14.8c0.1,0.7-0.1,1.4-0.6,2l-1.8,2.1c12.5,15.2,10.3,37.1,10.2,38c-0.1,0.8-0.5,1.5-1.2,1.9
							c-11,6.7-24.1,10.1-39.2,10.1c-9.8,0-17.6-1.5-21.2-2.3c-2.3,5.6-3.7,13.4-3.7,13.5c0,0,0,0.1,0,0.1c-2,8.7,1.5,47.3,3,61.4
							c0.1,0.7-0.2,1.4-0.6,1.9c-0.5,0.5-1.1,0.8-1.9,0.8H136.7z"/>
						<path class="st1" d="M149.4,5c43.8,0,49.3,43.5,49.3,43.5c-0.1,0.7-0.2,1.3-0.3,2v0c-0.9,6.1-0.9,11.1-0.5,18.7
							c0,0.6,0.1,1.2,0.1,1.8c2.5,29.8-14.3,52.3-14.3,52.3c-1.8,8.8-10.3,10-10.3,10c-2.5,10.5,3.3,18.2,3.3,18.2s2.7,1.7,7.4,4
							c4.3,2,10.2,4.5,17.3,6.7c0,0,0,0,0,0c0,0,0,0,0,0c1,0.3,2,0.6,3,0.9c22,4.3,40.5,29.3,44.3,41s14,17.8,14,17.8l1.3-2
							c0.1,0,0.3,0,0.4,0c8.6,0,15.6,7.8,15.6,7.8c5.8,1.8,6.8,8.8,6.8,8.8c6,4.3,7.3,13.8,7.3,13.8l-3.3,3.8
							c13.5,14.5,11,37.8,11,37.8c-12.6,7.7-26.5,9.7-37.8,9.7c-12.6,0-22-2.6-22.6-2.7l0,0c-3,6-4.8,16-4.8,16
							c-2.5,11,3,62.3,3,62.3H136.7c0,0,1.8-11.5,4.8-29c3.9-22.3-0.2-34.6-5.8-44c-2.3-3.9-4.9-7.3-7.2-10.8
							c-6-9.6-12.1-21.3-17.7-33.8c-7.5-16.7-14-34.8-18.3-51.7c-7.3-29.3,8-45.3,8-45.3C98.9,143.8,111.5,87,111.5,87
							c-11.5-21.6-0.8-22.8,1.7-22.8c0.3,0,0.5,0,0.5,0c-0.1-0.3-0.2-0.7-0.2-1C101.5,10.5,149.4,5,149.4,5 M149.4,0
							c-0.2,0-0.4,0-0.6,0c-0.9,0.1-22,2.7-34.1,19.8c-7.6,10.6-9.9,24.3-6.9,40.6c-2,0.9-3.6,2.4-4.7,4.2c-3.1,5.1-2,12.7,3.2,23.1
							c-2.1,9.6-11.5,54.1-10.9,72.9c-4,5.2-14.3,21.9-7.8,48.1c4.2,16.6,10.7,34.7,18.6,52.6c5.7,12.7,11.9,24.6,18,34.4
							c0,0.1,0.1,0.1,0.1,0.2c0.7,1,1.4,2.1,2.2,3.1c1.6,2.4,3.3,4.8,4.9,7.4c4.7,7.9,8.9,18.9,5.2,40.6c-3,17.4-4.8,29-4.8,29.1
							c-0.2,1.4,0.2,2.9,1.2,4c1,1.1,2.3,1.7,3.8,1.7h102.8c1.4,0,2.8-0.6,3.7-1.7c0.9-1.1,1.4-2.5,1.3-3.9
							c-2.1-19.5-4.8-53.2-3.1-60.6c0-0.1,0-0.2,0.1-0.2c0.3-2,1.4-6.9,2.8-11c4.3,0.8,11.3,1.9,19.6,1.9c15.5,0,29.1-3.5,40.5-10.5
							c1.3-0.8,2.2-2.2,2.4-3.7c0.1-1,2.3-22.4-9.4-38.2l0.5-0.6c0.9-1.1,1.4-2.5,1.2-3.9c-0.1-1.1-1.5-10.3-7.7-15.9
							c-1-3.5-3.5-8.2-8.5-10.3c-2.5-2.5-9.5-8.5-18.4-8.5c-0.2,0-0.4,0-0.5,0c-0.6,0-1.2,0.1-1.7,0.3c-2.8-2.4-6.8-6.7-8.7-12.6
							c-4.3-13.4-23.9-39.6-47.9-44.4c-0.9-0.3-1.9-0.5-2.7-0.8c-0.1,0-0.2,0-0.3-0.1c-7.1-2.1-12.8-4.6-16.4-6.3
							c-2.8-1.4-4.9-2.5-6-3.1c-0.9-1.6-2.8-5.5-2.4-10.7c4-1.6,8.8-5.2,10.5-11.8c3.2-4.7,16.9-26.5,14.6-54.7
							c0-0.6-0.1-1.2-0.1-1.8c-0.3-6.9-0.4-11.8,0.5-17.7c0,0,0-0.1,0-0.1c0.1-0.6,0.2-1.1,0.3-1.7c0.1-0.5,0.1-1,0-1.4
							c-0.1-0.5-1.6-12.1-8.9-23.8C187.8,13.1,174.3,0,149.4,0L149.4,0z"/>
					</g>
					<path class="st2" d="M198.7,48.5c-0.1,0.7-0.2,1.3-0.3,2c-1.7-7.2-5-17.8-9.7-17.5c-7,0.5-18.5,3-29.8-3.2s-19,2-20,11
						s-19,17.8-20.3,27.8l-5.2-5.3c-11.9-52.8,36-58.3,36-58.3C193.2,5,198.7,48.5,198.7,48.5z"/>
					<path class="st2" d="M183.7,123.3c-1.8,8.8-10.3,10-10.3,10c-2.5,10.5,3.3,18.2,3.3,18.2c-0.3,1.2,3.8,10.8-1.2,12.2
						c-5,1.3-11.3-2.7-12-12.7c-0.7-10-8-24.8-20.8-30.5c-7.2-3.7-14.7-7-16-15.5c0,0,2.8,8.3,13.5,12c10.7,3.7,13.8,7.8,17.5,10.5
						c3.7,2.7,16.2,8.5,19.2,1.8c1.7-5-2.3-9.3-5.5-10.7l-0.7-1.7c0,0-5.3-4.7-7.3-6.3c0,0-5-2.3-5-3.3c0,0,7-0.2,10-1.2
						s3.5-0.3,5,0.2s4.2,0.2,4.2,0.2s-3.2-5.8,1.5-7.7c4.7-1.8,4.8-3.3,4.8-3.3s-1.2-9.2-3.5-13c-2.3-3.8,1-18.7,15.2-20
						c0,0-7.4,3-9.9,7.5c0.3-0.1,6.9-2.5,12.2-0.8c0,0.6,0.1,1.2,0.1,1.8C200.4,100.8,183.7,123.3,183.7,123.3z"/>
					<path class="st2" d="M168.3,96.7c0,0,2.5,0.7,5.3,0c2.8-0.7,3,2.2,1.8,2.7S170.2,98.9,168.3,96.7z"/>
					<g>
						<path class="st2" d="M170.8,70.8c0.1,0.1-0.9-1.3-3-3c-2.1-1.6-5.4-3.3-9-3.9c-3.6-0.7-7.4-0.5-10.2,0c-0.4,0-0.7,0.1-1,0.1
							c-0.3,0.1-0.6,0.1-0.9,0.2c-0.6,0.1-1.1,0.2-1.5,0.3c-0.8,0.2-1.3,0.3-1.3,0.3s0.4-0.2,1.2-0.4c0.4-0.1,0.9-0.3,1.4-0.5
							c0.3-0.1,0.6-0.2,0.9-0.3c0.3-0.1,0.6-0.2,1-0.3c2.7-0.9,6.6-1.5,10.6-1.2c3.9,0.2,7.8,1.6,10.5,3.2c2.6,1.6,4.1,3.2,4.1,3.3
							L170.8,70.8z"/>
					</g>
					<path class="st2" d="M165.8,76.5c0,0-6.7-11-17-2.7C148.8,73.9,155.7,79.5,165.8,76.5z"/>
					<path class="st2" d="M262.7,221.8c-0.3,0.5-10,16.7-11.7,22.7c0,0-6,8-13.7,6.8c-7.7-1.2-22-6.7-29.8,1.2l4.2-4.7l-11.2-11.2
						c0,0-4-10.8-14.7-15.2c-6.2-3.7-8-4.7-8-4.7s-4.7,0.3-5.8,1c0,0-8-8.5-10.2-16.2c0,0,2.7-12.3-7-19.5c0.4,0.1,7.5,1.9,9.7,14
						c0,0-0.3-40.5-59.3-39.5l-4.9,5.6C98.9,143.8,111.5,87,111.5,87s3.5,6.8,13.3,6l1.8,12c0,0,3.2,23.3-10.7,39.7
						c0,0,28.8-0.5,70,36.5c17.5,14.5,34.8,24.8,42.8,19.2c4.5-6-9.5-11.2-14-15.2s-28.5-23.7-28.5-23.7l-2.3-6
						c4.3,2,10.2,4.5,17.3,6.7c0,0,0,0,0,0c13.9,11.3,32.6,28.7,37,43.9c0,0,19,16.8,7.5,40.5l3.7-3.3
						C249.5,243.2,256.8,228.2,262.7,221.8z"/>
					<path class="st2" d="M301.7,291.5c-26.6,16.2-59.4,7.3-60.4,7l0,0l-3.3-1.5c0,0-22,12.2-48.5-0.2c0.7,0.6,24,19.5,28,52.5
						c2.5,10.5,6.2,21.4,12.6,27.5h-14c-3-5.5-6.8-14.8-6.6-27.5c-0.5-8-7-50.3-43.3-68.3c0,0-15.3,17.7-30.5,22.8
						c-2.3-3.9-4.9-7.3-7.2-10.8c-6-9.6-12.1-21.3-17.7-33.8c0,0,7.2-6,9.9-8.5s5-4.3,5-4.3s-7.2-12.9-19.8-18.8
						c0,0,7.8-2.7,25.1,21.3c9,10.5,47.3,39.8,57.3,44.3c6,2.3,35,10,59-19c-0.2,0.5-5.7,17.8-18.5,23.7c0.3-0.1,3.3-0.7,7.5-2.7
						c8.1-3.8,21.1-12.5,30.7-31.3c0,0,11.3-0.5,23.8-10.3C304.2,268.3,301.7,291.5,301.7,291.5z"/>
					<g>
						<path class="st2" d="M214.1,265.6c-3.4,0.9-5.7,1.1-7.2,1.4c-1.5,0.2-2.2,0.5-2.2,0.5s0.4,0.5,2,1.2c0.4,0.2,0.8,0.3,1.4,0.4
							c0.5,0.1,1.1,0.3,1.8,0.3c0.7,0,1.5,0,2.3,0c0.9-0.1,1.8-0.3,2.8-0.5c3.7-1,5.7-3,6.8-4.3c1.1-1.4,1.3-2.2,1.3-2.2
							s-0.9,0.1-2.4,0.8C219.2,263.8,217.1,264.7,214.1,265.6z"/>
					</g>
					<g>
						<path class="st3" d="M209.4,251.9c-0.4,0-0.9-0.2-1.2-0.6c-0.1-0.1-8.3-10.4-17-10.7c-0.2,0-0.4,0-0.5-0.1
							c-0.6-0.2-4.9-2-6.6-5l-3.8,1c-0.2,0-0.3,0.1-0.5,0c-0.2,0-3.6-0.3-5.8-4.1c-2.6,0-6.5-1.3-7.8-6.2c-0.2-0.6,0.1-1.3,0.7-1.7
							l2-1.2c-1.3-0.8-2.5-1.9-2.7-3.7c-0.1-0.5,0.2-1.1,0.6-1.4c0.1-0.1,3.2-2.3,11.1-3.8c0.8-0.1,1.6,0.4,1.7,1.2
							c0.1,0.8-0.4,1.6-1.2,1.7c-4.7,0.8-7.5,2-8.9,2.7c0.8,0.9,2.5,1.4,3,1.5c0.6,0.1,1.1,0.6,1.2,1.2c0.1,0.6-0.2,1.2-0.7,1.5
							l-3.6,2.1c1.4,3.2,4.8,2.9,5.2,2.8c0.7-0.1,1.3,0.3,1.6,0.9c1.1,2.5,2.9,3.1,3.5,3.2l4.8-1.3c0.4-0.1,0.8,0,1.2,0.2
							c0.4,0.2,0.6,0.6,0.7,1c0.3,1.7,3.4,3.5,5.1,4.2c10,0.5,18.6,11.3,19,11.8c0.5,0.7,0.4,1.6-0.3,2.1
							C210.1,251.8,209.7,251.9,209.4,251.9z"/>
						<path class="st3" d="M201.7,238.3c-0.2,0-0.4,0-0.7-0.2c-11.2-5.5-15-3.2-15.1-3.2c-0.7,0.5-1.6,0.4-2.1-0.3
							c-0.5-0.7-0.4-1.6,0.3-2.1c0.5-0.4,5.2-3.5,18.2,2.8c0.7,0.4,1.1,1.3,0.7,2C202.8,238,202.2,238.3,201.7,238.3z"/>
						<path class="st3" d="M174.9,232.5c-0.3,0-0.6-0.1-0.9-0.3c-0.7-0.5-0.8-1.4-0.3-2.1c0.2-0.3,6.3-8,26.1-1.4
							c0.8,0.3,1.2,1.1,0.9,1.9c-0.3,0.8-1.1,1.2-1.9,0.9c-17.5-5.9-22.6,0.3-22.7,0.3C175.8,232.3,175.4,232.5,174.9,232.5z"/>
						<path class="st3" d="M195.1,227.3c-0.2,0-0.5-0.1-0.7-0.2c-5.9-2.9-14.2-4.6-16.2-4.9l-5.2,2.4c-0.8,0.4-1.6,0-2-0.7
							c-0.4-0.8,0-1.6,0.7-2l5.6-2.6c0.3-0.1,0.6-0.2,0.9-0.1c0.4,0.1,10.4,1.7,17.6,5.3c0.7,0.4,1,1.3,0.7,2
							C196.1,227,195.6,227.3,195.1,227.3z"/>
					</g>
				</g>
				<g>
					<path class="st4" d="M147.1,241.7c-6.6-6.3-11.8-11.8-16-16.3c-4.3-4.5-7.7-8-10.3-10.6c-2.6-2.6-4.6-4.3-5.8-5.4
						c-1.3-1.1-1.9-1.5-1.9-1.5s0.2,0.7,1,2.1c0.7,1.5,1.9,3.7,3.9,6.9c2,3.2,4.7,7.2,8.5,12.2c3.9,5,8.9,10.9,15.7,17.5
						c6.2,5.9,12.1,10.4,17.4,13.8c0.7,0.4,1.3,0.8,1.9,1.2c0.6,0.4,1.3,0.7,1.9,1.1c1.2,0.7,2.4,1.3,3.5,1.9c2.3,1.1,4.4,2,6.2,2.8
						c1.9,0.7,3.5,1.2,4.9,1.7c1.4,0.4,2.6,0.7,3.5,0.9c1.9,0.4,2.8,0.6,2.8,0.6s-0.8-0.6-2.4-1.6c-0.8-0.5-1.8-1.1-3-1.9
						c-1.2-0.8-2.6-1.8-4.2-2.8c-1.6-1.1-3.4-2.4-5.4-3.8c-1-0.7-2-1.5-3.1-2.3c-0.5-0.4-1.1-0.8-1.7-1.2c-0.6-0.4-1.1-0.9-1.7-1.4
						C158.3,252,153,247.4,147.1,241.7z"/>
				</g>
				<g>
					<path class="st4" d="M139.1,28.9c2.5-2.8,4.9-4.7,7.1-6.2c2.2-1.4,4-2.6,5.4-3.4c1.4-0.9,2.5-1.5,3.1-1.9
						c0.7-0.5,0.9-0.7,0.9-0.7s-0.3-0.2-1.1-0.4c-0.8-0.2-2-0.5-3.9-0.4c-1.8,0-4.3,0.4-7.2,1.5c-0.7,0.3-1.5,0.7-2.3,1
						c-0.8,0.4-1.6,0.9-2.4,1.4c-0.8,0.6-1.6,1.2-2.5,1.9c-0.8,0.8-1.6,1.5-2.4,2.4c-2.9,3.3-4.5,6.7-5.4,9.6
						c-0.9,2.9-1.1,5.4-1,7.3c0,1,0.1,1.8,0.2,2.5c0.1,0.7,0.3,1.3,0.4,1.7c0.2,0.9,0.4,1.3,0.4,1.3s0.3-0.4,0.7-1.2
						c0.2-0.4,0.5-0.9,0.7-1.5c0.3-0.6,0.7-1.3,1.1-2.1C132.5,38.7,134.7,34,139.1,28.9z"/>
				</g>
				<g>
					<path class="st4" d="M148.1,135.5c-0.9-2.6-2.2-4.6-3.4-6c-0.6-0.7-1.3-1.3-1.9-1.8c-0.6-0.4-1.2-0.8-1.7-1
						c-0.5-0.2-1-0.4-1.4-0.5c-0.4-0.1-0.8-0.1-1-0.2c-0.6,0-0.8,0-0.8,0s0,0.3,0.1,0.8c0.1,0.3,0.1,0.6,0.2,0.9
						c0.1,0.4,0.2,0.8,0.3,1.3c0.1,0.5,0.3,1,0.5,1.6c0.2,0.6,0.4,1.2,0.6,2c0.5,1.5,1.1,3.2,1.8,5.2c1.3,3.8,2.4,6.6,3.3,8.5
						c0.5,1,0.9,1.7,1.2,2.2c0.3,0.5,0.5,0.8,0.5,0.8s0.2-0.2,0.6-0.7c0.4-0.5,0.8-1.3,1.2-2.4c0.4-1.1,0.8-2.6,0.8-4.4
						C149.1,140,148.9,137.9,148.1,135.5z"/>
				</g>
				<g>
					<path class="st4" d="M165.1,341.9c-0.5-3-1-5.7-1.5-8.2c-0.7-2.4-1.4-4.6-2.1-6.5c-0.7-1.9-1.5-3.5-2.2-5
						c-0.7-1.4-1.3-2.7-2-3.7c-2.7-4-4.2-5.2-4.2-5.2s-0.1,2,0.9,6.5c0.7,4.6,2.7,11.7,4.1,23c1.3,10.2,1.5,17.6,2.1,22.5
						c0.3,4.9,0.9,7.3,0.9,7.3s1.2-2.1,2.7-7c0.4-1.2,0.6-2.6,0.9-4.2c0.1-0.8,0.3-1.6,0.4-2.5c0.1-0.9,0.3-1.8,0.3-2.8
						c0.1-2,0.2-4.1,0.3-6.5C165.6,347.2,165.4,344.7,165.1,341.9z"/>
				</g>
			</g>
			<path class="st2" d="M0.1,323.1c115.6,37.1,245.6,37.1,361.2,0c0,27.5,0.1,55,0.1,82.5c-115.7,37.2-245.7,37.2-361.4,0
				C0,378.1,0.1,350.6,0.1,323.1z"/>
		</g>
	</g>
	<path class="st5" d="M130.4,33.1"/>
	<path class="st2" d="M128,9.8c0,0-20.8,18.8-30.4,20.5c-9.7,1.6-38.6-18.1-50.2-8c-11.5,10.1-10.9,29-18,31.4
		C22.2,56,8.8,51.3,8.8,51.3S25,65,39.4,57.4c9.9-5.2,16.9-31.5,41.5-10.1c13.4,11.7,28.8,6.5,28.8,6.5s-65.1-7.2-59.9,28.4
		c5.2,35.5-15.6,24.4-15.6,24.4s19.5,13,24.6-10c5.1-23,38.6-17.1,38.6-17.1s-0.2,19.8-19.8,29c-19.6,9.2-23.8-2-37.1,9.3
		c-13.3,11.3,2.9,11.5-22.6,18.4c-2.8,0.8-7.8,6.5-5,11.9c0,0,1.8-9.3,8.2-8.6c6.4,0.7,15.9-0.6,24.6-13c8.7-12.4,25.3,14.2,58.5-9
		c14.6-10.2,9.2-18.7,9.2-18.7L128,9.8z"/>
	<path class="st2" d="M99.5,116.8c0,0-24.3-0.5-30,18.7c-5.7,19.2-21.5,25.5-28.2,16.7c0,0,13.8,22,36-6.8c22.3-28.7,24-2.8,24-2.8
		L99.5,116.8z"/>
	<g>
		<g>
			<path class="st4" d="M38.5,366.8c0-0.1-1.1-0.4-1.6-0.6c-0.5-0.2-1-0.4-1.5-0.6c-0.1,0-0.2-0.1-0.3-0.1c-0.1,0-0.2,0-0.3-0.1
				c-0.3-0.1-0.5-0.3-0.6-0.4c-0.1-0.1-0.1-0.4,0-0.7c0.1-0.3,0.1-0.5,0.2-0.8c0.1-0.3,0.1-0.5,0.2-0.8c0.1-0.2,0.2-0.3,0.5-0.3
				c1.1,0.3,2.3,0.6,3.4,1c1.1,0.4,2.3,0.6,3.5,0.8c0.6,0.1,1.3,0.2,1.9,0.4c0.6,0.1,1.2,0.3,1.8,0.4c0.5,0.1,1.1,0.3,1.6,0.4
				c0.5,0.2,1.1,0.3,1.6,0.4c1.1,0.2,2.2,0.5,3.3,0.7c1.1,0.2,2.2,0.4,3.3,0.6c0.2,0,0.4,0,0.6,0c0.3,0,0.5,0,0.6,0
				c0.1,0.1,0.1,0.2,0,0.5c-0.1,0.3-0.2,0.6-0.2,0.9c-0.1,0.3-0.1,0.6-0.2,0.9c-0.1,0.2-0.3,0.3-0.6,0.3c-0.4,0-0.8,0-1.2,0
				c-0.4,0-0.8,0-1.2,0c-0.1,0-0.2,0-0.4,0c-0.1,0-0.2,0-0.4,0c-0.2,0-0.3,0-0.5,0c-0.2,0-0.3,0-0.5,0.1c-0.1,0-0.1,0.1,0,0.3
				c0,0.2,0.1,0.3,0.1,0.5c0,0.1,0,0.3,0,0.4c0,0.2,0,0.3,0,0.5c0,0.3,0,0.6,0.1,0.9c0,0.3,0,0.6,0.1,0.9c0,0.3,0.1,0.7,0.1,1
				c0,0.3,0.1,0.6,0.1,0.9c0.1,0.5,0.2,1,0.3,1.5c0.1,0.5,0.2,1,0.3,1.5c0.3,1.1,0.5,2.3,0.7,3.4c0.2,1.1,0.3,2.3,0.3,3.5
				c0,0.3,0.1,0.6,0.1,0.9c0,0.3,0.1,0.6,0.1,0.9c0.1,0.6,0.4,1,1,1.2c0.2,0.1,0.4,0.1,0.6,0.2c0.2,0.1,0.5,0.1,0.7,0.2
				c0.3,0.1,0.7,0.2,1,0.2c0.3,0.1,0.7,0.2,1,0.3c0.1,0,0.2,0.1,0.3,0.2c0.1,0.1,0.2,0.2,0.2,0.3c0,0.3,0.1,0.6,0.1,0.9
				c0,0.3-0.1,0.6-0.1,0.8c-0.1,0.2-0.2,0.4-0.4,0.5c-0.2,0.1-0.5,0.2-0.8,0.2c-0.1,0-0.3,0-0.4,0c-0.1,0-0.3-0.1-0.4-0.1
				c-0.7-0.1-1.4-0.2-2.1-0.3c-0.7-0.1-1.4-0.3-2.1-0.4c-0.4-0.1-0.8-0.2-1.2-0.3c-0.4-0.1-0.8-0.2-1.2-0.3
				c-0.7-0.2-1.5-0.3-2.2-0.4c-0.7-0.1-1.4-0.3-2.2-0.4c-0.5-0.1-0.9-0.4-1-0.8c-0.1-0.2-0.1-0.4-0.1-0.7c0-0.2,0-0.4,0-0.7
				c0-0.4,0.1-0.6,0.3-0.8c0.2-0.1,0.5-0.1,0.9-0.1c0.2,0,0.4,0,0.6,0c0.2,0,0.4,0,0.6,0c0.3,0,0.6,0,0.9,0c0.3,0,0.6,0,0.9,0
				c0.2,0,0.3,0,0.5,0c0.2,0,0.4,0,0.6,0c0.3,0,0.5-0.1,0.6-0.2c0.1-0.1,0.1-0.3,0.1-0.6c-0.1-0.6-0.2-1.2-0.3-1.9
				c-0.1-0.6-0.2-1.2-0.3-1.9c-0.1-0.3-0.3-0.5-0.6-0.6c-0.3-0.1-0.6-0.1-0.9-0.2c-0.3-0.1-0.6-0.1-0.9-0.2c-0.5-0.1-1-0.1-1.4-0.2
				c-0.5-0.1-1-0.2-1.4-0.2c-1.3-0.2-2.7-0.6-4-1c-1.3-0.4-2.6-0.7-4-1c-0.3-0.1-0.7-0.1-1-0.2c-0.3-0.1-0.7-0.2-1-0.2
				c-0.3-0.1-0.6,0-0.8,0.3c-0.3,0.4-0.6,0.9-1,1.4c-0.3,0.5-0.7,1-1,1.4c-0.2,0.3-0.1,0.5,0.3,0.7c0.5,0.2,1.1,0.5,1.7,0.7
				c0.6,0.2,1.1,0.5,1.7,0.7c0.3,0.1,0.4,0.3,0.4,0.5c0,0.2-0.1,0.5-0.1,0.7c0,0.2-0.1,0.5-0.1,0.7c-0.1,0.4-0.2,0.6-0.3,0.7
				c-0.1,0.1-0.4,0.1-0.8,0c-0.4-0.1-0.7-0.1-1.1-0.2c-0.3-0.1-0.7-0.2-1-0.2c-1.3-0.3-2.8-0.5-4.4-0.9c-1.6-0.4-3.2-1-4.5-1.3
				c-0.6-0.2-1.1-0.5-1-1.1c0-0.2,0-0.5,0.1-0.7c0-0.2,0.1-0.5,0.2-0.7c0-0.1,0.1-0.1,0.2-0.2c0.1-0.1,0.2-0.1,0.3-0.1
				c0.3-0.1,0.7-0.1,1-0.1c0.3,0,0.7,0,1,0c0.3,0,0.7,0,1-0.1c0.4-0.1,0.8-0.2,1.1-0.3c0.6-0.1,1.2-0.4,1.5-0.9
				c0.5-0.7,1-1.4,1.5-2.1c0.5-0.7,1.1-1.4,1.6-2.1c0.3-0.5,0.7-0.9,1-1.4c0.3-0.5,0.7-1,1-1.4c0.3-0.5,0.7-1,1.1-1.6
				c0.4-0.6,0.7-1.1,1.1-1.7c0.4-0.5,0.8-1.1,1.1-1.6C37.8,367.6,38.5,366.8,38.5,366.8z M45.5,378.3c0.5,0.1,1.1,0.2,1.6,0.3
				c0.5,0.1,1,0.2,1.6,0.3c0.3,0.1,0.5-0.1,0.4-0.4c0,0,0-0.1,0-0.3c-0.2-1.3-0.4-2.6-0.6-3.9c-0.2-1.3-0.4-2.6-0.6-3.9
				c0-0.1,0-0.2-0.1-0.3c0-0.1,0-0.2-0.1-0.4c-0.1-0.4-0.3-0.6-0.7-0.7c-0.8-0.2-1.6-0.3-2.4-0.5c-0.8-0.2-1.6-0.3-2.4-0.5
				c-0.4-0.1-0.7,0.1-0.9,0.3c-0.2,0.3-0.4,0.6-0.6,0.9c-0.2,0.3-0.4,0.6-0.6,0.9c-0.6,0.8-1.1,1.6-1.7,2.4
				c-0.6,0.8-1.1,1.6-1.7,2.4c-0.2,0.2-0.3,0.5-0.5,0.7c-0.1,0.2-0.2,0.4-0.1,0.5c0.1,0.1,0.2,0.2,0.5,0.2c1.7,0.3,3.3,0.7,4.7,0.9
				C42.8,377.7,44.2,378,45.5,378.3z"/>
			<path class="st4" d="M73.1,389.9c-1-0.2-2.2-0.5-3.1-1c-1-0.5-2-1-2.8-1.7c-1-0.8-1.8-2-2.2-3.3c-0.4-1.3-0.5-2.5-0.3-3.7
				c0.3-1.7,0.9-3,1.8-4c0.9-1,1.9-1.7,3.1-2.1c1.2-0.5,2.6-0.7,4.1-0.7c1.5,0,3.1,0.1,4.7,0.4c0.5,0.1,1,0.2,1.6,0.3
				c0.5,0.1,1,0.2,1.6,0.3c0.3,0,0.5,0,0.5,0c0.1-0.1,0.1-0.2,0.2-0.5c0.1-0.3,0.1-0.7,0.1-1c0-0.4-0.2-0.6-0.6-0.8
				c-1.2-0.3-1.8-0.4-3-0.7c-0.4-0.3-0.6-0.7-0.5-1.1c0-0.1,0-0.3,0.1-0.4c0-0.1,0.1-0.3,0.1-0.4c0.1-0.3,0.2-0.6,0.4-0.6
				c0.1-0.1,0.4,0,0.8,0c1.7,0.3,3.4,0.5,4.9,0.8c1.6,0.3,3.1,0.5,4.7,0.8c0.3,0,0.5,0.1,0.7,0.1c0.2,0,0.5,0.1,0.7,0.2
				c0.1,0,0.1,0.1,0.2,0.2c0.1,0.1,0.1,0.2,0.1,0.3c0,0.2,0,0.4,0,0.6c0,0.2,0,0.4,0,0.6c0,0.2-0.1,0.3-0.1,0.4
				c0,0.1-0.1,0.2-0.1,0.2c-0.1,0.1-0.1,0.1-0.2,0.1s-0.3,0.1-0.5,0.1c-0.5,0.1-1.1,0.1-1.8,0c-0.7,0-1.3,0-1.8,0.1
				c-0.1,0-0.3,0.1-0.4,0.2c-0.1,0.1-0.2,0.3-0.2,0.5c0,0.2,0,0.4,0,0.6c0,0.2,0.1,0.4,0.1,0.5c0,0.1,0.1,0.1,0.2,0.1
				c0.1,0,0.2,0.1,0.3,0.1c0.5,0.1,1.1,0.2,1.6,0.2c0.6,0.1,1.1,0.1,1.6,0.2c1.4,0.2,2.7,0.5,3.8,0.8c1.1,0.3,2.1,0.7,3,1.3
				c0.9,0.5,1.6,1.2,2.2,2c0.6,0.8,1.2,1.8,1.5,2.9c0.4,1.3,0.3,2.7-0.1,3.9c-0.3,1.2-1,2.3-2,3.3c-0.8,0.8-1.6,1.5-2.5,1.9
				c-0.8,0.5-1.8,0.7-3,0.7c-0.9,0-1.9,0.1-2.8-0.1c-0.9-0.1-1.8-0.2-2.7-0.3c-0.6-0.1-1.2-0.1-1.8-0.2s-1.2-0.2-1.8-0.3
				c-0.2,0-0.4,0-0.4,0c-0.1,0.1-0.2,0.2-0.2,0.4c-0.1,0.3-0.1,0.7-0.2,0.9c0,0.2,0,0.4,0.1,0.6c0.1,0.2,0.2,0.3,0.4,0.4
				c0.2,0.1,0.5,0.3,0.9,0.4c0.4,0.1,0.8,0.2,1.2,0.3c0.4,0.1,0.8,0.2,1.2,0.3c0.3,0.1,0.5,0.3,0.6,0.5c0.1,0.3,0.2,0.5,0.1,0.8
				c0,0.2-0.1,0.5-0.3,0.8c-0.2,0.3-0.4,0.4-0.7,0.5c-0.4,0.1-0.9,0.1-1.3-0.1c-0.4-0.2-0.8-0.3-1.3-0.3c-1.6-0.2-3.2-0.5-4.8-0.8
				c-1.5-0.3-3.1-0.6-4.6-0.8c-0.4-0.1-0.5-0.3-0.4-0.6c0-0.2,0-0.4,0.1-0.6c0-0.2,0-0.4,0.1-0.7c0-0.4,0.3-0.6,0.7-0.6
				c0.4,0,0.8,0,1.2,0c0.4,0,0.8,0.1,1.2,0c0.1,0,0.2,0,0.4,0c0.1,0,0.3,0,0.4,0c0.4,0,0.7-0.1,0.8-0.2c0.1-0.2,0.2-0.5,0.3-0.8
				c0-0.1,0.1-0.3,0.1-0.5c0.1-0.3,0.1-0.5,0-0.5c0-0.1-0.2-0.1-0.6-0.2c-0.6-0.1-1.1-0.2-1.7-0.3c-0.6-0.1-1.2-0.2-1.7-0.3
				c-0.2-0.1-0.5-0.1-0.9-0.1C74,390.1,73.6,390,73.1,389.9z M81.5,378.5c0-0.3,0-0.5,0-0.5c-0.1-0.1-0.2-0.2-0.5-0.2
				c-0.2-0.1-0.6-0.1-1-0.2c-0.4-0.1-0.8-0.2-1.2-0.2c-0.4-0.1-0.8-0.1-1.2-0.2c-0.4-0.1-0.7-0.1-1-0.2c-1.1-0.2-2.1-0.2-3-0.2
				c-0.9,0-1.7,0.1-2.5,0.4c-0.7,0.3-1.3,0.7-1.8,1.3c-0.5,0.6-0.9,1.5-1,2.5c-0.2,1.3,0.3,2.7,1.3,3.7c0.4,0.4,0.9,0.7,1.4,0.9
				c0.4,0.2,0.9,0.4,1.3,0.6c0.4,0.2,0.9,0.3,1.3,0.4c0.5,0.1,0.9,0.2,1.5,0.3c0.6,0.1,1.3,0.3,2,0.4c0.7,0.2,1.4,0.3,2,0.4
				c0.3,0,0.5,0,0.6,0c0.1-0.1,0.2-0.3,0.3-0.5c0.2-0.7,0.2-1.6,0.3-2.3c0.1-0.7,0.2-1.4,0.3-2c0.1-0.6,0.2-1.3,0.4-2
				C81.3,380.1,81.4,379.3,81.5,378.5z M83.7,387.7c-0.1,0.4,0.1,0.6,0.5,0.6c1.2,0.2,2.5,0.3,3.6,0.5c1.2,0.2,2.3,0.3,3.3,0.4
				c0.7,0.1,1.3,0,1.9-0.1c0.7-0.1,1.4-0.4,2-0.8c0.6-0.5,1.1-1,1.5-1.6c0.4-0.7,0.6-1.4,0.5-2.2c0-0.7-0.2-1.4-0.4-2
				c-0.3-0.6-0.6-1.1-1.1-1.6c-0.4-0.4-1-0.6-1.3-0.7c-0.6-0.2-1.5-0.6-2.4-0.8c-0.9-0.2-1.8-0.4-2.5-0.5c-0.5-0.1-1.1-0.2-1.6-0.3
				c-0.6-0.1-1.1-0.2-1.6-0.2c-0.3,0-0.5,0-0.6,0c-0.1,0.1-0.2,0.3-0.2,0.6c-0.2,1.3-0.4,2.8-0.7,4.3
				C84.2,384.8,83.9,386.3,83.7,387.7z"/>
			<path class="st4" d="M112.1,384.8c0.1-0.5,0.1-1,0.1-1.6c0-0.5,0-1,0.1-1.6c0-0.4,0-0.6,0-0.7c0-0.1-0.3-0.2-0.8-0.3
				c-0.5-0.1-1-0.2-1.4-0.3c-0.5-0.1-1-0.3-1.4-0.4c-0.3-0.1-0.4-0.2-0.4-0.5c0-0.3,0-0.5,0-0.8c0-0.3,0-0.5,0.1-0.8
				c0-0.3,0.1-0.5,0.2-0.6c0.1-0.1,0.3-0.2,0.6-0.2c0.1,0,0.1,0,0.2,0c0.1,0,0.1,0,0.2,0c1.5,0.1,3.3,0.1,4.9,0.4
				c1.6,0.3,3.3,0.4,4.9,0.7c0.6,0.1,1.1,0.2,1.7,0.2c0.6,0,1.1,0.1,1.7,0.1c1.3,0.1,2.5,0.3,3.8,0.4c1.3,0.1,2.6,0.3,3.8,0.5
				c1.6,0.4,3.1,1,4.2,1.8c1.2,0.8,2.1,1.9,2.6,3.4c0.2,0.7,0.3,1.5,0.3,2.3c0,0.8-0.1,1.6-0.3,2.3c-0.2,0.8-0.6,1.5-1.1,2.1
				c-0.5,0.6-1.1,1.2-1.8,1.6c-1.3,0.8-2.6,1.3-4,1.4c-1.4,0.1-2.8,0.1-4.2,0c-0.6-0.1-1.2-0.1-1.8-0.1c-0.6,0-1.2-0.1-1.8-0.2
				c-0.5-0.1-1.1-0.1-1.7-0.2c-0.6-0.1-1.1-0.1-1.7-0.2c-0.5-0.1-1-0.1-1.5-0.2c-0.5-0.1-1-0.1-1.4-0.2c-0.1,0-0.2,0-0.3,0
				c-0.1,0-0.2,0-0.3,0c-0.4,0-0.5,0.2-0.6,0.5c0,0.6-0.1,1.2-0.1,1.7c-0.1,0.6-0.1,1.1-0.1,1.7c0,0.3,0.1,0.5,0.2,0.6
				c0.2,0.2,0.4,0.3,0.6,0.4c0.5,0.1,1,0.3,1.4,0.6c0.4,0.3,0.9,0.5,1.4,0.7c0.4,0.1,0.5,0.4,0.5,0.8c0,0.2,0,0.4-0.1,0.5
				c0,0.2,0,0.4,0,0.5c0,0.2-0.1,0.3-0.2,0.4c-0.1,0.1-0.3,0.1-0.4,0.1c-0.4,0-0.9-0.1-1.3-0.1c-0.4,0-0.9-0.1-1.3-0.1
				c-0.6,0-1.1-0.1-1.7-0.2c-0.6,0-1.1-0.1-1.7-0.1c-0.6,0-1.2-0.1-1.9-0.2c-0.6-0.1-1.2-0.1-1.9-0.2c-0.3,0-0.7-0.1-1-0.1
				c-0.3,0-0.7-0.1-1-0.1c-0.3-0.1-0.5-0.1-0.6-0.2c-0.1-0.1-0.1-0.3-0.2-0.5c0-0.1,0-0.2,0-0.4c0-0.1,0-0.3,0-0.4
				c0.1-0.6,0.4-1,1-1.1c0.5-0.1,1-0.2,1.5-0.3c0.5-0.1,1-0.2,1.5-0.3c0.2,0,0.3,0,0.4-0.1c0.1,0,0.2-0.1,0.3-0.1
				c0.1-0.1,0.1-0.1,0.1-0.2c0-0.1,0-0.2,0.1-0.4c0.1-1.1,0.2-2.2,0.4-3.3c0.1-1,0.3-2,0.4-3c0.2-0.9,0.3-1.9,0.4-2.8
				C111.9,386.6,112,385.7,112.1,384.8z M126.7,391c0.5,0,1,0,1.5,0c0.5,0,1-0.1,1.5-0.1c0.8-0.1,1.4-0.3,2-0.7
				c0.5-0.3,1-0.9,1.5-1.5c0.3-0.4,0.5-0.7,0.6-1.1c0.1-0.4,0.1-0.8-0.2-1.2c-0.1-0.2-0.2-0.3-0.3-0.5c-0.1-0.2-0.2-0.3-0.3-0.5
				c-0.1-0.2-0.2-0.4-0.3-0.6c-0.1-0.2-0.3-0.4-0.4-0.5c-0.4-0.4-0.9-0.7-1.4-0.9c-0.5-0.2-1-0.4-1.6-0.5c-0.7-0.1-1.4-0.2-2.1-0.3
				c-0.7-0.1-1.4-0.2-2.1-0.3c-0.3-0.1-0.6-0.1-1-0.1c-0.3,0-0.7-0.1-1-0.1c-0.6,0-1.2-0.1-1.8-0.1c-0.6,0-1.2-0.1-1.7-0.1
				c-0.3,0-0.7,0-1,0c-0.3,0-0.7,0-1-0.1c-0.1,0-0.3-0.1-0.4-0.1c-0.2,0-0.3,0-0.5,0.1c-0.1,0-0.1,0.1-0.2,0.1
				c-0.1,0.1-0.1,0.1-0.1,0.2c-0.1,0.6-0.3,1.3-0.3,1.9c-0.1,0.8-0.2,1.6-0.2,2.4c-0.1,0.8-0.1,1.6-0.2,2.4c0,0.4,0,0.7,0,0.8
				c0.1,0.1,0.3,0.2,0.8,0.3c0.3,0,0.5,0.1,0.8,0.1c1.3,0.2,2.4,0.3,3.4,0.4c0.9,0.1,1.8,0.2,2.5,0.3c0.7,0.1,1.4,0.2,2,0.2
				C125.6,390.8,126.2,390.9,126.7,391z"/>
			<path class="st4" d="M160.2,405.5c-0.2,0-0.4-0.1-0.7-0.1c-0.2,0-0.5-0.1-0.7-0.1c-0.8-0.1-1.5-0.2-2.3-0.3
				c-0.7-0.1-1.5-0.2-2.3-0.3c-0.8-0.2-1.6-0.5-2.5-0.8s-1.6-0.7-2.4-1.1c-0.7-0.4-1.4-0.9-2.1-1.5c-0.6-0.5-1.2-1.1-1.6-1.8
				c-0.3-0.5-0.6-1-0.9-1.6c-0.3-0.5-0.6-1.1-0.8-1.6c-0.3-0.7-0.5-1.6-0.5-2.5c-0.1-0.9,0-1.8,0.1-2.7c0.2-0.9,0.4-1.7,0.8-2.5
				c0.4-0.8,0.8-1.6,1.4-2.2c0.9-1,1.8-1.8,2.6-2.4c0.8-0.6,1.6-1.2,2.4-1.6c0.8-0.4,1.7-0.8,2.7-1.1c1-0.3,2.1-0.6,3.3-0.9
				c0.1,0,0.3-0.1,0.4-0.1c0.2,0,0.3,0,0.5,0c0.4,0,0.9-0.1,1.3-0.1c0.4,0,0.9,0,1.3-0.1c0.5,0,1,0,1.3,0.1c1.1,0.2,2.2,0.4,3.2,0.6
				c1,0.2,2,0.5,2.9,0.8c0.9,0.3,1.7,0.6,2.5,1c0.8,0.4,1.4,0.8,2.1,1.3c1.2,1,2.2,2.2,2.9,3.6c0.3,0.7,0.6,1.5,0.8,2.4
				c0.2,0.9,0.3,1.9,0.4,2.9c0,1.2-0.1,2.3-0.3,3.3c-0.2,1-0.6,1.9-1,2.6c-0.4,0.8-0.8,1.4-1.3,2c-0.5,0.5-0.9,1-1.3,1.3
				c-0.2,0.1-0.3,0.3-0.5,0.4c-0.2,0.1-0.4,0.2-0.5,0.3c-0.4,0.2-0.9,0.5-1.3,0.7c-0.4,0.2-0.9,0.4-1.3,0.6c-0.9,0.4-2,0.7-3,0.9
				c-1,0.2-2.1,0.3-3.1,0.3c-0.4,0-0.9,0.1-1.3,0.1C161.1,405.5,160.6,405.5,160.2,405.5z M161.7,384.2c-0.2,0-0.6,0.1-1.1,0.1
				c-0.5,0-1,0-1.5,0.1c-0.7,0.1-1.4,0.2-1.9,0.3c-0.5,0.1-1,0.2-1.5,0.3c-0.4,0.1-0.8,0.2-1.2,0.4c-0.3,0.1-0.7,0.3-1,0.4
				c-0.3,0.1-0.5,0.2-0.8,0.3c-0.3,0.1-0.5,0.2-0.8,0.4c-0.2,0.1-0.5,0.3-0.7,0.4c-0.2,0.1-0.5,0.3-0.7,0.5
				c-0.4,0.3-0.8,0.8-1.1,1.3c-0.3,0.5-0.6,1.1-0.9,1.5c-0.5,1-0.7,2-0.6,3c0.1,1,0.3,2,0.6,3c0.1,0.3,0.3,0.6,0.5,0.9
				c0.3,0.3,0.6,0.6,0.9,0.9c0.3,0.3,0.7,0.6,1.1,0.8c0.4,0.2,0.7,0.4,0.9,0.5c0.5,0.2,1.1,0.5,1.9,0.7s1.5,0.4,2.3,0.6
				c0.8,0.2,1.6,0.3,2.4,0.5c0.8,0.1,1.5,0.2,2.2,0.1c0.6,0,1.1,0,1.6,0c0.5,0,1,0,1.4-0.1c0.5,0,0.9-0.1,1.3-0.2
				c0.4-0.1,0.9-0.2,1.4-0.3c0.7-0.2,1.5-0.6,2.2-1.1s1.4-1,2-1.6c0.6-0.6,1-1.2,1.3-1.9c0.3-0.7,0.4-1.5,0.4-2.2c0-0.2,0-0.5,0-0.7
				c0-0.2,0-0.4-0.1-0.7c-0.2-1.2-0.4-2.3-0.8-3.1c-0.4-0.8-0.9-1.5-1.5-2.1c-0.6-0.6-1.2-1.1-1.9-1.5c-0.7-0.4-1.5-0.7-2.2-1.1
				c-0.6-0.2-1.2-0.4-1.9-0.4C163.3,384.4,162.5,384.2,161.7,384.2z"/>
			<path class="st4" d="M211.1,380.5c0.6,0,1.2,0,1.8,0c0.4,0,0.6,0.2,0.7,0.6c0,0.1,0,0.3,0.1,0.4c0,0.1,0,0.3,0,0.4
				c0,0.3,0,0.6-0.1,0.6c-0.1,0.1-0.3,0.2-0.6,0.3c-0.5,0.2-1,0.3-1.5,0.5c-0.5,0.1-1,0.3-1.5,0.4c-0.4,0.1-0.6,0.2-0.7,0.3
				s-0.1,0.3-0.1,0.7c0.1,1,0.1,2.1,0.2,3.1c0.1,1,0.1,2,0.1,3c0,1,0,1.9,0.1,2.9c0,1,0,1.9,0.1,2.9c0,0.6,0.1,1.3,0.1,1.9
				c0.1,0.6,0.1,1.2,0.2,1.8c0,0.3,0.1,0.4,0.2,0.5c0.1,0.1,0.3,0.1,0.6,0.1c0.2,0,0.4,0,0.7,0c0.2,0,0.5,0,0.7-0.1
				c0.4-0.1,0.9-0.2,1.3-0.1c0.4,0,0.8,0,1.2,0c0.4,0,0.6,0.2,0.6,0.5c0,0.3,0.1,0.6,0.1,0.9c0,0.3,0.1,0.6,0.1,0.9
				c0.1,0.5,0.1,1,0.1,1.6c0,0.5,0.1,1,0.1,1.6c0,0.3,0,0.7,0.1,1c0,0.4,0,0.7,0,1c0,0.6-0.3,0.9-0.9,1c-0.4,0.1-0.8,0.1-1.2,0.1
				c-0.6,0-0.9-0.3-1-0.8c-0.1-0.4-0.1-0.8-0.2-1.1c-0.1-0.4-0.2-0.8-0.3-1.1c-0.1-0.2-0.1-0.4-0.2-0.6c0-0.2-0.1-0.4-0.2-0.6
				c-0.1-0.3-0.2-0.5-0.3-0.6c-0.1-0.1-0.3-0.1-0.6-0.1c-0.1,0-0.2,0-0.3,0c-0.1,0-0.2,0-0.3,0c-0.7,0.1-1.5,0.2-2.3,0.3
				c-0.8,0.1-1.6,0.2-2.4,0.2c-0.6,0.1-1.2,0.1-1.8,0.1c-0.6,0-1.2,0-1.8,0c-1.6,0-3.3,0-5,0.1c-1.7,0-3.3,0-5,0.1c-1,0-2,0-3,0.1
				c-1,0-2,0.1-3,0.1c-0.5,0-0.7,0.1-0.9,0.2c-0.1,0.1-0.2,0.4-0.2,0.8c-0.1,0.6-0.2,1.1-0.2,1.7c-0.1,0.6-0.2,1.1-0.3,1.7
				c-0.1,0.3-0.1,0.5-0.2,0.6c-0.1,0.1-0.3,0.1-0.7,0.1c-0.1,0-0.3,0-0.4,0c-0.1,0-0.3,0-0.4,0c-0.5,0-0.9-0.3-1-0.8
				c-0.1-0.5-0.1-1.1-0.2-1.6c-0.1-0.5-0.1-1.1,0-1.6c0.1-0.6,0.1-1.3,0-1.9c-0.1-0.6-0.1-1.2-0.1-1.8c0-0.4,0.1-0.6,0.1-0.7
				c0.1-0.1,0.3-0.2,0.7-0.3c0.3-0.1,0.6-0.1,0.8-0.2c0.3,0,0.6,0,0.8,0c0.1,0,0.3,0.1,0.5,0c0.2,0,0.3,0,0.5,0
				c0.5,0.1,0.9-0.1,1.1-0.6c0.3-0.6,0.7-1.3,1-2c0.4-0.6,0.7-1.3,1-2c0.5-1.2,1-2.4,1.4-3.6c0.4-1.2,0.7-2.5,0.9-3.7
				c0.1-0.8,0.2-1.5,0.2-2.3c0-0.8,0-1.5,0-2.3c0-0.4-0.2-0.6-0.6-0.6c-0.5,0-0.9-0.1-1.4-0.2c-0.5-0.1-1-0.1-1.5-0.2
				c-0.3,0-0.6-0.1-0.7-0.2s-0.2-0.4-0.4-0.8c0-0.1-0.1-0.2-0.1-0.3c0-0.1,0-0.2,0-0.3c0-0.2,0-0.4,0-0.5c0-0.1,0-0.2,0.1-0.3
				c0.1-0.1,0.1-0.1,0.3-0.1c0.1,0,0.3,0,0.5-0.1c0.5-0.1,1.1-0.1,1.6-0.1c0.5,0,1.1-0.1,1.6-0.1c1.1,0,2.3,0,3.5,0
				c1.2,0,2.3,0,3.5,0c1.2,0,2.3,0,3.5,0c1.2,0,2.3-0.1,3.5-0.1c1.2,0,2.3-0.1,3.5-0.1C208.7,380.6,209.9,380.5,211.1,380.5z
				 M205.7,392.2C205.8,392.2,205.8,392.2,205.7,392.2c0-1.1,0-1.7-0.1-2.8c0-0.7-0.1-1.4-0.1-2.1c0-0.7-0.1-1.4-0.1-2.1
				c0-0.4-0.1-0.6-0.2-0.7c-0.1-0.1-0.3-0.1-0.6-0.1c-0.9,0-1.9-0.1-2.8-0.1c-0.9,0-1.9,0.1-2.8,0.2c-0.5,0.1-1.1,0.1-1.6,0.1
				c-0.5,0-1.1,0-1.6,0c-0.1,0-0.2,0-0.4,0c-0.1,0-0.3,0-0.4,0c-0.2,0-0.4,0-0.4,0.1c-0.1,0.1-0.1,0.3-0.2,0.5
				c-0.1,0.8-0.2,1.6-0.2,2.4c-0.1,0.8-0.2,1.6-0.4,2.4c-0.3,1.2-0.6,2.5-0.9,3.7c-0.3,1.2-0.7,2.5-1.2,3.7c-0.2,0.5-0.4,1-0.6,1.7
				c-0.2,0.6-0.4,1.2-0.7,1.7c-0.1,0.2-0.1,0.3-0.1,0.4c0,0.1,0.2,0.1,0.5,0.1c0.8,0,1.7,0,2.5-0.1c0.8,0,1.7-0.1,2.5-0.1
				c1.7,0,3.4,0,5-0.1c1.6-0.1,3.3-0.2,4.9-0.2c0.3,0,0.5,0,0.5-0.1c0.1-0.1,0.1-0.2,0-0.5c-0.1-1.3-0.2-2.7-0.3-4
				C205.9,394.9,205.8,393.6,205.7,392.2z"/>
			<path class="st4" d="M255.6,396.7c0.5,0.4,3.3,0.2,4.9,0.3c0.1,1,0.2,1.5,0.3,2.6c-1.6,0.3-3.2,0.5-4.7,0.7
				c-1.1,0.2-2.2,0.4-3.4,0.5c-1.1,0.2-2.3,0.3-3.4,0.5c-0.3,0-0.6,0.1-0.9,0.1c-0.3,0-0.9,0-1,0c-0.1-0.1-0.2-0.7-0.3-1.1
				c-0.1-0.4-0.3-1-0.3-1.1c0.1-0.3,1.6-0.6,2.3-0.9c0.8-0.3,2.2-0.7,2.4-1c0.3-0.5-0.3-2.6-0.5-3.9c-0.1-1.3-0.3-2.6-0.4-3.9
				c-0.1-1.3-0.3-2.6-0.5-3.8c-0.2-1.3-0.7-3.9-0.7-3.9c0,0-0.3,0.2-0.4,0.3c-0.1,0.1-0.2,0.2-0.3,0.3c-0.2,0.3-0.5,0.7-0.7,1
				c-0.3,0.4-0.6,0.8-1,1.4c-0.4,0.6-0.9,1.3-1.5,2.2c-0.6,0.9-1.4,2-2.4,3.3c-0.5,0.7-1,1.4-1.6,2.2c-0.6,0.8-1.2,1.7-1.9,2.6
				c-0.7,0.9-1.4,1.9-2.2,3c-0.8,1.1-1.7,2.3-2.7,3.6c-0.3,0.4-0.6,0.7-0.9,0.9s-0.8,0.4-1.3,0.5c-1.3,0.1-2.7,0.2-4,0.4
				c-1.3,0.1-2.7,0.3-4,0.4c-0.1,0-0.3,0-0.4-0.1c-0.1,0-0.4-0.1-0.4-0.1c-0.2-0.1-0.3-0.7-0.4-1.1c-0.1-0.4-0.1-1.1,0.1-1.2
				c0.3-0.3,1.4-0.4,2.1-0.6c0.7-0.2,2.1-0.4,2.2-0.7c0.1-0.1,0-0.7,0-1c0-0.3,0-0.7-0.1-1c-0.1-1-0.2-2.1-0.3-3.2
				c-0.1-1.1-0.2-2.1-0.3-3.2c-0.1-1.1-0.2-2.1-0.3-3.2c-0.1-1.1-0.2-2.1-0.3-3.2c0-0.2,0-0.3,0-0.4c0-0.1,0-0.3,0-0.4
				c-0.1-0.3-0.1-0.6-0.2-0.8c0-0.2-0.1-0.3-0.2-0.4c-0.1-0.1-0.2-0.2-0.4-0.2c-0.2-0.1-0.5-0.1-0.8-0.2c-0.6-0.1-1.2-0.2-1.8-0.3
				c-0.6-0.1-1.7-0.2-1.9-0.4c-0.1-0.1,0-0.7,0-1c0-0.4-0.1-1.1,0-1.2c0.2-0.3,2.2-0.2,3.3-0.3c1.1-0.1,2.2-0.2,3.2-0.3
				c1.1-0.1,2.1-0.2,3.2-0.3c1.1-0.1,2.9-0.5,3.2-0.3c0.1,0,0.1,0.4,0.1,0.5c0,0.2,0.1,0.3,0.1,0.5c0,0.2,0.1,0.3,0.1,0.5
				c0,0.2,0.1,0.4,0.1,0.5c0,0.2-0.2,0.4-0.4,0.5c-0.2,0.1-0.3,0.2-0.5,0.3c-0.2,0.1-0.4,0.1-0.6,0.2c-0.2,0-0.4,0.1-0.5,0.2
				c-0.3,0.2-0.6,0.4-1,0.5c-0.4,0.1-1,0.3-1.1,0.4c-0.3,0.5,0.2,2.7,0.3,4c0.1,1.3,0.2,2.7,0.3,4.1c0.1,1.4,0.2,2.7,0.3,4.1
				c0.1,1.4,0.3,4.2,0.3,4.2c0.1,0,0.9-1,1.3-1.5c0.4-0.4,0.8-0.9,1.1-1.3c0.7-0.9,1.5-1.9,2.2-2.8c0.7-1,1.5-1.9,2.2-3
				c0.7-1,1.4-2,2.2-3.1c0.7-1,1.4-2.1,2.2-3.1c0.7-1.1,1.5-2.1,2.2-3.2c0.7-1.1,1.5-2.1,2.2-3.2c0.2-0.3,0.5-0.6,0.8-0.7
				c0.3-0.1,0.6-0.2,1-0.2c0.8-0.1,1.7-0.2,2.5-0.4c0.8-0.1,1.7-0.2,2.5-0.3c0.5-0.1,1.1-0.1,1.6-0.2c0.5,0,1.3-0.2,1.6-0.1
				c0.3,0.1,0.6,0.8,0.6,1.2c0,0.4,0,1.1-0.2,1.3c-0.2,0.3-1.2,0.4-1.9,0.7c-0.6,0.2-1.6,0.4-1.9,0.7c-0.2,0.2-0.3,1-0.3,1.5
				c0,0.5,0.1,1,0.1,1.5c0.2,1.2,0.3,2.4,0.5,3.6c0.1,1.2,0.3,2.4,0.5,3.6c0.1,1.1,0.3,2.2,0.5,3.2
				C255.2,394.5,255.3,396.4,255.6,396.7z"/>
			<path class="st4" d="M284.4,396c-1.9,0.3-2.9,0.5-4.8,0.8c-0.3,0.1-0.6,0.1-0.9,0.2c-0.3,0.1-0.6,0.1-0.9,0.2
				c-0.3,0.1-0.6,0.1-0.7,0.1c-0.1-0.1-0.3-0.3-0.3-0.6c-0.1-0.6-0.1-0.8-0.2-1.4c-0.1-0.4,0.1-0.6,0.5-0.7c0.6-0.2,1.3-0.4,1.9-0.6
				c0.6-0.2,1.3-0.4,1.9-0.7c0.2-0.1,0.3-0.1,0.5-0.2c0.2-0.1,0.4-0.2,0.4-0.3c0-0.1,0-0.3,0-0.6c-0.1-1.2-0.4-2.5-0.5-3.7
				c-0.2-1.2-0.4-2.4-0.6-3.6c-0.2-1.2-0.4-2.4-0.6-3.5c-0.2-1.2-0.4-2.4-0.7-3.6c0-0.1,0-0.1,0-0.2c-0.1-0.4-0.2-0.7-0.3-1
				c-0.1-0.2-0.1-0.4-0.3-0.4c-0.1-0.1-0.3-0.1-0.6,0c-0.3,0-0.7,0.1-1.1,0.2c-0.2,0-0.5,0.1-0.7,0.1c-0.2,0.1-0.5,0.1-0.7,0.2
				c-1,0.2-2.1,0.4-3.1,0.6c-1,0.2-2.1,0.4-3.1,0.6c-0.3,0.1-0.5,0.1-0.6,0.2c-0.1,0.1-0.1,0.3-0.2,0.6c-0.1,0.9-0.1,1.3-0.2,2.2
				c0,0.4-0.1,0.6-0.2,0.7c-0.1,0.1-0.3,0.2-0.7,0.3c-0.2,0-0.4,0.1-0.6,0.1c-0.2,0-0.4,0-0.6,0c-0.4,0-0.7-0.2-0.8-0.6
				c0,0,0-0.1,0-0.1c-0.2-0.8-0.3-1.7-0.5-2.5c-0.2-0.8-0.3-1.7-0.5-2.5c-0.1-0.3-0.1-0.6-0.1-0.7c0-0.2,0-0.3,0.1-0.4
				c0.1-0.1,0.2-0.2,0.4-0.2c0.2,0,0.4-0.1,0.8-0.1c0.6-0.1,1.2-0.2,1.9-0.4s1.2-0.2,1.8-0.3c1.5-0.2,2.9-0.4,4.4-0.6
				c1.4-0.2,2.9-0.5,4.2-0.7s2.8-0.5,4.2-0.7c1.4-0.2,2.8-0.5,4.2-0.7c1-0.2,2.1-0.4,3.1-0.6c1-0.2,2.1-0.4,3.1-0.6
				c0.4-0.1,0.8-0.1,1.2-0.1c0.4,0,0.8-0.1,1.2-0.1c0.1,0,0.3,0,0.4,0.1c0.1,0,0.2,0.2,0.1,0.3c0,0.6,0,1.2,0.2,1.7
				c0.2,0.5,0.3,1.1,0.4,1.7c0.1,0.3,0.1,0.6,0.2,0.9c0.1,0.3,0.1,0.6,0.2,0.9c0,0.2,0,0.4-0.1,0.5c-0.1,0.1-0.2,0.1-0.5,0.2
				c-0.4,0.1-0.8,0.2-1.2,0.3c-0.3,0.1-0.6,0-0.8-0.3c-0.1-0.2-0.3-0.4-0.4-0.6c-0.1-0.2-0.3-0.4-0.4-0.7c0-0.1-0.1-0.2-0.1-0.3
				c0-0.1-0.1-0.2-0.1-0.3c-0.2-0.3-0.4-0.5-0.5-0.6c-0.1,0-0.4,0-0.8,0.1c-1,0.2-1.9,0.3-2.8,0.5c-0.9,0.2-1.9,0.4-2.8,0.5
				c-0.5,0.1-0.9,0.1-1.4,0.2c-0.5,0.1-0.9,0.1-1.4,0.2c-0.3,0-0.4,0.1-0.5,0.2c-0.1,0.1-0.1,0.3,0,0.5c0.3,1.5,0.5,2.9,0.7,4.2
				c0.2,1.3,0.4,2.6,0.7,3.8c0.2,1.2,0.4,2.5,0.7,3.7c0.2,1.2,0.5,2.5,0.6,3.8c0,0.4,0.2,0.5,0.6,0.5c0.8-0.1,1.6,0,2.3,0.1
				s1.5,0.1,2.4-0.1c0.4-0.1,0.5,0.1,0.6,0.4c0,0.1,0.1,0.3,0.1,0.5c0.1,0.4,0.1,0.6,0.1,0.8s0,0.4-0.1,0.5
				c-0.1,0.1-0.2,0.2-0.4,0.3c-0.2,0.1-0.5,0.1-0.9,0.2c-0.5,0.1-0.9,0.2-1.4,0.3c-0.5,0.1-1,0.2-1.4,0.3c-0.5,0.1-1,0.2-1.4,0.3
				C285.5,395.8,284.9,395.9,284.4,396z"/>
			<path class="st4" d="M309.3,369.9c-0.1-0.1-1.2,0.1-1.7,0.2c-0.5,0-1.1,0.1-1.6,0.1c-0.1,0-0.2,0-0.3,0.1c-0.1,0-0.2,0-0.3,0.1
				c-0.3,0-0.6,0-0.7-0.1c-0.1-0.1-0.3-0.3-0.3-0.6c-0.1-0.3-0.1-0.5-0.2-0.8c-0.1-0.3-0.1-0.5-0.2-0.8c-0.1-0.2,0.1-0.4,0.4-0.5
				c1.1-0.3,2.3-0.5,3.5-0.7c1.2-0.2,2.3-0.5,3.4-0.8c0.6-0.2,1.2-0.4,1.9-0.5c0.6-0.1,1.2-0.3,1.8-0.4c0.5-0.1,1.1-0.2,1.6-0.3
				c0.5-0.1,1.1-0.2,1.6-0.3c1.1-0.3,2.2-0.6,3.2-0.9c1.1-0.3,2.2-0.6,3.2-0.9c0.2,0,0.4-0.1,0.6-0.2c0.3-0.2,0.4-0.2,0.5-0.2
				c0.1,0,0.2,0.2,0.2,0.4c0.1,0.3,0.1,0.6,0.2,0.9c0.1,0.3,0.1,0.6,0.2,0.9c0,0.2-0.1,0.4-0.4,0.5c-0.4,0.2-0.7,0.3-1.1,0.5
				c-0.3,0.2-0.7,0.4-1.1,0.5c-0.1,0.1-0.2,0.1-0.3,0.1c-0.1,0-0.2,0.1-0.3,0.2c-0.1,0.1-0.3,0.2-0.5,0.3c-0.2,0.1-0.3,0.2-0.4,0.3
				c0,0.1,0,0.2,0.1,0.3c0.1,0.1,0.2,0.3,0.3,0.4c0.1,0.1,0.2,0.2,0.2,0.4c0.1,0.1,0.1,0.3,0.2,0.4c0.2,0.3,0.3,0.5,0.5,0.8
				c0.2,0.3,0.3,0.5,0.5,0.7c0.2,0.3,0.4,0.6,0.6,0.8c0.2,0.3,0.4,0.5,0.5,0.8c0.3,0.4,0.6,0.8,0.9,1.3c0.3,0.4,0.7,0.8,1,1.2
				c0.8,0.9,1.5,1.8,2.2,2.8c0.7,0.9,1.3,2,1.9,2.9c0.2,0.3,0.3,0.5,0.5,0.8c0.2,0.2,0.4,0.5,0.5,0.8c0.3,0.5,0.8,0.7,1.4,0.6
				c0.2,0,0.4-0.1,0.7-0.1c0.2,0,0.5-0.1,0.7-0.1c0.3-0.1,0.7-0.1,1-0.2c0.3-0.1,0.7-0.1,1-0.2c0.1,0,0.2,0,0.3,0s0.2,0.1,0.3,0.2
				c0.2,0.2,0.3,0.5,0.4,0.7c0.1,0.3,0.2,0.5,0.3,0.8c0.1,0.2,0,0.5-0.1,0.7c-0.1,0.2-0.3,0.4-0.6,0.5c-0.1,0.1-0.2,0.1-0.3,0.2
				c-0.1,0-0.3,0.1-0.4,0.1c-0.7,0.2-1.3,0.5-2,0.7c-0.7,0.2-1.4,0.4-2.1,0.6c-0.4,0.1-0.8,0.2-1.2,0.3c-0.4,0.1-0.9,0.2-1.3,0.3
				c-0.7,0.2-1.4,0.4-2.1,0.6c-0.7,0.2-1.4,0.4-2.1,0.6c-0.5,0.2-1,0.1-1.2-0.2c-0.1-0.2-0.3-0.4-0.4-0.5c-0.1-0.2-0.2-0.4-0.3-0.6
				c-0.1-0.4-0.2-0.6-0.1-0.8c0.1-0.2,0.4-0.3,0.7-0.5c0.2-0.1,0.4-0.2,0.5-0.3c0.2-0.1,0.4-0.2,0.5-0.3c0.3-0.1,0.5-0.3,0.8-0.4
				c0.3-0.1,0.6-0.3,0.8-0.4c0.2-0.1,0.3-0.2,0.5-0.2c0.2-0.1,0.3-0.1,0.5-0.2c0.3-0.1,0.4-0.3,0.4-0.5c0-0.1,0-0.3-0.2-0.5
				c-0.4-0.5-0.7-1-1.1-1.5c-0.4-0.5-0.7-1-1.1-1.5c-0.2-0.3-0.5-0.3-0.8-0.3c-0.3,0.1-0.6,0.2-0.9,0.2c-0.3,0.1-0.6,0.2-0.9,0.2
				c-0.4,0.1-0.9,0.3-1.4,0.4c-0.5,0.1-0.9,0.3-1.4,0.4c-1.3,0.4-2.7,0.7-4,1c-1.3,0.3-2.7,0.6-4,0.9c-0.3,0.1-0.7,0.2-1,0.3
				c-0.3,0.1-0.7,0.2-1,0.3c-0.3,0.1-0.5,0.3-0.6,0.7c-0.1,0.5-0.2,1.1-0.2,1.7c-0.1,0.6-0.1,1.2-0.2,1.7c-0.1,0.4,0.1,0.5,0.5,0.5
				c0.6-0.1,1.2-0.1,1.8-0.1c0.6-0.1,1.2-0.1,1.8-0.2c0.3,0,0.5,0.1,0.6,0.3c0.1,0.2,0.2,0.5,0.2,0.7c0.1,0.2,0.1,0.4,0.2,0.7
				c0.1,0.4,0.1,0.7,0,0.8c-0.1,0.1-0.3,0.3-0.7,0.4c-0.3,0.1-0.7,0.2-1,0.3c-0.3,0.1-0.7,0.2-1,0.3c-1.3,0.3-2.7,0.8-4.3,1.2
				c-1.6,0.4-3.3,0.6-4.6,0.9c-0.6,0.1-1.2,0-1.4-0.5c-0.1-0.2-0.2-0.4-0.2-0.7c-0.1-0.2-0.1-0.5-0.2-0.7c0-0.1,0-0.1,0.1-0.2
				s0.1-0.2,0.2-0.2c0.2-0.2,0.6-0.4,0.9-0.5c0.3-0.2,0.6-0.3,0.9-0.5c0.3-0.2,0.6-0.4,0.9-0.6c0.3-0.2,0.6-0.5,0.8-0.8
				c0.4-0.4,0.9-0.9,1-1.5c0.1-0.9,0.3-1.7,0.4-2.6c0.1-0.9,0.3-1.7,0.4-2.6c0.1-0.6,0.2-1.2,0.3-1.7c0.1-0.6,0.2-1.2,0.2-1.7
				c0.1-0.6,0.2-1.2,0.3-1.9c0.1-0.7,0.1-1.3,0.2-2c0.1-0.7,0.2-1.3,0.3-1.9C309,371,309.3,369.9,309.3,369.9z M320.8,377
				c0.5-0.1,1-0.3,1.5-0.4c0.5-0.1,1-0.3,1.5-0.4c0.3-0.1,0.4-0.3,0.2-0.5c0,0-0.1-0.1-0.2-0.2c-0.7-1.1-1.5-2.1-2.3-3.2
				c-0.7-1-1.5-2.1-2.2-3.2c-0.1-0.1-0.1-0.2-0.2-0.3c-0.1-0.1-0.1-0.2-0.2-0.3c-0.2-0.3-0.6-0.4-1-0.3c-0.8,0.2-1.6,0.5-2.3,0.7
				c-0.8,0.2-1.6,0.4-2.3,0.6c-0.4,0.1-0.6,0.4-0.6,0.7c0,0.3-0.1,0.7-0.1,1.1c0,0.4-0.1,0.7-0.1,1c-0.1,1-0.3,1.9-0.4,2.9
				c-0.2,1-0.3,2-0.4,2.9c0,0.3-0.1,0.6-0.1,0.8c0,0.3,0,0.4,0.1,0.5c0.1,0.1,0.3,0.1,0.6,0c1.7-0.5,3.3-0.9,4.6-1.3
				C318.1,377.7,319.5,377.3,320.8,377z"/>
		</g>
	</g>
</g>
</svg>
