<?xml version="1.0" encoding="utf-8"?>
<!-- Generator: Adobe Illustrator 22.0.1, SVG Export Plug-In . SVG Version: 6.00 Build 0)  -->
<svg version="1.1" id="Capa_1" xmlns="http://www.w3.org/2000/svg" xmlns:xlink="http://www.w3.org/1999/xlink" x="0px" y="0px"
	 viewBox="0 0 512 512" style="enable-background:new 0 0 512 512;" xml:space="preserve">
<style type="text/css">
	.st0{fill:#FFFFFF;}
</style>
<path class="st0" d="M256,469.3c106,0,192-86,192-192C342,277.3,256,363.3,256,469.3z M119.6,218.7c0,29.4,23.9,53.3,53.3,53.3
	c11.2,0,21.7-3.5,30.2-9.4l-0.4,4.1c0,29.4,23.9,53.3,53.3,53.3s53.3-23.9,53.3-53.3l-0.4-4.1c8.6,6,19,9.4,30.2,9.4
	c29.4,0,53.3-23.9,53.3-53.3c0-21.2-12.5-39.5-30.5-48c17.9-8.5,30.5-26.8,30.5-48c0-29.4-23.9-53.3-53.3-53.3
	c-11.2,0-21.7,3.5-30.2,9.4l0.4-4.1c0-29.4-23.9-53.3-53.3-53.3s-53.3,23.9-53.3,53.3l0.4,4.1c-8.6-6-19-9.4-30.2-9.4
	c-29.4,0-53.3,23.9-53.3,53.3c0,21.2,12.5,39.5,30.5,48C132.1,179.2,119.6,197.4,119.6,218.7L119.6,218.7z M256,117.3
	c29.4,0,53.3,23.9,53.3,53.3c0,29.4-23.9,53.3-53.3,53.3s-53.3-23.9-53.3-53.3C202.7,141.2,226.6,117.3,256,117.3z M64,277.3
	c0,106,86,192,192,192C256,363.3,170,277.3,64,277.3z"/>
</svg>
