<?xml version="1.0"?>
<!--Icons from directory ""-->
<svg xmlns="http://www.w3.org/2000/svg" width="20" height="140" viewBox="0 0 20 140"><svg viewBox="0 0 277.2 212.9" width="20" height="20" id="main-icon-hover" y="0"><path d="M148.6 125c-5.1 25.1-10.2 50.1-15.4 75.2-.3 1.3-.5 2.6-.9 3.9-1.4 5.5-5.6 8.9-10.6 8.8-5.1-.1-9.2-3.6-10.4-9.2-3.1-14.8-6-29.7-9-44.5-6-30.2-12.1-60.4-18.2-90.5-.2-1.1-.7-2.2-1.3-4.4-4.3 20.3-8.4 39.4-12.5 58.5-1 4.7-1.9 9.5-3 14.2-1.3 5.5-4.9 8.8-10.6 8.9-15.3.2-30.7.2-46 0-6.5-.3-10.8-4.9-10.7-11 .1-6.1 4.3-10.4 10.9-10.5 10.3-.2 20.7-.1 31-.1H48c2-9.3 4.1-18.5 6-27.7l18.3-86.4C73.8 3.5 77.8-.1 83.5 0c5.7.1 9.5 4.4 10.9 11.1 9 44.9 18.1 89.7 27.2 134.5 0 .1.2.2.8.9 1.6-7.7 3.2-14.9 4.7-22.2 2.5-12.1 4.9-24.1 7.3-36.2 1.2-6.1 4.5-9.6 9.5-10.1 5.3-.6 9.4 2 12 7.8 5.1 11.4 10.2 22.8 15 34.3 1.4 3.3 3.1 4.4 6.6 4.4 28.3-.1 56.7-.1 85-.1 9.7 0 14.9 3.8 14.7 10.9-.1 6.9-5.1 10.6-14.6 10.6-31.3 0-62.7-.1-94 .1-6.7 0-11.1-2.4-13.5-8.8-1.6-4.2-3.6-8.1-5.5-12.2-.3-.1-.6 0-1 0z" fill="#f89513"/></svg><svg viewBox="0 0 277.226 212.872" width="20" height="20" id="main-icon" y="20"><path d="M148.617 125.01c-5.116 25.067-10.23 50.136-15.35 75.203-.267 1.304-.532 2.611-.869 3.897-1.434 5.487-5.576 8.88-10.649 8.759-5.124-.121-9.206-3.598-10.362-9.172-3.074-14.826-6.049-29.674-9.044-44.517-6.087-30.175-12.159-60.353-18.256-90.526-.226-1.113-.655-2.184-1.347-4.435l-12.459 58.457c-1.006 4.719-1.928 9.458-3.024 14.155-1.29 5.526-4.887 8.807-10.56 8.871-15.328.176-30.662.199-45.99-.002C4.203 145.615-.051 140.97 0 134.904c.052-6.051 4.301-10.406 10.948-10.548 10.328-.22 20.662-.081 30.994-.093 1.821-.002 3.643 0 6.078 0 2.034-9.322 4.083-18.506 6.037-27.708 6.116-28.808 12.188-57.626 18.297-86.436C73.756 3.503 77.793-.134 83.45.003c5.688.137 9.523 4.353 10.871 11.065 9.002 44.858 18.115 89.694 27.202 134.536.022.113.177.199.806.871 1.627-7.681 3.206-14.926 4.691-22.189 2.467-12.063 4.862-24.14 7.309-36.207 1.232-6.076 4.527-9.568 9.48-10.128 5.333-.602 9.431 1.993 12.015 7.794 5.073 11.392 10.215 22.756 15.031 34.256 1.374 3.281 3.112 4.377 6.643 4.358 28.327-.149 56.656-.09 84.984-.101 9.68-.003 14.875 3.844 14.741 10.939-.131 6.936-5.113 10.593-14.595 10.597-31.328.013-62.656-.082-93.983.052-6.663.029-11.104-2.412-13.504-8.757-1.573-4.161-3.624-8.142-5.462-12.202-.353.042-.709.082-1.062.123z" fill-rule="evenodd" clip-rule="evenodd" fill="#fff"/></svg><svg viewBox="0 0 23.1 22.1" width="20" height="20" id="reviews-icon-hover" y="40"><path fill="none" stroke="#f89513" stroke-width="3" stroke-linecap="square" stroke-linejoin="round" stroke-miterlimit="10" d="M11.7 2l2.9 6 6.7 1-4.8 4.7 1.1 6.7-5.9-3.2-6 3.2 1.1-6.7L2 9l6.7-1z"/></svg><svg viewBox="0 0 23.104 22.125" width="20" height="20" id="reviews-icon" y="60"><path clip-rule="evenodd" fill="none" stroke="#fff" stroke-width="3" stroke-linecap="square" stroke-linejoin="round" stroke-miterlimit="10" d="M11.651 2l2.983 6.043 6.669.969-4.826 4.704 1.139 6.641-5.965-3.135-5.964 3.135 1.139-6.641L2 9.012l6.669-.969z"/></svg><svg id="services-icon-hover" viewBox="0 0 422 306" width="20" height="20" y="80"><style>.st0{fill:#f89513}</style><path class="st0" d="M418 194.5c-2.8 9.4-5 19.6-8.7 27.9-7.9 17.9-24.1 25.9-36.3 19.4-15.1-8-25.4-27.3-26-51.5-.6-25.9-.9-52.1.2-77.9 1-22.3 9.2-37.9 21.5-46.6 12.2-8.6 23.7-5.4 34.5 7 8.1 9.2 11.5 23.4 14.8 37.8v83.9zM2 110.6c2.9-9.4 5-19.5 8.7-27.9 7.8-17.9 24-25.8 36.3-19.4 15.1 7.9 25.4 27.3 26 51.5.6 24.5.7 49.2.1 73.7-.8 28.2-14 51.3-29.9 54.7-17.5 3.7-33-12-39-39.5-.7-3.1-1.4-6.2-2.2-9.3v-83.8z"/><path class="st0" d="M288.2 188.6H134c-.1 1.9-.2 3.9-.2 5.8 0 23.5.1 47 0 70.5-.1 15.4-6.2 27.4-20.3 34.7-20.7 10.7-47.7-3.2-50.7-26.3-.4-3.1-.6-6.3-.6-9.5 0-74.3 0-148.6-.1-222.9C62.1 26 67.2 14 80.4 6.6c22.6-12.7 53.2 1.7 53.3 33.1.1 23.5 0 47 0 70.5v6.2h154.4v-5.9c0-23.5-.1-47 0-70.5.1-17.2 9.4-31.2 23.6-35.9 24.1-7.8 46.3 7.4 47.9 32.9.1 1.5.1 3 .1 4.5v222.4c0 12.7-3.6 23.7-13.9 31.6-11.3 8.6-24 10-36.8 4.2-14.3-6.5-20.8-18.7-20.9-34.2-.2-23.5-.1-47-.1-70.5.2-1.8.2-3.8.2-6.4z"/></svg><svg viewBox="0 0 422 306" width="20" height="20" id="services-icon" y="100"><g fill-rule="evenodd" clip-rule="evenodd" fill="#fff"><path d="M418 194.521c-2.847 9.359-5.011 19.565-8.68 27.906-7.892 17.938-24.068 25.925-36.324 19.442-15.116-7.994-25.426-27.295-25.976-51.545-.587-25.941-.918-52.055.21-77.899.974-22.308 9.244-37.927 21.488-46.589 12.157-8.598 23.693-5.393 34.531 6.983 8.077 9.225 11.492 23.37 14.75 37.786l.001 83.916zM2 110.606c2.852-9.355 5.037-19.531 8.692-27.898 7.804-17.862 23.987-25.846 36.319-19.391 15.104 7.908 25.366 27.255 25.959 51.539.6 24.547.745 49.206.056 73.734-.792 28.174-14.008 51.309-29.878 54.699-17.493 3.74-33.01-11.98-38.978-39.463-.68-3.129-1.445-6.205-2.171-9.306L2 110.606z"/><path d="M288.22 188.569H134.032c-.085 1.95-.24 3.868-.241 5.786-.016 23.493.08 46.987-.039 70.481-.077 15.369-6.219 27.382-20.252 34.666-20.689 10.736-47.673-3.23-50.733-26.283a72.495 72.495 0 0 1-.64-9.46c-.033-74.314.018-148.627-.059-222.94-.014-14.813 5.162-26.772 18.355-34.203 22.59-12.723 53.226 1.67 53.342 33.146.087 23.492.015 46.986.015 70.48v6.24h154.438v-5.937c.001-23.493-.061-46.987.023-70.481.062-17.182 9.43-31.246 23.65-35.867 24.08-7.826 46.289 7.409 47.908 32.877.095 1.494.074 2.998.074 4.496.004 74.146-.038 148.293.045 222.439.014 12.707-3.583 23.695-13.949 31.6-11.335 8.643-24.007 9.992-36.76 4.176-14.313-6.527-20.793-18.734-20.934-34.159-.213-23.491-.056-46.987-.056-70.48l.001-6.577z"/></g></svg></svg>
