<?xml version="1.0" encoding="utf-8"?>
<!-- Generator: Adobe Illustrator 22.0.1, SVG Export Plug-In . SVG Version: 6.00 Build 0)  -->
<svg version="1.1" id="Слой_1" xmlns="http://www.w3.org/2000/svg" xmlns:xlink="http://www.w3.org/1999/xlink" x="0px" y="0px"
	 viewBox="0 0 147.9 18" style="enable-background:new 0 0 147.9 18;" xml:space="preserve">
<style type="text/css">
	.st0{enable-background:new    ;}
	.st1{fill:#F89513;}
</style>
<g class="st0">
	<path class="st1" d="M6.4,4.5c-0.3,0-0.6-0.1-0.9-0.1C5.2,4.3,5,4.3,4.7,4.3c-0.1,0-0.1,0-0.2,0c0,0-0.1,0-0.2,0
		C4.2,4.2,4.1,4.2,4,4.1C4,4.1,3.9,4,3.9,3.8c0-0.1,0-0.3,0-0.4c0-0.1,0-0.3,0-0.4c0-0.1,0.1-0.2,0.2-0.2c0.6,0,1.2,0,1.8,0
		s1.2,0,1.8,0c0.3,0,0.7,0,1,0c0.3,0,0.6,0,1,0c0.3,0,0.6,0,0.9,0c0.3,0,0.6,0,0.9,0c0.6,0,1.2,0,1.7,0s1.2,0,1.7-0.1
		c0.1,0,0.2,0,0.3-0.1c0.2,0,0.3-0.1,0.3,0c0,0,0.1,0.1,0.1,0.3c0,0.2,0,0.3,0,0.5c0,0.2,0,0.3,0,0.5c0,0.1-0.1,0.2-0.3,0.2
		c-0.2,0-0.4,0.1-0.6,0.1c-0.2,0-0.4,0.1-0.6,0.1c-0.1,0-0.1,0-0.2,0c-0.1,0-0.1,0-0.2,0c-0.1,0-0.2,0-0.3,0.1
		c-0.1,0-0.2,0.1-0.2,0.1c0,0,0,0.1,0,0.2c0,0.1,0.1,0.2,0.1,0.2c0,0.1,0,0.1,0.1,0.2s0,0.2,0.1,0.2c0,0.2,0.1,0.3,0.1,0.5
		s0.1,0.3,0.1,0.4c0.1,0.2,0.1,0.3,0.2,0.5C14,7,14.1,7.2,14.1,7.3c0.1,0.3,0.2,0.5,0.3,0.8c0.1,0.3,0.2,0.5,0.3,0.7
		c0.3,0.6,0.5,1.1,0.7,1.7c0.2,0.6,0.4,1.1,0.5,1.7c0,0.2,0.1,0.3,0.2,0.5c0.1,0.2,0.1,0.3,0.2,0.5c0.1,0.3,0.3,0.5,0.6,0.5
		c0.1,0,0.2,0,0.3,0c0.1,0,0.2,0,0.4,0c0.2,0,0.3,0,0.5,0s0.3,0,0.5,0c0,0,0.1,0,0.2,0.1s0.1,0.1,0.1,0.1c0,0.1,0.1,0.3,0.1,0.4
		c0,0.2,0,0.3,0,0.4c0,0.1,0,0.2-0.1,0.3c-0.1,0.1-0.2,0.1-0.3,0.2c-0.1,0-0.1,0-0.2,0c-0.1,0-0.1,0-0.2,0c-0.3,0-0.7,0-1.1,0.1
		c-0.4,0-0.7,0-1.1,0c-0.2,0-0.4,0-0.6,0c-0.2,0-0.4,0-0.6,0c-0.4,0-0.7,0-1.1,0c-0.4,0-0.7,0-1.1,0.1c-0.3,0-0.5-0.1-0.6-0.3
		c0-0.1-0.1-0.2-0.1-0.3c0-0.1-0.1-0.2-0.1-0.3c0-0.2,0-0.3,0.1-0.4c0.1-0.1,0.2-0.1,0.4-0.2c0.1,0,0.2,0,0.3-0.1
		c0.1,0,0.2,0,0.3-0.1c0.1,0,0.3-0.1,0.4-0.1c0.1,0,0.3-0.1,0.4-0.1c0.1,0,0.2,0,0.3-0.1c0.1,0,0.2,0,0.3-0.1c0.1,0,0.2-0.1,0.3-0.2
		c0-0.1,0-0.2,0-0.3c-0.1-0.3-0.2-0.6-0.3-0.9c-0.1-0.3-0.2-0.6-0.4-0.9c-0.1-0.2-0.2-0.2-0.4-0.2c-0.2,0-0.3,0-0.5,0
		c-0.2,0-0.3,0-0.4,0c-0.2,0-0.5,0-0.7,0c-0.2,0-0.5,0-0.7,0c-0.7,0-1.4,0-2.1,0c-0.7,0-1.4,0-2.1,0c-0.2,0-0.4,0-0.5,0
		c-0.2,0-0.4,0-0.5,0c-0.2,0-0.3,0.1-0.4,0.3c-0.1,0.3-0.2,0.5-0.3,0.8c-0.1,0.3-0.2,0.6-0.3,0.8c-0.1,0.2,0,0.3,0.2,0.3
		c0.3,0,0.6,0.1,0.9,0.1s0.6,0.1,0.9,0.1c0.1,0,0.2,0.1,0.2,0.2c0,0.1,0,0.3,0,0.4c0,0.1,0,0.2,0,0.4c0,0.2,0,0.4-0.1,0.4
		c-0.1,0.1-0.2,0.1-0.4,0.1c-0.2,0-0.4,0-0.5,0s-0.4,0-0.5,0c-0.7,0-1.4,0.1-2.2,0.1c-0.8,0-1.6,0-2.3-0.1c-0.3,0-0.6-0.1-0.6-0.4
		c0-0.1,0-0.2,0-0.4c0-0.1,0-0.2,0-0.4c0,0,0-0.1,0.1-0.1S0.8,14,0.8,14c0.2-0.1,0.3-0.1,0.5-0.2c0.2-0.1,0.3-0.1,0.5-0.2
		c0.2-0.1,0.3-0.1,0.5-0.2c0.2-0.1,0.3-0.2,0.5-0.3C3,13,3.2,12.8,3.4,12.5c0.2-0.4,0.3-0.9,0.5-1.3c0.2-0.4,0.3-0.9,0.5-1.3
		C4.4,9.6,4.5,9.3,4.7,9C4.8,8.8,4.9,8.5,5,8.2c0.1-0.3,0.2-0.6,0.3-0.9s0.2-0.7,0.3-1C5.8,5.9,5.9,5.6,6,5.3S6.3,4.7,6.4,4.5z
		 M11.2,9.5c0.3,0,0.5,0,0.8,0c0.3,0,0.5,0,0.8,0C13,9.5,13,9.4,13,9.2c0,0,0-0.1-0.1-0.1c-0.2-0.6-0.5-1.3-0.7-1.9
		c-0.2-0.6-0.5-1.3-0.7-1.9c0-0.1,0-0.1-0.1-0.2s0-0.1-0.1-0.2c-0.1-0.2-0.2-0.3-0.5-0.3c-0.4,0-0.8,0-1.2,0.1c-0.4,0-0.8,0-1.2,0
		C8.2,4.7,8.1,4.8,8,5C8,5.2,7.9,5.4,7.9,5.5S7.7,5.9,7.7,6.1C7.5,6.5,7.3,7,7.1,7.5C6.9,8,6.8,8.5,6.6,8.9C6.5,9.1,6.5,9.2,6.4,9.3
		c0,0.1,0,0.2,0,0.3c0,0.1,0.1,0.1,0.3,0.1c0.9,0,1.7-0.1,2.4-0.1C9.8,9.5,10.5,9.5,11.2,9.5z"/>
	<path class="st1" d="M24.2,12.5c-0.6,0-1.1-0.1-1.6-0.2s-1-0.4-1.5-0.6c-0.6-0.3-1.1-0.8-1.4-1.5c-0.3-0.6-0.5-1.3-0.5-1.9
		c0-0.9,0.2-1.6,0.5-2.2s0.8-1.1,1.4-1.4s1.2-0.6,2-0.8c0.8-0.2,1.6-0.2,2.4-0.3c0.3,0,0.5,0,0.8,0s0.5,0,0.8,0c0.1,0,0.2,0,0.3-0.1
		s0.1-0.1,0.1-0.3c0-0.2,0-0.3-0.1-0.4c0-0.1-0.2-0.1-0.4-0.2l-1.6-0.5C25.1,2.3,25,2.2,25,1.9c0-0.1,0-0.1,0-0.2c0-0.1,0-0.1,0-0.2
		c0-0.2,0.1-0.3,0.1-0.4s0.2-0.1,0.4-0.1c0.9,0,1.8,0,2.6,0c0.8,0,1.6,0,2.5,0c0.1,0,0.3,0,0.4,0c0.1,0,0.2,0,0.4,0
		c0,0,0.1,0,0.1,0.1c0,0,0.1,0.1,0.1,0.1c0,0.1,0,0.2,0,0.3c0,0.1,0,0.2,0,0.3c0,0.1,0,0.2,0,0.2s0,0.1,0,0.1s-0.1,0.1-0.1,0.1
		c-0.1,0-0.1,0-0.2,0.1c-0.3,0.1-0.6,0.1-0.9,0.2c-0.4,0.1-0.7,0.2-0.9,0.2c-0.2,0-0.2,0.2-0.2,0.4c0,0.2,0.1,0.3,0.2,0.5
		c0,0,0.1,0,0.1,0.1c0.1,0,0.1,0,0.2,0c0.3,0,0.5,0,0.8,0c0.3,0,0.5,0,0.8,0c0.7,0,1.4,0,2,0.1s1.1,0.2,1.6,0.4
		c0.5,0.2,0.9,0.5,1.3,0.9s0.7,0.8,1,1.4c0.5,1.4,0.3,2.7-0.5,3.9c-0.3,0.5-0.7,0.9-1.1,1.2c-0.4,0.3-0.8,0.5-1.4,0.6
		c-0.5,0.1-0.9,0.2-1.4,0.2c-0.5,0-0.9,0-1.4,0.1c-0.3,0-0.6,0-0.9,0c-0.3,0-0.6,0-0.9,0c-0.1,0-0.2,0-0.2,0.1c0,0-0.1,0.1-0.1,0.2
		c0,0.2,0,0.3,0,0.5c0,0.1,0,0.2,0.1,0.3c0,0.1,0.1,0.1,0.2,0.2c0.1,0,0.3,0.1,0.5,0.1l1.2,0.2c0.1,0,0.2,0.1,0.3,0.2
		c0.1,0.1,0.1,0.3,0.1,0.4c0,0.3-0.1,0.5-0.4,0.6c-0.2,0.1-0.4,0.1-0.6,0.1s-0.4,0-0.6,0c-0.8,0-1.6,0-2.4,0c-0.8,0-1.5,0-2.3,0
		c-0.2,0-0.3-0.1-0.3-0.3c0-0.1,0-0.2,0-0.3c0-0.1,0-0.2,0-0.4c0-0.2,0.1-0.3,0.3-0.4c0.2,0,0.4-0.1,0.6-0.1c0.2,0,0.4-0.1,0.6-0.1
		c0.1,0,0.1,0,0.2,0s0.1,0,0.2,0c0.2,0,0.3-0.1,0.4-0.1c0-0.1,0.1-0.2,0.1-0.4c0-0.1,0-0.2,0-0.3c0-0.2,0-0.2,0-0.3s-0.1,0-0.3,0
		c-0.3,0-0.6,0-0.9,0c-0.3,0-0.6,0-0.9,0c-0.1,0-0.3,0-0.5,0S24.4,12.5,24.2,12.5z M27.4,5.8c0-0.2,0-0.2-0.1-0.3
		c0,0-0.1-0.1-0.3-0.1c-0.1,0-0.3,0-0.5,0c-0.2,0-0.4,0-0.6,0c-0.2,0-0.4,0-0.6,0c-0.2,0-0.4,0-0.5,0c-0.6,0-1.1,0.1-1.5,0.2
		S22.4,5.9,22,6.1s-0.6,0.5-0.8,0.9C21.1,7.3,21,7.7,21,8.3c0,0.7,0.4,1.3,1,1.8c0.3,0.1,0.5,0.3,0.8,0.3c0.2,0.1,0.5,0.1,0.7,0.2
		s0.5,0.1,0.7,0.1c0.2,0,0.5,0,0.7,0c0.3,0,0.7,0,1-0.1c0.4,0,0.7-0.1,1-0.1c0.2,0,0.3,0,0.3-0.1s0.1-0.1,0.1-0.3c0-0.4,0-0.8,0-1.2
		s0-0.7,0-1c0-0.3,0-0.7,0-1S27.4,6.3,27.4,5.8z M29.2,10.4c0,0.2,0.1,0.3,0.3,0.3c0.6,0,1.3,0,1.8-0.1c0.6,0,1.2,0,1.7-0.1
		c0.3,0,0.6-0.1,0.9-0.2c0.3-0.1,0.7-0.3,0.9-0.6c0.3-0.3,0.5-0.6,0.6-0.9c0.1-0.4,0.2-0.8,0.1-1.2c-0.1-0.4-0.2-0.7-0.4-1
		c-0.2-0.3-0.4-0.6-0.6-0.7c-0.3-0.2-0.5-0.3-0.7-0.3c-0.4-0.1-0.8-0.2-1.3-0.2c-0.5,0-0.9,0-1.3-0.1c-0.3,0-0.6,0-0.8,0
		s-0.6,0-0.8,0c-0.2,0-0.3,0-0.3,0.1c0,0-0.1,0.1-0.1,0.3c0,0.7,0,1.5,0,2.3C29.2,8.9,29.2,9.7,29.2,10.4z"/>
	<path class="st1" d="M41.4,6.8c0-0.3,0-0.5,0-0.8c0-0.3,0-0.5-0.1-0.8c0-0.2,0-0.3-0.1-0.4c0,0-0.2-0.1-0.4-0.1
		c-0.3,0-0.5-0.1-0.8-0.1s-0.5-0.1-0.8-0.1c-0.2,0-0.2-0.1-0.3-0.2c0-0.1,0-0.3,0-0.4c0-0.1,0-0.3,0-0.4s0-0.2,0.1-0.3
		C39.2,3.1,39.3,3,39.5,3c0,0,0.1,0,0.1,0c0,0,0.1,0,0.1,0c0.9-0.1,1.7-0.2,2.6-0.1c0.9,0,1.7,0.1,2.6,0.1c0.3,0,0.6,0,0.9,0
		c0.3,0,0.6,0,0.9,0c0.7,0,1.3,0,2,0s1.3,0,2,0.1c0.9,0.1,1.6,0.4,2.3,0.8s1.1,0.9,1.4,1.7c0.1,0.4,0.2,0.8,0.2,1.2
		c0,0.4,0,0.8-0.1,1.2c-0.1,0.4-0.2,0.8-0.5,1.1c-0.2,0.3-0.5,0.7-0.8,0.9c-0.6,0.5-1.3,0.8-1.9,0.9S49.7,11,49,11
		c-0.3,0-0.6,0-0.9,0c-0.3,0-0.6,0-0.9,0c-0.3,0-0.6,0-0.8,0s-0.6,0-0.8,0c-0.3,0-0.5,0-0.7,0c-0.2,0-0.5,0-0.7,0
		c-0.1,0-0.1,0-0.2,0c0,0-0.1,0-0.2,0c-0.2,0-0.3,0.1-0.3,0.3c0,0.3,0,0.6,0,0.9c0,0.3,0,0.6,0,0.9c0,0.1,0.1,0.2,0.1,0.3
		c0.1,0.1,0.2,0.1,0.3,0.2c0.3,0,0.5,0.1,0.7,0.2c0.2,0.1,0.5,0.2,0.7,0.3c0.2,0,0.3,0.2,0.3,0.4c0,0.1,0,0.2,0,0.3s0,0.2,0,0.3
		c0,0.1,0,0.2-0.1,0.2c0,0-0.1,0.1-0.2,0.1c-0.2,0-0.4,0-0.7,0s-0.4,0-0.7,0c-0.3,0-0.6,0-0.9,0c-0.3,0-0.6,0-0.9,0
		c-0.3,0-0.6,0-0.9,0s-0.6,0-0.9,0c-0.2,0-0.3,0-0.5,0c-0.2,0-0.3,0-0.5,0c-0.1,0-0.2,0-0.3-0.1c0,0-0.1-0.1-0.1-0.3
		c0-0.1,0-0.1,0-0.2c0-0.1,0-0.1,0-0.2c0-0.3,0.1-0.5,0.4-0.6c0.2-0.1,0.5-0.2,0.7-0.2c0.2-0.1,0.5-0.2,0.7-0.2c0.1,0,0.2,0,0.2-0.1
		c0.1,0,0.1,0,0.1-0.1c0,0,0-0.1,0-0.1c0-0.1,0-0.1,0-0.2c0-1.2,0-2.3,0-3.3C41.5,8.7,41.5,7.8,41.4,6.8z M49.2,9.3
		c0.3,0,0.5-0.1,0.7-0.1c0.2,0,0.5-0.1,0.7-0.1c0.4-0.1,0.7-0.2,1-0.4s0.5-0.5,0.7-0.9c0.1-0.2,0.2-0.4,0.3-0.6c0-0.2,0-0.4-0.1-0.6
		c-0.1-0.1-0.1-0.2-0.2-0.3c0-0.1-0.1-0.2-0.2-0.3C52.1,5.9,52,5.8,52,5.7s-0.1-0.2-0.2-0.2c-0.2-0.2-0.5-0.3-0.8-0.4
		c-0.3-0.1-0.5-0.2-0.8-0.2c-0.4,0-0.7-0.1-1.1-0.1c-0.4,0-0.7,0-1.1,0c-0.2,0-0.3,0-0.5,0s-0.3,0-0.5,0c-0.3,0-0.6,0-0.9,0
		c-0.3,0-0.6,0-0.9,0.1c-0.2,0-0.4,0.1-0.5,0.1c-0.2,0-0.4,0-0.5,0c-0.1,0-0.1,0-0.2,0c-0.1,0-0.2,0-0.2,0.1c0,0-0.1,0-0.1,0.1
		c0,0-0.1,0.1-0.1,0.1c0,0.3-0.1,0.7-0.1,1c0,0.4,0,0.8,0,1.3c0,0.4,0,0.9,0,1.3c0,0.2,0,0.4,0.1,0.4s0.2,0.1,0.4,0.1h0.4
		c0.7,0,1.2,0,1.7,0s0.9,0,1.3,0c0.4,0,0.7,0,1,0C48.6,9.2,48.9,9.2,49.2,9.3z"/>
	<path class="st1" d="M64.6,15.8c-0.1,0-0.2,0-0.3,0c-0.1,0-0.2,0-0.4,0c-0.4,0-0.8-0.1-1.1-0.1c-0.4,0-0.8-0.1-1.1-0.1
		c-0.4-0.1-0.8-0.2-1.3-0.4c-0.4-0.2-0.8-0.3-1.2-0.5c-0.4-0.2-0.7-0.4-1.1-0.7s-0.6-0.6-0.8-0.9c-0.2-0.3-0.3-0.5-0.5-0.8
		c-0.2-0.3-0.3-0.5-0.4-0.8C56.1,11,56,10.5,56,10.1s-0.1-0.9,0-1.4c0.1-0.5,0.2-0.9,0.3-1.4c0.2-0.4,0.4-0.8,0.7-1.2
		c0.4-0.5,0.9-1,1.2-1.3c0.4-0.4,0.8-0.7,1.2-0.9c0.4-0.3,0.9-0.5,1.4-0.7c0.5-0.2,1.1-0.4,1.7-0.5c0.1,0,0.1,0,0.2,0
		c0.1,0,0.2,0,0.2,0c0.2,0,0.5,0,0.7-0.1c0.2,0,0.5,0,0.7-0.1c0.3,0,0.5,0,0.7,0c1.2,0.2,2.2,0.4,3.2,0.6c0.9,0.3,1.7,0.7,2.4,1.2
		c0.6,0.5,1.2,1.1,1.5,1.9c0.4,0.8,0.6,1.7,0.6,2.8c0,0.6,0,1.2-0.1,1.7c-0.1,0.5-0.3,1-0.5,1.4c-0.2,0.4-0.4,0.8-0.6,1
		c-0.2,0.3-0.4,0.5-0.6,0.7c-0.1,0.1-0.2,0.1-0.3,0.2c-0.1,0.1-0.2,0.1-0.3,0.2c-0.2,0.1-0.4,0.3-0.6,0.4c-0.2,0.1-0.4,0.2-0.6,0.4
		c-0.5,0.2-1,0.4-1.5,0.5s-1,0.2-1.5,0.2c-0.2,0-0.4,0-0.6,0.1C65,15.7,64.8,15.8,64.6,15.8z M65,4.5c-0.1,0-0.3,0-0.6,0.1
		c-0.3,0-0.5,0-0.8,0.1c-0.4,0.1-0.7,0.1-1,0.2c-0.3,0.1-0.5,0.1-0.7,0.2c-0.2,0.1-0.4,0.1-0.6,0.2c-0.2,0.1-0.3,0.2-0.5,0.2
		c-0.1,0.1-0.3,0.1-0.4,0.2c-0.1,0.1-0.3,0.1-0.4,0.2c-0.1,0.1-0.2,0.2-0.4,0.2c-0.1,0.1-0.2,0.2-0.3,0.3c-0.2,0.2-0.4,0.4-0.5,0.7
		S58.6,7.7,58.4,8c-0.2,0.5-0.3,1.1-0.2,1.6c0.1,0.5,0.2,1,0.4,1.6c0,0.1,0.1,0.3,0.3,0.5c0.1,0.2,0.3,0.3,0.5,0.5
		c0.2,0.1,0.4,0.3,0.6,0.4s0.4,0.2,0.5,0.3c0.3,0.1,0.6,0.2,0.9,0.3c0.4,0.1,0.7,0.2,1.1,0.3c0.4,0.1,0.8,0.1,1.2,0.2
		c0.4,0,0.8,0.1,1.1,0c0.3,0,0.6,0,0.8,0c0.2,0,0.5,0,0.7-0.1s0.5-0.1,0.7-0.1c0.2,0,0.4-0.1,0.7-0.2c0.4-0.1,0.7-0.3,1.1-0.6
		s0.7-0.5,1-0.8c0.3-0.3,0.5-0.7,0.7-1c0.2-0.4,0.2-0.8,0.2-1.2c0-0.1,0-0.3,0-0.4s0-0.2,0-0.4c-0.1-0.6-0.2-1.2-0.4-1.6
		c-0.2-0.4-0.5-0.8-0.8-1.1c-0.3-0.3-0.6-0.5-1-0.7c-0.4-0.2-0.8-0.4-1.2-0.5c-0.3-0.1-0.6-0.2-1-0.2C65.8,4.6,65.4,4.6,65,4.5z"/>
	<path class="st1" d="M88.7,2.9c0.3,0,0.6,0,1,0.1C89.9,2.9,90,3,90,3.2c0,0.1,0,0.1,0,0.2c0,0.1,0,0.1,0,0.2C90,3.9,90,4,90,4
		c0,0-0.1,0.1-0.3,0.2c-0.3,0.1-0.5,0.1-0.8,0.2c-0.3,0.1-0.5,0.1-0.8,0.2c-0.2,0-0.3,0.1-0.4,0.1c0,0-0.1,0.2,0,0.3
		c0,1.1,0,2.2,0,3.2c0,1,0,2-0.1,3.1c0,0.3,0,0.7,0,1c0,0.3,0,0.6,0.1,1c0,0.1,0,0.2,0.1,0.3c0,0,0.1,0.1,0.3,0.1c0.1,0,0.2,0,0.3,0
		c0.1,0,0.2,0,0.3,0c0.2-0.1,0.4-0.1,0.6,0s0.4,0,0.6,0c0.2,0,0.3,0.1,0.3,0.3c0,0.2,0,0.3,0,0.5c0,0.2,0,0.3,0,0.5
		c0,0.3,0,0.6,0,0.8c0,0.3,0,0.6,0,0.8c0,0.2,0,0.4,0,0.5c0,0.2,0,0.4,0,0.5c0,0.3-0.2,0.5-0.5,0.5c-0.2,0-0.4,0-0.6,0
		c-0.3,0-0.5-0.2-0.5-0.5c0-0.2-0.1-0.4-0.1-0.6c0-0.2-0.1-0.4-0.1-0.6c0-0.1,0-0.2-0.1-0.3c0-0.1,0-0.2-0.1-0.3
		c0-0.2-0.1-0.3-0.1-0.3c0,0-0.1-0.1-0.3-0.1c-0.1,0-0.1,0-0.2,0c0,0-0.1,0-0.2,0c-0.4,0-0.8,0-1.2,0.1c-0.4,0-0.8,0-1.2,0.1
		c-0.3,0-0.6,0-0.9,0s-0.6,0-0.9,0c-0.8,0-1.7,0-2.5-0.1s-1.6,0-2.5,0c-0.5,0-1,0-1.5,0c-0.5,0-1,0-1.5,0c-0.2,0-0.4,0-0.4,0.1
		c-0.1,0.1-0.1,0.2-0.1,0.4c0,0.3-0.1,0.6-0.1,0.9c0,0.3-0.1,0.6-0.1,0.9c0,0.2-0.1,0.3-0.1,0.3c-0.1,0-0.2,0-0.3,0
		c-0.1,0-0.1,0-0.2,0c-0.1,0-0.1,0-0.2,0c-0.3,0-0.5-0.1-0.5-0.4c0-0.3-0.1-0.6-0.1-0.9c0-0.3,0-0.6,0-0.8c0-0.3,0-0.7,0-1
		c0-0.3-0.1-0.6,0-1c0-0.2,0-0.3,0.1-0.4s0.1-0.1,0.3-0.2c0.1,0,0.3-0.1,0.4-0.1c0.1,0,0.3,0,0.4,0c0.1,0,0.1,0,0.2,0s0.2,0,0.2,0
		c0.2,0,0.4-0.1,0.6-0.3c0.2-0.3,0.3-0.7,0.5-1c0.2-0.3,0.3-0.7,0.5-1c0.3-0.6,0.5-1.2,0.7-1.9s0.4-1.3,0.5-2C78,6.8,78,6.4,78.1,6
		c0-0.4,0-0.8,0-1.2c0-0.2-0.1-0.3-0.3-0.3c-0.2,0-0.5-0.1-0.7-0.1s-0.5-0.1-0.7-0.1c-0.2,0-0.3-0.1-0.4-0.1s-0.1-0.2-0.2-0.4
		c0-0.1,0-0.1,0-0.2c0-0.1,0-0.1,0-0.2c0-0.1,0-0.2,0-0.3c0-0.1,0-0.1,0-0.2c0,0,0.1-0.1,0.1-0.1c0.1,0,0.1,0,0.3,0
		c0.3,0,0.5,0,0.8-0.1s0.5,0,0.8-0.1c1.8,0.1,3.6,0.1,5.4,0.1C85.1,2.8,86.9,2.9,88.7,2.9z M85.7,8.9L85.7,8.9l0-1.5
		c0-0.4,0-0.7,0-1.1c0-0.4,0-0.7,0-1.1c0-0.2,0-0.3-0.1-0.4c0,0-0.1-0.1-0.3-0.1c-0.5,0-1-0.1-1.5-0.1c-0.5,0-1,0-1.5,0
		c-0.3,0-0.5,0-0.8,0c-0.3,0-0.5,0-0.8,0c-0.1,0-0.1,0-0.2,0s-0.1,0-0.2,0c-0.1,0-0.2,0-0.2,0.1c0,0-0.1,0.1-0.1,0.3
		C80,5.5,80,5.9,80,6.3c0,0.4-0.1,0.8-0.2,1.3c-0.2,0.6-0.3,1.3-0.5,1.9c-0.2,0.6-0.4,1.3-0.7,1.9c-0.1,0.3-0.2,0.5-0.3,0.9
		c-0.1,0.3-0.2,0.6-0.3,0.9c0,0.1-0.1,0.2,0,0.2c0,0,0.1,0.1,0.2,0.1c0.4,0,0.8,0,1.3,0c0.4,0,0.8,0,1.3,0c0.9,0,1.7,0,2.5,0
		c0.8,0,1.6,0,2.4,0c0.1,0,0.2,0,0.3,0c0,0,0-0.1,0-0.3c0-0.7,0-1.4-0.1-2.1S85.7,9.6,85.7,8.9z"/>
	<path class="st1" d="M108.7,13.5c0.8,0.2,1.6,0.3,2.4,0.5v1.4c-0.8,0-1.6,0-2.4,0.1c-0.6,0-1.1,0-1.7,0.1s-1.1,0-1.7,0
		c-0.1,0-0.3,0-0.5,0c-0.2,0-0.3,0-0.5-0.1c0-0.2,0-0.4-0.1-0.6c0-0.2,0-0.4-0.1-0.6c0.4-0.1,0.8-0.2,1.2-0.3
		c0.4-0.1,0.8-0.2,1.2-0.4c0-1.4,0-2.8,0-4.1c0-1.4,0-2.7-0.2-4.1c-0.1,0.1-0.2,0.1-0.2,0.1c-0.1,0-0.1,0.1-0.2,0.1
		c-0.1,0.2-0.3,0.3-0.4,0.5s-0.3,0.4-0.6,0.7c-0.2,0.3-0.5,0.6-0.9,1c-0.4,0.4-0.8,0.9-1.4,1.6c-0.6,0.6-1.2,1.4-2,2.3
		c-0.8,0.9-1.7,2-2.8,3.2c-0.2,0.2-0.3,0.3-0.5,0.4c-0.2,0.1-0.4,0.2-0.6,0.2c-0.7,0-1.3,0-2,0c-0.7,0-1.3,0-2,0c-0.1,0-0.1,0-0.2,0
		c-0.1,0-0.1-0.1-0.2-0.1c-0.1-0.2-0.1-0.4-0.2-0.6c0-0.2,0-0.4,0.1-0.6c0.3-0.1,0.7-0.2,1.1-0.3c0.4-0.1,0.7-0.2,1.1-0.3
		c0-0.2,0-0.4,0-0.5c0-0.2,0-0.3,0-0.5c0-1.1,0-2.2,0-3.4c0-1.1,0-2.2,0-3.4c0-0.1,0-0.2,0-0.2s0-0.1,0-0.2c0-0.2,0-0.3,0-0.4
		c0-0.1-0.1-0.2-0.1-0.2c0-0.1-0.1-0.1-0.2-0.1S94.2,4.5,94,4.5c-0.3-0.1-0.6-0.2-0.9-0.3c-0.3-0.1-0.6-0.2-1-0.3c0-0.2,0-0.3,0-0.5
		c0-0.2,0-0.4,0-0.6c1.1,0,2.3-0.1,3.4-0.1c1.1,0,2.2,0,3.4,0c0,0.1,0,0.2,0,0.3c0,0.1,0,0.2,0,0.3c0,0.1,0,0.2,0,0.3
		c0,0.1,0,0.2,0,0.3C99,4,98.9,4,98.8,4.1s-0.2,0.1-0.3,0.1c-0.1,0-0.2,0-0.3,0.1s-0.2,0-0.3,0.1c-0.2,0.1-0.3,0.2-0.5,0.2
		c-0.2,0.1-0.4,0.1-0.6,0.2c0,1.4,0,2.8-0.1,4.3c0,1.4,0,2.9-0.1,4.4c0.3-0.3,0.5-0.5,0.7-0.7c0.2-0.2,0.4-0.4,0.6-0.6
		c1.2-1.3,2.5-2.8,3.7-4.3c1.2-1.5,2.5-3.1,3.9-4.6c0.1-0.2,0.3-0.3,0.4-0.3s0.3-0.1,0.5-0.1c0.4,0,0.9,0,1.3,0s0.9,0,1.3,0
		c0.3,0,0.6,0,0.9,0c0.3,0,0.6,0,0.8,0.1c0.2,0.2,0.2,0.4,0.2,0.7c0,0.2-0.1,0.4-0.2,0.7c-0.3,0.1-0.7,0.1-1,0.2
		c-0.3,0.1-0.7,0.2-1,0.2c-0.1,0.3-0.2,0.5-0.2,0.8c0,0.3,0,0.5,0,0.8c0,0.6,0,1.3,0,1.9c0,0.6,0,1.3,0,1.9c0,0.6,0,1.1,0,1.7
		C108.7,12.3,108.7,12.9,108.7,13.5z"/>
	<path class="st1" d="M121.2,15.4h-2.4c-0.2,0-0.3,0-0.5,0c-0.2,0-0.3,0-0.5,0c-0.2,0-0.3,0-0.4,0c-0.1,0-0.1-0.2-0.1-0.3v-0.7
		c0-0.2,0.1-0.3,0.3-0.3c0.3,0,0.7-0.1,1-0.2c0.3-0.1,0.7-0.1,1-0.2l0.3-0.1c0.1,0,0.2-0.1,0.2-0.1s0-0.1,0.1-0.3
		c0-1.3,0.1-2.6,0.1-3.9s0-2.5,0-3.8V5.4c0-0.2,0-0.4,0-0.5s0-0.2-0.1-0.3c-0.1,0-0.1-0.1-0.3-0.1c-0.1,0-0.3,0-0.6,0
		c-0.1,0-0.3,0-0.4,0c-0.1,0-0.2,0-0.4,0c-0.5,0-1.1,0-1.6,0c-0.5,0-1.1,0-1.6,0c-0.2,0-0.3,0-0.3,0.1c0,0-0.1,0.1-0.1,0.3l-0.3,1.1
		c0,0.2-0.1,0.3-0.1,0.4c-0.1,0-0.2,0.1-0.4,0.1c-0.1,0-0.2,0-0.3,0c-0.1,0-0.2,0-0.3,0c-0.2,0-0.3-0.1-0.4-0.4V6.2
		c0-0.4,0-0.9-0.1-1.3c0-0.4,0-0.9-0.1-1.3c0-0.2,0-0.3,0-0.4c0-0.1,0-0.2,0.1-0.2c0,0,0.1-0.1,0.2-0.1s0.2,0,0.4,0
		c0.3,0,0.7,0,1-0.1s0.7,0,1,0c1.5,0,3.1,0,4.5,0c1.5,0,2.9,0,4.4,0c0.6,0,1.1,0,1.6,0c0.5,0,1.1,0,1.6,0c0.2,0,0.4,0,0.6,0.1
		c0.2,0,0.4,0,0.6,0.1c0.1,0,0.1,0,0.2,0.1c0,0,0.1,0.1,0,0.2C129,3.5,129,3.8,129,4.1s0.1,0.6,0,0.9c0,0.2,0,0.3,0,0.5
		c0,0.2,0,0.3,0,0.5c0,0.1,0,0.2-0.1,0.2c0,0-0.1,0-0.3,0c-0.2,0-0.4,0-0.6,0.1c-0.2,0-0.3,0-0.4-0.2c-0.1-0.1-0.1-0.3-0.1-0.4
		c0-0.1-0.1-0.2-0.1-0.4c0-0.1,0-0.1,0-0.2c0,0,0-0.1,0-0.1c-0.1-0.2-0.1-0.3-0.2-0.3c-0.1,0-0.2,0-0.4,0c-0.5,0-1,0-1.5,0
		c-0.5,0-1,0-1.5,0c-0.2,0-0.5,0-0.7,0c-0.2,0-0.5,0-0.7,0c-0.1,0-0.2,0-0.3,0.1c0,0-0.1,0.1-0.1,0.3c0,0.8,0,1.5,0,2.2s0,1.4,0,2.1
		s0,1.3,0,2s0,1.3,0,2c0,0.2,0.1,0.3,0.3,0.3c0.4,0.1,0.8,0.1,1.1,0.3s0.7,0.2,1.2,0.2c0.2,0,0.3,0.1,0.3,0.3c0,0.1,0,0.2,0,0.3
		c0,0.2,0,0.3,0,0.5c0,0.1,0,0.2-0.1,0.2c-0.1,0.1-0.1,0.1-0.2,0.1c-0.1,0-0.3,0-0.5,0c-0.2,0-0.5,0-0.7,0c-0.2,0-0.5,0-0.7,0
		c-0.2,0-0.5,0-0.7,0C121.7,15.3,121.4,15.4,121.2,15.4z"/>
	<path class="st1" d="M134.2,4.5c-0.3,0-0.6-0.1-0.9-0.1c-0.3,0-0.5-0.1-0.8-0.1c-0.1,0-0.1,0-0.2,0s-0.1,0-0.2,0
		c-0.2,0-0.3-0.1-0.3-0.1c-0.1-0.1-0.1-0.2-0.1-0.4c0-0.1,0-0.3,0-0.4c0-0.1,0-0.3,0-0.4c0-0.1,0.1-0.2,0.2-0.2c0.6,0,1.2,0,1.8,0
		c0.6,0,1.2,0,1.8,0c0.3,0,0.7,0,1,0c0.3,0,0.6,0,1,0c0.3,0,0.6,0,0.9,0c0.3,0,0.6,0,0.9,0c0.6,0,1.2,0,1.7,0s1.2,0,1.7-0.1
		c0.1,0,0.2,0,0.3-0.1c0.2,0,0.3-0.1,0.3,0c0,0,0.1,0.1,0.1,0.3c0,0.2,0,0.3,0,0.5c0,0.2,0,0.3,0,0.5c0,0.1-0.1,0.2-0.3,0.2
		c-0.2,0-0.4,0.1-0.6,0.1s-0.4,0.1-0.6,0.1c-0.1,0-0.1,0-0.2,0s-0.1,0-0.2,0c-0.1,0-0.2,0-0.3,0.1c-0.1,0-0.2,0.1-0.2,0.1
		c0,0,0,0.1,0,0.2c0,0.1,0.1,0.2,0.1,0.2c0,0.1,0,0.1,0.1,0.2s0,0.2,0.1,0.2c0,0.2,0.1,0.3,0.1,0.5c0,0.2,0.1,0.3,0.1,0.4
		c0.1,0.2,0.1,0.3,0.2,0.5c0.1,0.2,0.1,0.3,0.2,0.5c0.1,0.3,0.2,0.5,0.3,0.8c0.1,0.3,0.2,0.5,0.3,0.7c0.3,0.6,0.5,1.1,0.7,1.7
		c0.2,0.6,0.4,1.1,0.5,1.7c0,0.2,0.1,0.3,0.2,0.5c0.1,0.2,0.1,0.3,0.2,0.5c0.1,0.3,0.3,0.5,0.6,0.5c0.1,0,0.2,0,0.3,0
		c0.1,0,0.2,0,0.4,0c0.2,0,0.3,0,0.5,0s0.3,0,0.5,0c0,0,0.1,0,0.2,0.1c0.1,0,0.1,0.1,0.1,0.1c0,0.1,0.1,0.3,0.1,0.4
		c0,0.2,0,0.3,0,0.4c0,0.1,0,0.2-0.1,0.3c-0.1,0.1-0.2,0.1-0.3,0.2c-0.1,0-0.1,0-0.2,0c-0.1,0-0.1,0-0.2,0c-0.3,0-0.7,0-1.1,0.1
		c-0.4,0-0.7,0-1.1,0c-0.2,0-0.4,0-0.6,0c-0.2,0-0.4,0-0.6,0c-0.4,0-0.7,0-1.1,0c-0.4,0-0.7,0-1.1,0.1c-0.3,0-0.5-0.1-0.6-0.3
		c0-0.1-0.1-0.2-0.1-0.3c0-0.1-0.1-0.2-0.1-0.3c0-0.2,0-0.3,0.1-0.4s0.2-0.1,0.4-0.2c0.1,0,0.2,0,0.3-0.1c0.1,0,0.2,0,0.3-0.1
		c0.1,0,0.3-0.1,0.4-0.1c0.1,0,0.3-0.1,0.5-0.1c0.1,0,0.2,0,0.3-0.1c0.1,0,0.2,0,0.3-0.1c0.1,0,0.2-0.1,0.3-0.2c0-0.1,0-0.2,0-0.3
		c-0.1-0.3-0.2-0.6-0.3-0.9c-0.1-0.3-0.2-0.6-0.4-0.9c-0.1-0.2-0.2-0.2-0.4-0.2c-0.2,0-0.3,0-0.5,0s-0.3,0-0.4,0c-0.2,0-0.5,0-0.7,0
		c-0.2,0-0.5,0-0.7,0c-0.7,0-1.4,0-2.1,0c-0.7,0-1.4,0-2.1,0c-0.2,0-0.4,0-0.5,0s-0.4,0-0.5,0c-0.2,0-0.3,0.1-0.4,0.3
		c-0.1,0.3-0.2,0.5-0.3,0.8c-0.1,0.3-0.2,0.6-0.3,0.8c-0.1,0.2,0,0.3,0.2,0.3c0.3,0,0.6,0.1,0.9,0.1s0.6,0.1,0.9,0.1
		c0.1,0,0.2,0.1,0.2,0.2c0,0.1,0,0.3,0,0.4s0,0.2,0,0.4c0,0.2,0,0.4-0.1,0.4c-0.1,0.1-0.2,0.1-0.4,0.1c-0.2,0-0.4,0-0.5,0
		s-0.4,0-0.5,0c-0.7,0-1.4,0.1-2.2,0.1c-0.8,0-1.6,0-2.3-0.1c-0.3,0-0.6-0.1-0.6-0.4c0-0.1,0-0.2,0-0.4s0-0.2,0-0.4
		c0,0,0-0.1,0.1-0.1s0.1-0.1,0.1-0.1c0.2-0.1,0.3-0.1,0.5-0.1c0.2,0,0.3,0,0.5-0.1c0.2,0,0.3,0,0.5-0.1c0.2,0,0.3-0.1,0.5-0.3
		c0.3-0.1,0.5-0.3,0.6-0.6c0.2-0.4,0.3-0.9,0.5-1.5s0.3-1,0.5-1.4c0.1-0.3,0.2-0.6,0.3-0.9c0.1-0.3,0.2-0.6,0.3-0.9
		c0.1-0.3,0.2-0.6,0.3-0.9c0.1-0.3,0.2-0.7,0.3-1c0.1-0.3,0.2-0.6,0.4-0.9S134.1,4.7,134.2,4.5z M139.1,9.5c0.3,0,0.5,0,0.8,0
		s0.5,0,0.8,0c0.2,0,0.2-0.1,0.2-0.3c0,0,0-0.1-0.1-0.1c-0.2-0.6-0.5-1.3-0.7-1.9c-0.2-0.6-0.5-1.3-0.7-1.9c0-0.1,0-0.1-0.1-0.2
		s0-0.1-0.1-0.2c-0.1-0.2-0.2-0.3-0.4-0.3c-0.4,0-0.8,0-1.2,0.1c-0.4,0-0.8,0-1.2,0c-0.2,0-0.3,0.1-0.4,0.3
		c-0.1,0.2-0.1,0.4-0.2,0.5c-0.1,0.2-0.1,0.4-0.2,0.5c-0.2,0.5-0.4,1-0.5,1.4c-0.2,0.5-0.4,1-0.5,1.4c-0.1,0.1-0.1,0.3-0.1,0.4
		c0,0.1,0,0.2,0,0.3c0,0.1,0.1,0.1,0.3,0.1c0.9,0,1.7-0.1,2.4-0.1C137.7,9.5,138.4,9.5,139.1,9.5z"/>
</g>
</svg>
