<?xml version="1.0" encoding="utf-8"?>
<!-- Generator: Adobe Illustrator 22.0.1, SVG Export Plug-In . SVG Version: 6.00 Build 0)  -->
<svg version="1.1" id="Слой_1" xmlns="http://www.w3.org/2000/svg" xmlns:xlink="http://www.w3.org/1999/xlink" x="0px" y="0px"
	 viewBox="0 0 14.7 15.1" style="enable-background:new 0 0 14.7 15.1;" xml:space="preserve">
<style type="text/css">
	.st0{fill:#FFFFFF;}
</style>
<g>
	<path class="st0" d="M7.4,0.3c-4,0-7.2,3.2-7.2,7.2s3.2,7.2,7.2,7.2c0.6,0,1.2-0.6,1.2-1.2c0-0.3-0.1-0.6-0.3-0.8
		c-0.2-0.2-0.3-0.5-0.3-0.8c0-0.6,0.6-1.2,1.2-1.2h1.4c2.2,0,4-1.8,4-4C14.6,3.1,11.4,0.3,7.4,0.3L7.4,0.3z M3,7.4
		c-0.6,0-1.2-0.6-1.2-1.2S2.3,5.1,3,5.1c0.6,0,1.2,0.6,1.2,1.2S3.6,7.4,3,7.4L3,7.4z M5.4,4.3c-0.6,0-1.2-0.6-1.2-1.2
		c0-0.6,0.6-1.2,1.2-1.2c0.6,0,1.2,0.6,1.2,1.2C6.6,3.7,6,4.3,5.4,4.3L5.4,4.3z M9.4,4.3c-0.6,0-1.2-0.6-1.2-1.2
		c0-0.6,0.6-1.2,1.2-1.2c0.6,0,1.2,0.6,1.2,1.2C10.6,3.7,10,4.3,9.4,4.3L9.4,4.3z M11.8,7.4c-0.6,0-1.2-0.6-1.2-1.2s0.6-1.2,1.2-1.2
		c0.6,0,1.2,0.6,1.2,1.2S12.4,7.4,11.8,7.4L11.8,7.4z"/>
</g>
</svg>
